<mxfile host="app.diagrams.net" modified="2022-11-14T12:42:08.716Z" agent="5.0 (Windows NT 10.0; Win64; x64) AppleWebKit/537.36 (KHTML, like Gecko) Chrome/107.0.0.0 Safari/537.36" etag="8bsZF6MhKqOkNERZ0JWJ" version="20.5.3" type="github">
  <diagram id="9BY_PSk9wkRQL1x1XGr6" name="第 1 页">
    <mxGraphModel dx="2024" dy="680" grid="1" gridSize="10" guides="1" tooltips="1" connect="1" arrows="1" fold="0" page="1" pageScale="1" pageWidth="827" pageHeight="1169" background="#F4F1DE" math="0" shadow="0">
      <root>
        <mxCell id="0" />
        <mxCell id="1" parent="0" />
        <mxCell id="Cfy5rwxD8HpLnG3nBIZo-182" value="" style="group;fontColor=#393C56;verticalAlign=middle;rounded=0;dashed=1;labelBackgroundColor=none;labelBorderColor=none;strokeWidth=4;" vertex="1" connectable="0" parent="1">
          <mxGeometry x="-500" y="140" width="1030" height="690" as="geometry" />
        </mxCell>
        <mxCell id="Cfy5rwxD8HpLnG3nBIZo-116" value="" style="ellipse;whiteSpace=wrap;html=1;dashed=1;labelBackgroundColor=none;labelBorderColor=none;fillColor=none;strokeColor=#E07A5F;fontColor=#393C56;" vertex="1" parent="Cfy5rwxD8HpLnG3nBIZo-182">
          <mxGeometry x="458.5" y="387.5" width="450" height="225" as="geometry" />
        </mxCell>
        <mxCell id="Cfy5rwxD8HpLnG3nBIZo-105" value="" style="ellipse;whiteSpace=wrap;html=1;dashed=1;labelBackgroundColor=none;labelBorderColor=none;fillColor=none;container=1;strokeColor=#E07A5F;fontColor=#393C56;" vertex="1" parent="Cfy5rwxD8HpLnG3nBIZo-182">
          <mxGeometry x="15" width="1030" height="690" as="geometry" />
        </mxCell>
        <mxCell id="Cfy5rwxD8HpLnG3nBIZo-103" value="" style="ellipse;whiteSpace=wrap;html=1;dashed=1;labelBackgroundColor=none;labelBorderColor=none;fillColor=none;direction=east;strokeColor=#E07A5F;fontColor=#393C56;" vertex="1" parent="Cfy5rwxD8HpLnG3nBIZo-105">
          <mxGeometry x="230" y="259.5" width="370" height="325" as="geometry" />
        </mxCell>
        <mxCell id="Cfy5rwxD8HpLnG3nBIZo-53" value="用户终端" style="shape=image;verticalLabelPosition=bottom;verticalAlign=top;aspect=fixed;imageAspect=0;image=data:image/svg+xml,PHN2ZyB4bWxuczp4bGluaz0iaHR0cDovL3d3dy53My5vcmcvMTk5OS94bGluayIgeG1sbnM9Imh0dHA6Ly93d3cudzMub3JnLzIwMDAvc3ZnIiBoZWlnaHQ9IjEyOCIgd2lkdGg9IjEyOCIgdmVyc2lvbj0iMS4xIiB2aWV3Qm94PSIwIDAgMTAyNCAxMDI0IiBjbGFzcz0iaWNvbiI+PHBhdGggZmlsbD0iIzUxNTE1MSIgZD0iTTc3My44MDA0NzggMTAyNEgyNDguNjkzMjc4QTU2LjExNTIgNTYuMTE1MiAwIDAgMSAxOTIuNTc4MDc4IDk2NS44MzY4VjMzOS45NjhhMTguNDMyIDE4LjQzMiAwIDAgMSAxOC44NDE2LTE4LjQzMiAxOC44NDE2IDE4Ljg0MTYgMCAwIDEgMTguODQxNiAxOC40MzJ2NjI1Ljg2ODhhMTguODQxNiAxOC44NDE2IDAgMCAwIDE4LjQzMiAxOC44NDE2aDUyNS4xMDcyYTE5LjI1MTIgMTkuMjUxMiAwIDAgMCAxOC44NDE2LTE4Ljg0MTZ2LTIxNC42MzA0YTE4LjQzMiAxOC40MzIgMCAwIDEgMTguODQxNi0xOC40MzIgMTguODQxNiAxOC44NDE2IDAgMCAxIDE4Ljg0MTYgMTguODQxNnYyMTQuMjIwOEE1Ni41MjQ4IDU2LjUyNDggMCAwIDEgNzczLjgwMDQ3OCAxMDI0eiBtMzcuNjgzMi0zMjcuNjhhMTguODQxNiAxOC44NDE2IDAgMCAxLTE4Ljg0MTYtMTguODQxNlY1Ni4xMTUyYTE4Ljg0MTYgMTguODQxNiAwIDAgMC0xOC44NDE2LTE4LjQzMkgyNDguNjkzMjc4YTE4LjQzMiAxOC40MzIgMCAwIDAtMTguNDMyIDE4LjQzMnYxMzMuOTM5MmExOS4yNTEyIDE5LjI1MTIgMCAwIDEtMTguODQxNiAxOC44NDE2IDE4Ljg0MTYgMTguODQxNiAwIDAgMS0xOC44NDE2LTE4Ljg0MTZWNTYuMTE1MkE1Ni41MjQ4IDU2LjUyNDggMCAwIDEgMjQ4LjY5MzI3OCAwaDUyNS4xMDcyYTU2LjkzNDQgNTYuOTM0NCAwIDAgMSA1Ni41MjQ4IDU2LjExNTJ2NjIwLjEzNDRhMTkuMjUxMiAxOS4yNTEyIDAgMCAxLTE4Ljg0MTYgMjAuMDcwNHpNMjExLjQxOTY3OCAyODMuODUyOGExOC44NDE2IDE4Ljg0MTYgMCAxIDEgMC0zOC4wOTI4IDE4Ljg0MTYgMTguODQxNiAwIDAgMSAxOC44NDE2IDE4LjQzMiAxOS4yNTEyIDE5LjI1MTIgMCAwIDEtMTguODQxNiAxOS42NjA4eiIvPjxwYXRoIGZpbGw9IiM1MTUxNTEiIGQ9Ik01NDguOTMwMDc4IDExMi42NEg0NzMuOTczMjc4YTE4Ljg0MTYgMTguODQxNiAwIDAgMSAwLTM3LjY4MzJINTQ4LjkzMDA3OGExOC44NDE2IDE4Ljg0MTYgMCAxIDEgMCAzNy42ODMyek01MTEuMjQ2ODc4IDk0Ni45OTUyYTU2LjExNTIgNTYuMTE1MiAwIDAgMS01Ni4xMTUyLTU2LjExNTIgNTIuNDI4OCA1Mi40Mjg4IDAgMCAxIDMuNjg2NC0xOS42NjA4IDE4Ljg0MTYgMTguODQxNiAwIDAgMSAyMy43NTY4LTExLjA1OTIgMTkuMjUxMiAxOS4yNTEyIDAgMCAxIDExLjQ2ODggMjQuMTY2NCAxOC44NDE2IDE4Ljg0MTYgMCAwIDAgMzUuMjI1NiAxMy4xMDcyIDE4Ljg0MTYgMTguODQxNiAwIDAgMC0xMS4wNTkyLTI0LjE2NjQgMTguODQxNiAxOC44NDE2IDAgMSAxIDEwLjY0OTYtMzYuMDQ0OCA1Ni4xMTUyIDU2LjExNTIgMCAwIDEtMTUuOTc0NCAxMTAuMTgyNHpNNzczLjgwMDQ3OCAxODcuNTk2OEgyNDguNjkzMjc4YTE4Ljg0MTYgMTguODQxNiAwIDAgMSAwLTM3LjY4MzJoNTI1LjEwNzJhMTguODQxNiAxOC44NDE2IDAgMCAxIDAgMzcuNjgzMnpNNzY2LjAxODA3OCA3OTcuMDgxNkgyNTguMTE0MDc4YTE4Ljg0MTYgMTguODQxNiAwIDEgMSAwLTM3LjY4MzJINzY2LjAxODA3OGExOC44NDE2IDE4Ljg0MTYgMCAwIDEgMCAzNy42ODMyeiIvPjwvc3ZnPg==;rounded=1;fillColor=#F2CC8F;strokeColor=#E07A5F;fontColor=#393C56;" vertex="1" parent="Cfy5rwxD8HpLnG3nBIZo-105">
          <mxGeometry x="310" y="215" width="30" height="30" as="geometry" />
        </mxCell>
        <mxCell id="Cfy5rwxD8HpLnG3nBIZo-54" value="用户终端" style="shape=image;verticalLabelPosition=bottom;verticalAlign=top;aspect=fixed;imageAspect=0;image=data:image/svg+xml,PHN2ZyB4bWxuczp4bGluaz0iaHR0cDovL3d3dy53My5vcmcvMTk5OS94bGluayIgeG1sbnM9Imh0dHA6Ly93d3cudzMub3JnLzIwMDAvc3ZnIiBoZWlnaHQ9IjEyOCIgd2lkdGg9IjEyOCIgdmVyc2lvbj0iMS4xIiB2aWV3Qm94PSIwIDAgMTAyNCAxMDI0IiBjbGFzcz0iaWNvbiI+PHBhdGggZmlsbD0iIzUxNTE1MSIgZD0iTTc3My44MDA0NzggMTAyNEgyNDguNjkzMjc4QTU2LjExNTIgNTYuMTE1MiAwIDAgMSAxOTIuNTc4MDc4IDk2NS44MzY4VjMzOS45NjhhMTguNDMyIDE4LjQzMiAwIDAgMSAxOC44NDE2LTE4LjQzMiAxOC44NDE2IDE4Ljg0MTYgMCAwIDEgMTguODQxNiAxOC40MzJ2NjI1Ljg2ODhhMTguODQxNiAxOC44NDE2IDAgMCAwIDE4LjQzMiAxOC44NDE2aDUyNS4xMDcyYTE5LjI1MTIgMTkuMjUxMiAwIDAgMCAxOC44NDE2LTE4Ljg0MTZ2LTIxNC42MzA0YTE4LjQzMiAxOC40MzIgMCAwIDEgMTguODQxNi0xOC40MzIgMTguODQxNiAxOC44NDE2IDAgMCAxIDE4Ljg0MTYgMTguODQxNnYyMTQuMjIwOEE1Ni41MjQ4IDU2LjUyNDggMCAwIDEgNzczLjgwMDQ3OCAxMDI0eiBtMzcuNjgzMi0zMjcuNjhhMTguODQxNiAxOC44NDE2IDAgMCAxLTE4Ljg0MTYtMTguODQxNlY1Ni4xMTUyYTE4Ljg0MTYgMTguODQxNiAwIDAgMC0xOC44NDE2LTE4LjQzMkgyNDguNjkzMjc4YTE4LjQzMiAxOC40MzIgMCAwIDAtMTguNDMyIDE4LjQzMnYxMzMuOTM5MmExOS4yNTEyIDE5LjI1MTIgMCAwIDEtMTguODQxNiAxOC44NDE2IDE4Ljg0MTYgMTguODQxNiAwIDAgMS0xOC44NDE2LTE4Ljg0MTZWNTYuMTE1MkE1Ni41MjQ4IDU2LjUyNDggMCAwIDEgMjQ4LjY5MzI3OCAwaDUyNS4xMDcyYTU2LjkzNDQgNTYuOTM0NCAwIDAgMSA1Ni41MjQ4IDU2LjExNTJ2NjIwLjEzNDRhMTkuMjUxMiAxOS4yNTEyIDAgMCAxLTE4Ljg0MTYgMjAuMDcwNHpNMjExLjQxOTY3OCAyODMuODUyOGExOC44NDE2IDE4Ljg0MTYgMCAxIDEgMC0zOC4wOTI4IDE4Ljg0MTYgMTguODQxNiAwIDAgMSAxOC44NDE2IDE4LjQzMiAxOS4yNTEyIDE5LjI1MTIgMCAwIDEtMTguODQxNiAxOS42NjA4eiIvPjxwYXRoIGZpbGw9IiM1MTUxNTEiIGQ9Ik01NDguOTMwMDc4IDExMi42NEg0NzMuOTczMjc4YTE4Ljg0MTYgMTguODQxNiAwIDAgMSAwLTM3LjY4MzJINTQ4LjkzMDA3OGExOC44NDE2IDE4Ljg0MTYgMCAxIDEgMCAzNy42ODMyek01MTEuMjQ2ODc4IDk0Ni45OTUyYTU2LjExNTIgNTYuMTE1MiAwIDAgMS01Ni4xMTUyLTU2LjExNTIgNTIuNDI4OCA1Mi40Mjg4IDAgMCAxIDMuNjg2NC0xOS42NjA4IDE4Ljg0MTYgMTguODQxNiAwIDAgMSAyMy43NTY4LTExLjA1OTIgMTkuMjUxMiAxOS4yNTEyIDAgMCAxIDExLjQ2ODggMjQuMTY2NCAxOC44NDE2IDE4Ljg0MTYgMCAwIDAgMzUuMjI1NiAxMy4xMDcyIDE4Ljg0MTYgMTguODQxNiAwIDAgMC0xMS4wNTkyLTI0LjE2NjQgMTguODQxNiAxOC44NDE2IDAgMSAxIDEwLjY0OTYtMzYuMDQ0OCA1Ni4xMTUyIDU2LjExNTIgMCAwIDEtMTUuOTc0NCAxMTAuMTgyNHpNNzczLjgwMDQ3OCAxODcuNTk2OEgyNDguNjkzMjc4YTE4Ljg0MTYgMTguODQxNiAwIDAgMSAwLTM3LjY4MzJoNTI1LjEwNzJhMTguODQxNiAxOC44NDE2IDAgMCAxIDAgMzcuNjgzMnpNNzY2LjAxODA3OCA3OTcuMDgxNkgyNTguMTE0MDc4YTE4Ljg0MTYgMTguODQxNiAwIDEgMSAwLTM3LjY4MzJINzY2LjAxODA3OGExOC44NDE2IDE4Ljg0MTYgMCAwIDEgMCAzNy42ODMyeiIvPjwvc3ZnPg==;rounded=1;fillColor=#F2CC8F;strokeColor=#E07A5F;fontColor=#393C56;" vertex="1" parent="Cfy5rwxD8HpLnG3nBIZo-105">
          <mxGeometry x="205" y="310" width="30" height="30" as="geometry" />
        </mxCell>
        <mxCell id="Cfy5rwxD8HpLnG3nBIZo-104" value="" style="ellipse;whiteSpace=wrap;html=1;dashed=1;labelBackgroundColor=none;labelBorderColor=none;fillColor=none;strokeColor=#E07A5F;fontColor=#393C56;" vertex="1" parent="Cfy5rwxD8HpLnG3nBIZo-105">
          <mxGeometry x="370" y="60" width="400" height="305" as="geometry" />
        </mxCell>
        <mxCell id="Cfy5rwxD8HpLnG3nBIZo-139" value="&lt;b style=&quot;&quot;&gt;&lt;font style=&quot;font-size: 28px;&quot;&gt;. . . . . .&amp;nbsp;&amp;nbsp;&lt;/font&gt;&lt;/b&gt;" style="text;html=1;align=center;verticalAlign=middle;whiteSpace=wrap;rounded=0;dashed=1;labelBackgroundColor=none;labelBorderColor=none;strokeWidth=4;fillColor=none;" vertex="1" parent="Cfy5rwxD8HpLnG3nBIZo-105">
          <mxGeometry x="405" y="440" width="345" height="105" as="geometry" />
        </mxCell>
        <mxCell id="Cfy5rwxD8HpLnG3nBIZo-25" value="用户终端" style="shape=image;verticalLabelPosition=bottom;verticalAlign=top;aspect=fixed;imageAspect=0;image=data:image/svg+xml,PHN2ZyB4bWxuczp4bGluaz0iaHR0cDovL3d3dy53My5vcmcvMTk5OS94bGluayIgeG1sbnM9Imh0dHA6Ly93d3cudzMub3JnLzIwMDAvc3ZnIiBoZWlnaHQ9IjEyOCIgd2lkdGg9IjEyOCIgdmVyc2lvbj0iMS4xIiB2aWV3Qm94PSIwIDAgMTAyNCAxMDI0IiBjbGFzcz0iaWNvbiI+PHBhdGggZmlsbD0iIzUxNTE1MSIgZD0iTTc3My44MDA0NzggMTAyNEgyNDguNjkzMjc4QTU2LjExNTIgNTYuMTE1MiAwIDAgMSAxOTIuNTc4MDc4IDk2NS44MzY4VjMzOS45NjhhMTguNDMyIDE4LjQzMiAwIDAgMSAxOC44NDE2LTE4LjQzMiAxOC44NDE2IDE4Ljg0MTYgMCAwIDEgMTguODQxNiAxOC40MzJ2NjI1Ljg2ODhhMTguODQxNiAxOC44NDE2IDAgMCAwIDE4LjQzMiAxOC44NDE2aDUyNS4xMDcyYTE5LjI1MTIgMTkuMjUxMiAwIDAgMCAxOC44NDE2LTE4Ljg0MTZ2LTIxNC42MzA0YTE4LjQzMiAxOC40MzIgMCAwIDEgMTguODQxNi0xOC40MzIgMTguODQxNiAxOC44NDE2IDAgMCAxIDE4Ljg0MTYgMTguODQxNnYyMTQuMjIwOEE1Ni41MjQ4IDU2LjUyNDggMCAwIDEgNzczLjgwMDQ3OCAxMDI0eiBtMzcuNjgzMi0zMjcuNjhhMTguODQxNiAxOC44NDE2IDAgMCAxLTE4Ljg0MTYtMTguODQxNlY1Ni4xMTUyYTE4Ljg0MTYgMTguODQxNiAwIDAgMC0xOC44NDE2LTE4LjQzMkgyNDguNjkzMjc4YTE4LjQzMiAxOC40MzIgMCAwIDAtMTguNDMyIDE4LjQzMnYxMzMuOTM5MmExOS4yNTEyIDE5LjI1MTIgMCAwIDEtMTguODQxNiAxOC44NDE2IDE4Ljg0MTYgMTguODQxNiAwIDAgMS0xOC44NDE2LTE4Ljg0MTZWNTYuMTE1MkE1Ni41MjQ4IDU2LjUyNDggMCAwIDEgMjQ4LjY5MzI3OCAwaDUyNS4xMDcyYTU2LjkzNDQgNTYuOTM0NCAwIDAgMSA1Ni41MjQ4IDU2LjExNTJ2NjIwLjEzNDRhMTkuMjUxMiAxOS4yNTEyIDAgMCAxLTE4Ljg0MTYgMjAuMDcwNHpNMjExLjQxOTY3OCAyODMuODUyOGExOC44NDE2IDE4Ljg0MTYgMCAxIDEgMC0zOC4wOTI4IDE4Ljg0MTYgMTguODQxNiAwIDAgMSAxOC44NDE2IDE4LjQzMiAxOS4yNTEyIDE5LjI1MTIgMCAwIDEtMTguODQxNiAxOS42NjA4eiIvPjxwYXRoIGZpbGw9IiM1MTUxNTEiIGQ9Ik01NDguOTMwMDc4IDExMi42NEg0NzMuOTczMjc4YTE4Ljg0MTYgMTguODQxNiAwIDAgMSAwLTM3LjY4MzJINTQ4LjkzMDA3OGExOC44NDE2IDE4Ljg0MTYgMCAxIDEgMCAzNy42ODMyek01MTEuMjQ2ODc4IDk0Ni45OTUyYTU2LjExNTIgNTYuMTE1MiAwIDAgMS01Ni4xMTUyLTU2LjExNTIgNTIuNDI4OCA1Mi40Mjg4IDAgMCAxIDMuNjg2NC0xOS42NjA4IDE4Ljg0MTYgMTguODQxNiAwIDAgMSAyMy43NTY4LTExLjA1OTIgMTkuMjUxMiAxOS4yNTEyIDAgMCAxIDExLjQ2ODggMjQuMTY2NCAxOC44NDE2IDE4Ljg0MTYgMCAwIDAgMzUuMjI1NiAxMy4xMDcyIDE4Ljg0MTYgMTguODQxNiAwIDAgMC0xMS4wNTkyLTI0LjE2NjQgMTguODQxNiAxOC44NDE2IDAgMSAxIDEwLjY0OTYtMzYuMDQ0OCA1Ni4xMTUyIDU2LjExNTIgMCAwIDEtMTUuOTc0NCAxMTAuMTgyNHpNNzczLjgwMDQ3OCAxODcuNTk2OEgyNDguNjkzMjc4YTE4Ljg0MTYgMTguODQxNiAwIDAgMSAwLTM3LjY4MzJoNTI1LjEwNzJhMTguODQxNiAxOC44NDE2IDAgMCAxIDAgMzcuNjgzMnpNNzY2LjAxODA3OCA3OTcuMDgxNkgyNTguMTE0MDc4YTE4Ljg0MTYgMTguODQxNiAwIDEgMSAwLTM3LjY4MzJINzY2LjAxODA3OGExOC44NDE2IDE4Ljg0MTYgMCAwIDEgMCAzNy42ODMyeiIvPjwvc3ZnPg==;rounded=1;fillColor=#F2CC8F;strokeColor=#E07A5F;fontColor=#393C56;" vertex="1" parent="1">
          <mxGeometry x="-365" y="290" width="30" height="30" as="geometry" />
        </mxCell>
        <mxCell id="Cfy5rwxD8HpLnG3nBIZo-47" value="边缘服务器1" style="shape=image;verticalLabelPosition=bottom;verticalAlign=top;aspect=fixed;imageAspect=0;image=data:image/svg+xml,PHN2ZyB4bWxuczp4bGluaz0iaHR0cDovL3d3dy53My5vcmcvMTk5OS94bGluayIgeG1sbnM9Imh0dHA6Ly93d3cudzMub3JnLzIwMDAvc3ZnIiBoZWlnaHQ9IjEyOCIgd2lkdGg9IjEyOCIgdmVyc2lvbj0iMS4xIiB2aWV3Qm94PSIwIDAgMTAyNCAxMDI0IiBjbGFzcz0iaWNvbiI+PHBhdGggZmlsbD0iIzUxNTE1MSIgZD0iTTY3Mi4zIDIwNS4xVjk5LjlIMzUxLjl2MTA1LjJINjR2Njk2LjhoODk2LjFWMjA1LjFINjcyLjN6TTM1MS45IDg2OS40SDk2LjZWMjM3LjdoMjU1LjN2NjMxLjd6IG0yODcuOSAwSDM4NC41di03MzdoMjU1LjN2NzM3eiBtMjg3LjggMEg2NzIuM1YyMzcuN2gyNTUuM3Y2MzEuN3pNNjEyLjcgMTYyLjFINDA5VjE4MGgyMDMuNnYtMTcuOXogbTAgMzkuMUg0MDl2MTcuOWgyMDMuNnYtMTcuOXogbS0yODguOSA2Mi45SDEyMC4yVjI4MmgyMDMuNnYtMTcuOXogbTAgMzYuN0gxMjAuMnYxNy45aDIwMy42di0xNy45ek0xNDQuMSA0ODYuN2gtMjMuOXYxMjcuMWgyMy45VjQ4Ni43eiBtMjg4LjkgMGgtMjR2MTI3LjFoMjRWNDg2Ljd6IG0yODYuNiAwaC0yMy45djEyNy4xaDIzLjlWNDg2Ljd6IG0xNzkuNy0yMjIuNkg2OTUuN1YyODJoMjAzLjZ2LTE3Ljl6IG0wIDM2LjdINjk1Ljd2MTcuOWgyMDMuNnYtMTcuOXoiLz48L3N2Zz4=;rounded=1;fillColor=#F2CC8F;strokeColor=#E07A5F;fontColor=#393C56;" vertex="1" parent="1">
          <mxGeometry x="-245" y="265" width="60" height="60" as="geometry" />
        </mxCell>
        <mxCell id="Cfy5rwxD8HpLnG3nBIZo-51" value="用户终端" style="shape=image;verticalLabelPosition=bottom;verticalAlign=top;aspect=fixed;imageAspect=0;image=data:image/svg+xml,PHN2ZyB4bWxuczp4bGluaz0iaHR0cDovL3d3dy53My5vcmcvMTk5OS94bGluayIgeG1sbnM9Imh0dHA6Ly93d3cudzMub3JnLzIwMDAvc3ZnIiBoZWlnaHQ9IjEyOCIgd2lkdGg9IjEyOCIgdmVyc2lvbj0iMS4xIiB2aWV3Qm94PSIwIDAgMTAyNCAxMDI0IiBjbGFzcz0iaWNvbiI+PHBhdGggZmlsbD0iIzUxNTE1MSIgZD0iTTc3My44MDA0NzggMTAyNEgyNDguNjkzMjc4QTU2LjExNTIgNTYuMTE1MiAwIDAgMSAxOTIuNTc4MDc4IDk2NS44MzY4VjMzOS45NjhhMTguNDMyIDE4LjQzMiAwIDAgMSAxOC44NDE2LTE4LjQzMiAxOC44NDE2IDE4Ljg0MTYgMCAwIDEgMTguODQxNiAxOC40MzJ2NjI1Ljg2ODhhMTguODQxNiAxOC44NDE2IDAgMCAwIDE4LjQzMiAxOC44NDE2aDUyNS4xMDcyYTE5LjI1MTIgMTkuMjUxMiAwIDAgMCAxOC44NDE2LTE4Ljg0MTZ2LTIxNC42MzA0YTE4LjQzMiAxOC40MzIgMCAwIDEgMTguODQxNi0xOC40MzIgMTguODQxNiAxOC44NDE2IDAgMCAxIDE4Ljg0MTYgMTguODQxNnYyMTQuMjIwOEE1Ni41MjQ4IDU2LjUyNDggMCAwIDEgNzczLjgwMDQ3OCAxMDI0eiBtMzcuNjgzMi0zMjcuNjhhMTguODQxNiAxOC44NDE2IDAgMCAxLTE4Ljg0MTYtMTguODQxNlY1Ni4xMTUyYTE4Ljg0MTYgMTguODQxNiAwIDAgMC0xOC44NDE2LTE4LjQzMkgyNDguNjkzMjc4YTE4LjQzMiAxOC40MzIgMCAwIDAtMTguNDMyIDE4LjQzMnYxMzMuOTM5MmExOS4yNTEyIDE5LjI1MTIgMCAwIDEtMTguODQxNiAxOC44NDE2IDE4Ljg0MTYgMTguODQxNiAwIDAgMS0xOC44NDE2LTE4Ljg0MTZWNTYuMTE1MkE1Ni41MjQ4IDU2LjUyNDggMCAwIDEgMjQ4LjY5MzI3OCAwaDUyNS4xMDcyYTU2LjkzNDQgNTYuOTM0NCAwIDAgMSA1Ni41MjQ4IDU2LjExNTJ2NjIwLjEzNDRhMTkuMjUxMiAxOS4yNTEyIDAgMCAxLTE4Ljg0MTYgMjAuMDcwNHpNMjExLjQxOTY3OCAyODMuODUyOGExOC44NDE2IDE4Ljg0MTYgMCAxIDEgMC0zOC4wOTI4IDE4Ljg0MTYgMTguODQxNiAwIDAgMSAxOC44NDE2IDE4LjQzMiAxOS4yNTEyIDE5LjI1MTIgMCAwIDEtMTguODQxNiAxOS42NjA4eiIvPjxwYXRoIGZpbGw9IiM1MTUxNTEiIGQ9Ik01NDguOTMwMDc4IDExMi42NEg0NzMuOTczMjc4YTE4Ljg0MTYgMTguODQxNiAwIDAgMSAwLTM3LjY4MzJINTQ4LjkzMDA3OGExOC44NDE2IDE4Ljg0MTYgMCAxIDEgMCAzNy42ODMyek01MTEuMjQ2ODc4IDk0Ni45OTUyYTU2LjExNTIgNTYuMTE1MiAwIDAgMS01Ni4xMTUyLTU2LjExNTIgNTIuNDI4OCA1Mi40Mjg4IDAgMCAxIDMuNjg2NC0xOS42NjA4IDE4Ljg0MTYgMTguODQxNiAwIDAgMSAyMy43NTY4LTExLjA1OTIgMTkuMjUxMiAxOS4yNTEyIDAgMCAxIDExLjQ2ODggMjQuMTY2NCAxOC44NDE2IDE4Ljg0MTYgMCAwIDAgMzUuMjI1NiAxMy4xMDcyIDE4Ljg0MTYgMTguODQxNiAwIDAgMC0xMS4wNTkyLTI0LjE2NjQgMTguODQxNiAxOC44NDE2IDAgMSAxIDEwLjY0OTYtMzYuMDQ0OCA1Ni4xMTUyIDU2LjExNTIgMCAwIDEtMTUuOTc0NCAxMTAuMTgyNHpNNzczLjgwMDQ3OCAxODcuNTk2OEgyNDguNjkzMjc4YTE4Ljg0MTYgMTguODQxNiAwIDAgMSAwLTM3LjY4MzJoNTI1LjEwNzJhMTguODQxNiAxOC44NDE2IDAgMCAxIDAgMzcuNjgzMnpNNzY2LjAxODA3OCA3OTcuMDgxNkgyNTguMTE0MDc4YTE4Ljg0MTYgMTguODQxNiAwIDEgMSAwLTM3LjY4MzJINzY2LjAxODA3OGExOC44NDE2IDE4Ljg0MTYgMCAwIDEgMCAzNy42ODMyeiIvPjwvc3ZnPg==;rounded=1;fillColor=#F2CC8F;strokeColor=#E07A5F;fontColor=#393C56;" vertex="1" parent="1">
          <mxGeometry x="-295" y="229" width="30" height="30" as="geometry" />
        </mxCell>
        <mxCell id="Cfy5rwxD8HpLnG3nBIZo-52" value="用户终端" style="shape=image;verticalLabelPosition=bottom;verticalAlign=top;aspect=fixed;imageAspect=0;image=data:image/svg+xml,PHN2ZyB4bWxuczp4bGluaz0iaHR0cDovL3d3dy53My5vcmcvMTk5OS94bGluayIgeG1sbnM9Imh0dHA6Ly93d3cudzMub3JnLzIwMDAvc3ZnIiBoZWlnaHQ9IjEyOCIgd2lkdGg9IjEyOCIgdmVyc2lvbj0iMS4xIiB2aWV3Qm94PSIwIDAgMTAyNCAxMDI0IiBjbGFzcz0iaWNvbiI+PHBhdGggZmlsbD0iIzUxNTE1MSIgZD0iTTc3My44MDA0NzggMTAyNEgyNDguNjkzMjc4QTU2LjExNTIgNTYuMTE1MiAwIDAgMSAxOTIuNTc4MDc4IDk2NS44MzY4VjMzOS45NjhhMTguNDMyIDE4LjQzMiAwIDAgMSAxOC44NDE2LTE4LjQzMiAxOC44NDE2IDE4Ljg0MTYgMCAwIDEgMTguODQxNiAxOC40MzJ2NjI1Ljg2ODhhMTguODQxNiAxOC44NDE2IDAgMCAwIDE4LjQzMiAxOC44NDE2aDUyNS4xMDcyYTE5LjI1MTIgMTkuMjUxMiAwIDAgMCAxOC44NDE2LTE4Ljg0MTZ2LTIxNC42MzA0YTE4LjQzMiAxOC40MzIgMCAwIDEgMTguODQxNi0xOC40MzIgMTguODQxNiAxOC44NDE2IDAgMCAxIDE4Ljg0MTYgMTguODQxNnYyMTQuMjIwOEE1Ni41MjQ4IDU2LjUyNDggMCAwIDEgNzczLjgwMDQ3OCAxMDI0eiBtMzcuNjgzMi0zMjcuNjhhMTguODQxNiAxOC44NDE2IDAgMCAxLTE4Ljg0MTYtMTguODQxNlY1Ni4xMTUyYTE4Ljg0MTYgMTguODQxNiAwIDAgMC0xOC44NDE2LTE4LjQzMkgyNDguNjkzMjc4YTE4LjQzMiAxOC40MzIgMCAwIDAtMTguNDMyIDE4LjQzMnYxMzMuOTM5MmExOS4yNTEyIDE5LjI1MTIgMCAwIDEtMTguODQxNiAxOC44NDE2IDE4Ljg0MTYgMTguODQxNiAwIDAgMS0xOC44NDE2LTE4Ljg0MTZWNTYuMTE1MkE1Ni41MjQ4IDU2LjUyNDggMCAwIDEgMjQ4LjY5MzI3OCAwaDUyNS4xMDcyYTU2LjkzNDQgNTYuOTM0NCAwIDAgMSA1Ni41MjQ4IDU2LjExNTJ2NjIwLjEzNDRhMTkuMjUxMiAxOS4yNTEyIDAgMCAxLTE4Ljg0MTYgMjAuMDcwNHpNMjExLjQxOTY3OCAyODMuODUyOGExOC44NDE2IDE4Ljg0MTYgMCAxIDEgMC0zOC4wOTI4IDE4Ljg0MTYgMTguODQxNiAwIDAgMSAxOC44NDE2IDE4LjQzMiAxOS4yNTEyIDE5LjI1MTIgMCAwIDEtMTguODQxNiAxOS42NjA4eiIvPjxwYXRoIGZpbGw9IiM1MTUxNTEiIGQ9Ik01NDguOTMwMDc4IDExMi42NEg0NzMuOTczMjc4YTE4Ljg0MTYgMTguODQxNiAwIDAgMSAwLTM3LjY4MzJINTQ4LjkzMDA3OGExOC44NDE2IDE4Ljg0MTYgMCAxIDEgMCAzNy42ODMyek01MTEuMjQ2ODc4IDk0Ni45OTUyYTU2LjExNTIgNTYuMTE1MiAwIDAgMS01Ni4xMTUyLTU2LjExNTIgNTIuNDI4OCA1Mi40Mjg4IDAgMCAxIDMuNjg2NC0xOS42NjA4IDE4Ljg0MTYgMTguODQxNiAwIDAgMSAyMy43NTY4LTExLjA1OTIgMTkuMjUxMiAxOS4yNTEyIDAgMCAxIDExLjQ2ODggMjQuMTY2NCAxOC44NDE2IDE4Ljg0MTYgMCAwIDAgMzUuMjI1NiAxMy4xMDcyIDE4Ljg0MTYgMTguODQxNiAwIDAgMC0xMS4wNTkyLTI0LjE2NjQgMTguODQxNiAxOC44NDE2IDAgMSAxIDEwLjY0OTYtMzYuMDQ0OCA1Ni4xMTUyIDU2LjExNTIgMCAwIDEtMTUuOTc0NCAxMTAuMTgyNHpNNzczLjgwMDQ3OCAxODcuNTk2OEgyNDguNjkzMjc4YTE4Ljg0MTYgMTguODQxNiAwIDAgMSAwLTM3LjY4MzJoNTI1LjEwNzJhMTguODQxNiAxOC44NDE2IDAgMCAxIDAgMzcuNjgzMnpNNzY2LjAxODA3OCA3OTcuMDgxNkgyNTguMTE0MDc4YTE4Ljg0MTYgMTguODQxNiAwIDEgMSAwLTM3LjY4MzJINzY2LjAxODA3OGExOC44NDE2IDE4Ljg0MTYgMCAwIDEgMCAzNy42ODMyeiIvPjwvc3ZnPg==;rounded=1;fillColor=#F2CC8F;strokeColor=#E07A5F;fontColor=#393C56;" vertex="1" parent="1">
          <mxGeometry x="-155" y="279" width="30" height="30" as="geometry" />
        </mxCell>
        <mxCell id="Cfy5rwxD8HpLnG3nBIZo-55" value="用户终端" style="shape=image;verticalLabelPosition=bottom;verticalAlign=top;aspect=fixed;imageAspect=0;image=data:image/svg+xml,PHN2ZyB4bWxuczp4bGluaz0iaHR0cDovL3d3dy53My5vcmcvMTk5OS94bGluayIgeG1sbnM9Imh0dHA6Ly93d3cudzMub3JnLzIwMDAvc3ZnIiBoZWlnaHQ9IjEyOCIgd2lkdGg9IjEyOCIgdmVyc2lvbj0iMS4xIiB2aWV3Qm94PSIwIDAgMTAyNCAxMDI0IiBjbGFzcz0iaWNvbiI+PHBhdGggZmlsbD0iIzUxNTE1MSIgZD0iTTc3My44MDA0NzggMTAyNEgyNDguNjkzMjc4QTU2LjExNTIgNTYuMTE1MiAwIDAgMSAxOTIuNTc4MDc4IDk2NS44MzY4VjMzOS45NjhhMTguNDMyIDE4LjQzMiAwIDAgMSAxOC44NDE2LTE4LjQzMiAxOC44NDE2IDE4Ljg0MTYgMCAwIDEgMTguODQxNiAxOC40MzJ2NjI1Ljg2ODhhMTguODQxNiAxOC44NDE2IDAgMCAwIDE4LjQzMiAxOC44NDE2aDUyNS4xMDcyYTE5LjI1MTIgMTkuMjUxMiAwIDAgMCAxOC44NDE2LTE4Ljg0MTZ2LTIxNC42MzA0YTE4LjQzMiAxOC40MzIgMCAwIDEgMTguODQxNi0xOC40MzIgMTguODQxNiAxOC44NDE2IDAgMCAxIDE4Ljg0MTYgMTguODQxNnYyMTQuMjIwOEE1Ni41MjQ4IDU2LjUyNDggMCAwIDEgNzczLjgwMDQ3OCAxMDI0eiBtMzcuNjgzMi0zMjcuNjhhMTguODQxNiAxOC44NDE2IDAgMCAxLTE4Ljg0MTYtMTguODQxNlY1Ni4xMTUyYTE4Ljg0MTYgMTguODQxNiAwIDAgMC0xOC44NDE2LTE4LjQzMkgyNDguNjkzMjc4YTE4LjQzMiAxOC40MzIgMCAwIDAtMTguNDMyIDE4LjQzMnYxMzMuOTM5MmExOS4yNTEyIDE5LjI1MTIgMCAwIDEtMTguODQxNiAxOC44NDE2IDE4Ljg0MTYgMTguODQxNiAwIDAgMS0xOC44NDE2LTE4Ljg0MTZWNTYuMTE1MkE1Ni41MjQ4IDU2LjUyNDggMCAwIDEgMjQ4LjY5MzI3OCAwaDUyNS4xMDcyYTU2LjkzNDQgNTYuOTM0NCAwIDAgMSA1Ni41MjQ4IDU2LjExNTJ2NjIwLjEzNDRhMTkuMjUxMiAxOS4yNTEyIDAgMCAxLTE4Ljg0MTYgMjAuMDcwNHpNMjExLjQxOTY3OCAyODMuODUyOGExOC44NDE2IDE4Ljg0MTYgMCAxIDEgMC0zOC4wOTI4IDE4Ljg0MTYgMTguODQxNiAwIDAgMSAxOC44NDE2IDE4LjQzMiAxOS4yNTEyIDE5LjI1MTIgMCAwIDEtMTguODQxNiAxOS42NjA4eiIvPjxwYXRoIGZpbGw9IiM1MTUxNTEiIGQ9Ik01NDguOTMwMDc4IDExMi42NEg0NzMuOTczMjc4YTE4Ljg0MTYgMTguODQxNiAwIDAgMSAwLTM3LjY4MzJINTQ4LjkzMDA3OGExOC44NDE2IDE4Ljg0MTYgMCAxIDEgMCAzNy42ODMyek01MTEuMjQ2ODc4IDk0Ni45OTUyYTU2LjExNTIgNTYuMTE1MiAwIDAgMS01Ni4xMTUyLTU2LjExNTIgNTIuNDI4OCA1Mi40Mjg4IDAgMCAxIDMuNjg2NC0xOS42NjA4IDE4Ljg0MTYgMTguODQxNiAwIDAgMSAyMy43NTY4LTExLjA1OTIgMTkuMjUxMiAxOS4yNTEyIDAgMCAxIDExLjQ2ODggMjQuMTY2NCAxOC44NDE2IDE4Ljg0MTYgMCAwIDAgMzUuMjI1NiAxMy4xMDcyIDE4Ljg0MTYgMTguODQxNiAwIDAgMC0xMS4wNTkyLTI0LjE2NjQgMTguODQxNiAxOC44NDE2IDAgMSAxIDEwLjY0OTYtMzYuMDQ0OCA1Ni4xMTUyIDU2LjExNTIgMCAwIDEtMTUuOTc0NCAxMTAuMTgyNHpNNzczLjgwMDQ3OCAxODcuNTk2OEgyNDguNjkzMjc4YTE4Ljg0MTYgMTguODQxNiAwIDAgMSAwLTM3LjY4MzJoNTI1LjEwNzJhMTguODQxNiAxOC44NDE2IDAgMCAxIDAgMzcuNjgzMnpNNzY2LjAxODA3OCA3OTcuMDgxNkgyNTguMTE0MDc4YTE4Ljg0MTYgMTguODQxNiAwIDEgMSAwLTM3LjY4MzJINzY2LjAxODA3OGExOC44NDE2IDE4Ljg0MTYgMCAwIDEgMCAzNy42ODMyeiIvPjwvc3ZnPg==;rounded=1;fillColor=#F2CC8F;strokeColor=#E07A5F;fontColor=#393C56;" vertex="1" parent="1">
          <mxGeometry x="-65" y="600" width="30" height="30" as="geometry" />
        </mxCell>
        <mxCell id="Cfy5rwxD8HpLnG3nBIZo-56" value="用户终端" style="shape=image;verticalLabelPosition=bottom;verticalAlign=top;aspect=fixed;imageAspect=0;image=data:image/svg+xml,PHN2ZyB4bWxuczp4bGluaz0iaHR0cDovL3d3dy53My5vcmcvMTk5OS94bGluayIgeG1sbnM9Imh0dHA6Ly93d3cudzMub3JnLzIwMDAvc3ZnIiBoZWlnaHQ9IjEyOCIgd2lkdGg9IjEyOCIgdmVyc2lvbj0iMS4xIiB2aWV3Qm94PSIwIDAgMTAyNCAxMDI0IiBjbGFzcz0iaWNvbiI+PHBhdGggZmlsbD0iIzUxNTE1MSIgZD0iTTc3My44MDA0NzggMTAyNEgyNDguNjkzMjc4QTU2LjExNTIgNTYuMTE1MiAwIDAgMSAxOTIuNTc4MDc4IDk2NS44MzY4VjMzOS45NjhhMTguNDMyIDE4LjQzMiAwIDAgMSAxOC44NDE2LTE4LjQzMiAxOC44NDE2IDE4Ljg0MTYgMCAwIDEgMTguODQxNiAxOC40MzJ2NjI1Ljg2ODhhMTguODQxNiAxOC44NDE2IDAgMCAwIDE4LjQzMiAxOC44NDE2aDUyNS4xMDcyYTE5LjI1MTIgMTkuMjUxMiAwIDAgMCAxOC44NDE2LTE4Ljg0MTZ2LTIxNC42MzA0YTE4LjQzMiAxOC40MzIgMCAwIDEgMTguODQxNi0xOC40MzIgMTguODQxNiAxOC44NDE2IDAgMCAxIDE4Ljg0MTYgMTguODQxNnYyMTQuMjIwOEE1Ni41MjQ4IDU2LjUyNDggMCAwIDEgNzczLjgwMDQ3OCAxMDI0eiBtMzcuNjgzMi0zMjcuNjhhMTguODQxNiAxOC44NDE2IDAgMCAxLTE4Ljg0MTYtMTguODQxNlY1Ni4xMTUyYTE4Ljg0MTYgMTguODQxNiAwIDAgMC0xOC44NDE2LTE4LjQzMkgyNDguNjkzMjc4YTE4LjQzMiAxOC40MzIgMCAwIDAtMTguNDMyIDE4LjQzMnYxMzMuOTM5MmExOS4yNTEyIDE5LjI1MTIgMCAwIDEtMTguODQxNiAxOC44NDE2IDE4Ljg0MTYgMTguODQxNiAwIDAgMS0xOC44NDE2LTE4Ljg0MTZWNTYuMTE1MkE1Ni41MjQ4IDU2LjUyNDggMCAwIDEgMjQ4LjY5MzI3OCAwaDUyNS4xMDcyYTU2LjkzNDQgNTYuOTM0NCAwIDAgMSA1Ni41MjQ4IDU2LjExNTJ2NjIwLjEzNDRhMTkuMjUxMiAxOS4yNTEyIDAgMCAxLTE4Ljg0MTYgMjAuMDcwNHpNMjExLjQxOTY3OCAyODMuODUyOGExOC44NDE2IDE4Ljg0MTYgMCAxIDEgMC0zOC4wOTI4IDE4Ljg0MTYgMTguODQxNiAwIDAgMSAxOC44NDE2IDE4LjQzMiAxOS4yNTEyIDE5LjI1MTIgMCAwIDEtMTguODQxNiAxOS42NjA4eiIvPjxwYXRoIGZpbGw9IiM1MTUxNTEiIGQ9Ik01NDguOTMwMDc4IDExMi42NEg0NzMuOTczMjc4YTE4Ljg0MTYgMTguODQxNiAwIDAgMSAwLTM3LjY4MzJINTQ4LjkzMDA3OGExOC44NDE2IDE4Ljg0MTYgMCAxIDEgMCAzNy42ODMyek01MTEuMjQ2ODc4IDk0Ni45OTUyYTU2LjExNTIgNTYuMTE1MiAwIDAgMS01Ni4xMTUyLTU2LjExNTIgNTIuNDI4OCA1Mi40Mjg4IDAgMCAxIDMuNjg2NC0xOS42NjA4IDE4Ljg0MTYgMTguODQxNiAwIDAgMSAyMy43NTY4LTExLjA1OTIgMTkuMjUxMiAxOS4yNTEyIDAgMCAxIDExLjQ2ODggMjQuMTY2NCAxOC44NDE2IDE4Ljg0MTYgMCAwIDAgMzUuMjI1NiAxMy4xMDcyIDE4Ljg0MTYgMTguODQxNiAwIDAgMC0xMS4wNTkyLTI0LjE2NjQgMTguODQxNiAxOC44NDE2IDAgMSAxIDEwLjY0OTYtMzYuMDQ0OCA1Ni4xMTUyIDU2LjExNTIgMCAwIDEtMTUuOTc0NCAxMTAuMTgyNHpNNzczLjgwMDQ3OCAxODcuNTk2OEgyNDguNjkzMjc4YTE4Ljg0MTYgMTguODQxNiAwIDAgMSAwLTM3LjY4MzJoNTI1LjEwNzJhMTguODQxNiAxOC44NDE2IDAgMCAxIDAgMzcuNjgzMnpNNzY2LjAxODA3OCA3OTcuMDgxNkgyNTguMTE0MDc4YTE4Ljg0MTYgMTguODQxNiAwIDEgMSAwLTM3LjY4MzJINzY2LjAxODA3OGExOC44NDE2IDE4Ljg0MTYgMCAwIDEgMCAzNy42ODMyeiIvPjwvc3ZnPg==;rounded=1;fillColor=#F2CC8F;strokeColor=#E07A5F;fontColor=#393C56;" vertex="1" parent="1">
          <mxGeometry x="-445" y="400" width="30" height="30" as="geometry" />
        </mxCell>
        <mxCell id="Cfy5rwxD8HpLnG3nBIZo-57" value="用户终端" style="shape=image;verticalLabelPosition=bottom;verticalAlign=top;aspect=fixed;imageAspect=0;image=data:image/svg+xml,PHN2ZyB4bWxuczp4bGluaz0iaHR0cDovL3d3dy53My5vcmcvMTk5OS94bGluayIgeG1sbnM9Imh0dHA6Ly93d3cudzMub3JnLzIwMDAvc3ZnIiBoZWlnaHQ9IjEyOCIgd2lkdGg9IjEyOCIgdmVyc2lvbj0iMS4xIiB2aWV3Qm94PSIwIDAgMTAyNCAxMDI0IiBjbGFzcz0iaWNvbiI+PHBhdGggZmlsbD0iIzUxNTE1MSIgZD0iTTc3My44MDA0NzggMTAyNEgyNDguNjkzMjc4QTU2LjExNTIgNTYuMTE1MiAwIDAgMSAxOTIuNTc4MDc4IDk2NS44MzY4VjMzOS45NjhhMTguNDMyIDE4LjQzMiAwIDAgMSAxOC44NDE2LTE4LjQzMiAxOC44NDE2IDE4Ljg0MTYgMCAwIDEgMTguODQxNiAxOC40MzJ2NjI1Ljg2ODhhMTguODQxNiAxOC44NDE2IDAgMCAwIDE4LjQzMiAxOC44NDE2aDUyNS4xMDcyYTE5LjI1MTIgMTkuMjUxMiAwIDAgMCAxOC44NDE2LTE4Ljg0MTZ2LTIxNC42MzA0YTE4LjQzMiAxOC40MzIgMCAwIDEgMTguODQxNi0xOC40MzIgMTguODQxNiAxOC44NDE2IDAgMCAxIDE4Ljg0MTYgMTguODQxNnYyMTQuMjIwOEE1Ni41MjQ4IDU2LjUyNDggMCAwIDEgNzczLjgwMDQ3OCAxMDI0eiBtMzcuNjgzMi0zMjcuNjhhMTguODQxNiAxOC44NDE2IDAgMCAxLTE4Ljg0MTYtMTguODQxNlY1Ni4xMTUyYTE4Ljg0MTYgMTguODQxNiAwIDAgMC0xOC44NDE2LTE4LjQzMkgyNDguNjkzMjc4YTE4LjQzMiAxOC40MzIgMCAwIDAtMTguNDMyIDE4LjQzMnYxMzMuOTM5MmExOS4yNTEyIDE5LjI1MTIgMCAwIDEtMTguODQxNiAxOC44NDE2IDE4Ljg0MTYgMTguODQxNiAwIDAgMS0xOC44NDE2LTE4Ljg0MTZWNTYuMTE1MkE1Ni41MjQ4IDU2LjUyNDggMCAwIDEgMjQ4LjY5MzI3OCAwaDUyNS4xMDcyYTU2LjkzNDQgNTYuOTM0NCAwIDAgMSA1Ni41MjQ4IDU2LjExNTJ2NjIwLjEzNDRhMTkuMjUxMiAxOS4yNTEyIDAgMCAxLTE4Ljg0MTYgMjAuMDcwNHpNMjExLjQxOTY3OCAyODMuODUyOGExOC44NDE2IDE4Ljg0MTYgMCAxIDEgMC0zOC4wOTI4IDE4Ljg0MTYgMTguODQxNiAwIDAgMSAxOC44NDE2IDE4LjQzMiAxOS4yNTEyIDE5LjI1MTIgMCAwIDEtMTguODQxNiAxOS42NjA4eiIvPjxwYXRoIGZpbGw9IiM1MTUxNTEiIGQ9Ik01NDguOTMwMDc4IDExMi42NEg0NzMuOTczMjc4YTE4Ljg0MTYgMTguODQxNiAwIDAgMSAwLTM3LjY4MzJINTQ4LjkzMDA3OGExOC44NDE2IDE4Ljg0MTYgMCAxIDEgMCAzNy42ODMyek01MTEuMjQ2ODc4IDk0Ni45OTUyYTU2LjExNTIgNTYuMTE1MiAwIDAgMS01Ni4xMTUyLTU2LjExNTIgNTIuNDI4OCA1Mi40Mjg4IDAgMCAxIDMuNjg2NC0xOS42NjA4IDE4Ljg0MTYgMTguODQxNiAwIDAgMSAyMy43NTY4LTExLjA1OTIgMTkuMjUxMiAxOS4yNTEyIDAgMCAxIDExLjQ2ODggMjQuMTY2NCAxOC44NDE2IDE4Ljg0MTYgMCAwIDAgMzUuMjI1NiAxMy4xMDcyIDE4Ljg0MTYgMTguODQxNiAwIDAgMC0xMS4wNTkyLTI0LjE2NjQgMTguODQxNiAxOC44NDE2IDAgMSAxIDEwLjY0OTYtMzYuMDQ0OCA1Ni4xMTUyIDU2LjExNTIgMCAwIDEtMTUuOTc0NCAxMTAuMTgyNHpNNzczLjgwMDQ3OCAxODcuNTk2OEgyNDguNjkzMjc4YTE4Ljg0MTYgMTguODQxNiAwIDAgMSAwLTM3LjY4MzJoNTI1LjEwNzJhMTguODQxNiAxOC44NDE2IDAgMCAxIDAgMzcuNjgzMnpNNzY2LjAxODA3OCA3OTcuMDgxNkgyNTguMTE0MDc4YTE4Ljg0MTYgMTguODQxNiAwIDEgMSAwLTM3LjY4MzJINzY2LjAxODA3OGExOC44NDE2IDE4Ljg0MTYgMCAwIDEgMCAzNy42ODMyeiIvPjwvc3ZnPg==;rounded=1;fillColor=#F2CC8F;strokeColor=#E07A5F;fontColor=#393C56;" vertex="1" parent="1">
          <mxGeometry x="-365" y="450" width="30" height="30" as="geometry" />
        </mxCell>
        <mxCell id="Cfy5rwxD8HpLnG3nBIZo-66" value="" style="edgeStyle=none;rounded=1;orthogonalLoop=1;jettySize=auto;html=1;startArrow=none;startFill=0;endArrow=none;endFill=0;strokeColor=#E07A5F;fontColor=#393C56;labelBackgroundColor=#F4F1DE;" edge="1" parent="1" source="Cfy5rwxD8HpLnG3nBIZo-64" target="Cfy5rwxD8HpLnG3nBIZo-65">
          <mxGeometry relative="1" as="geometry" />
        </mxCell>
        <mxCell id="Cfy5rwxD8HpLnG3nBIZo-64" value="无线基站2" style="shape=image;verticalLabelPosition=bottom;verticalAlign=top;aspect=fixed;imageAspect=0;image=data:image/svg+xml,PHN2ZyB4bWxuczp4bGluaz0iaHR0cDovL3d3dy53My5vcmcvMTk5OS94bGluayIgeG1sbnM9Imh0dHA6Ly93d3cudzMub3JnLzIwMDAvc3ZnIiBoZWlnaHQ9IjEyOCIgd2lkdGg9IjEyOCIgdmVyc2lvbj0iMS4xIiB2aWV3Qm94PSIwIDAgMTAyNCAxMDI0IiBjbGFzcz0iaWNvbiI+PHBhdGggZD0iTTYxNi41IDE1MS4zbC0yOC4zIDI4LjNjMTkuNyAxOS42IDMxLjggNDYuNiAzMS44IDc2LjUgMCAyOS44LTEyLjIgNTYuOS0zMS44IDc2LjVsMjguMyAyOC4zYzI2LjgtMjcgNDMuNS02NCA0My41LTEwNC45cy0xNi43LTc3LjktNDMuNS0xMDQuN3pNNDM1LjggMTc5LjVsLTI4LjMtMjguM0MzODAuNyAxNzguMSAzNjQgMjE1LjEgMzY0IDI1NnMxNi43IDc3LjkgNDMuNSAxMDQuN2wyOC4zLTI4LjNDNDE2LjIgMzEyLjkgNDA0IDI4NS44IDQwNCAyNTZjMC0yOS45IDEyLjItNTYuOSAzMS44LTc2LjV6TTM0Ni42IDEzNC4zTDMxOC4zIDEwNmMtMzguNSAzOC40LTYyLjMgOTEuNS02Mi4zIDE1MHMyMy44IDExMS42IDYyLjMgMTUwbDI4LjMtMjguM0MzMTUuMyAzNDYuNiAyOTYgMzAzLjUgMjk2IDI1NnMxOS4zLTkwLjYgNTAuNi0xMjEuN3pNNzA1LjcgMTA2bC0yOC4zIDI4LjNDNzA4LjcgMTY1LjQgNzI4IDIwOC41IDcyOCAyNTZzLTE5LjMgOTAuNi01MC42IDEyMS43bDI4LjMgMjguM2MzOC41LTM4LjQgNjIuMy05MS41IDYyLjMtMTUwcy0yMy44LTExMS42LTYyLjMtMTUwek04MTUuMiA2MC44bC0wLjEtMC4xTDc4Ni43IDg5YzAuMSAwIDAuMSAwLjEgMC4yIDAuMUM4MzEuNSAxMzMuNyA4NTYgMTkzIDg1NiAyNTZzLTI0LjUgMTIyLjMtNjkuMSAxNjYuOWMwIDAtMC4xIDAuMS0wLjIgMC4xbDI4LjMgMjguMyAwLjEtMC4xQzg2Ny4zIDM5OSA4OTYgMzI5LjcgODk2IDI1NnMtMjguNy0xNDMtODAuOC0xOTUuMnpNMjM3LjMgODlMMjA5IDYwLjdsLTAuMSAwLjFDMTU2LjcgMTEzIDEyOCAxODIuMyAxMjggMjU2czI4LjcgMTQzIDgwLjggMTk1LjJsMC4xIDAuMSAyOC4zLTI4LjNjLTAuMSAwLTAuMS0wLjEtMC4yLTAuMS00NC41LTQ0LjYtNjktMTAzLjktNjktMTY2LjlzMjQuNS0xMjIuMyA2OS4xLTE2Ni45YzAuMSAwIDAuMS0wLjEgMC4yLTAuMXpNNTExLjcxMiAyNTYuMDAybDAuMjgzLTAuMjgzIDAuMjgzIDAuMjgzLTAuMjgzIDAuMjgzeiIvPjxwYXRoIGQ9Ik01MTEuNzE5IDI1Ni4wMjFsMC4yODItMC4yODIgMC4yODMgMC4yODItMC4yODMgMC4yODN6Ii8+PHBhdGggZD0iTTcwOC40IDYxNmwtMTQuMi0yNi4xLTcuNi0xMy45LTExLjYtMjEuMkw1MTIgMjU2IDMzNy41IDU3NmwtMjEuOCA0MEwxMjggOTYwaDc0bDMzLjgtNjQgMjguOS01M2g0OTQuNmwyOC45IDUzIDMzLjggNjRoNzRMNzA4LjQgNjE2ek01MTIgMzg5LjZMNjEzLjcgNTc2SDQxMC4zTDUxMiAzODkuNnpNMzg4LjUgNjE2SDU2OUwzMDUuNiA3NjguMSAzODguNSA2MTZ6IG0tNjMuNCAxODdsMzEzLjYtMTgxLjFMNzM3LjUgODAzSDMyNS4xeiIvPjwvc3ZnPg==;rounded=1;fillColor=#F2CC8F;strokeColor=#E07A5F;fontColor=#393C56;" vertex="1" parent="1">
          <mxGeometry x="45" y="355" width="60" height="60" as="geometry" />
        </mxCell>
        <mxCell id="Cfy5rwxD8HpLnG3nBIZo-65" value="边缘服务器2" style="shape=image;verticalLabelPosition=bottom;verticalAlign=top;aspect=fixed;imageAspect=0;image=data:image/svg+xml,PHN2ZyB4bWxuczp4bGluaz0iaHR0cDovL3d3dy53My5vcmcvMTk5OS94bGluayIgeG1sbnM9Imh0dHA6Ly93d3cudzMub3JnLzIwMDAvc3ZnIiBoZWlnaHQ9IjEyOCIgd2lkdGg9IjEyOCIgdmVyc2lvbj0iMS4xIiB2aWV3Qm94PSIwIDAgMTAyNCAxMDI0IiBjbGFzcz0iaWNvbiI+PHBhdGggZmlsbD0iIzUxNTE1MSIgZD0iTTY3Mi4zIDIwNS4xVjk5LjlIMzUxLjl2MTA1LjJINjR2Njk2LjhoODk2LjFWMjA1LjFINjcyLjN6TTM1MS45IDg2OS40SDk2LjZWMjM3LjdoMjU1LjN2NjMxLjd6IG0yODcuOSAwSDM4NC41di03MzdoMjU1LjN2NzM3eiBtMjg3LjggMEg2NzIuM1YyMzcuN2gyNTUuM3Y2MzEuN3pNNjEyLjcgMTYyLjFINDA5VjE4MGgyMDMuNnYtMTcuOXogbTAgMzkuMUg0MDl2MTcuOWgyMDMuNnYtMTcuOXogbS0yODguOSA2Mi45SDEyMC4yVjI4MmgyMDMuNnYtMTcuOXogbTAgMzYuN0gxMjAuMnYxNy45aDIwMy42di0xNy45ek0xNDQuMSA0ODYuN2gtMjMuOXYxMjcuMWgyMy45VjQ4Ni43eiBtMjg4LjkgMGgtMjR2MTI3LjFoMjRWNDg2Ljd6IG0yODYuNiAwaC0yMy45djEyNy4xaDIzLjlWNDg2Ljd6IG0xNzkuNy0yMjIuNkg2OTUuN1YyODJoMjAzLjZ2LTE3Ljl6IG0wIDM2LjdINjk1Ljd2MTcuOWgyMDMuNnYtMTcuOXoiLz48L3N2Zz4=;rounded=1;fillColor=#F2CC8F;strokeColor=#E07A5F;fontColor=#393C56;" vertex="1" parent="1">
          <mxGeometry x="70" y="249" width="60" height="60" as="geometry" />
        </mxCell>
        <mxCell id="Cfy5rwxD8HpLnG3nBIZo-67" value="" style="edgeStyle=none;rounded=1;orthogonalLoop=1;jettySize=auto;html=1;startArrow=none;startFill=0;endArrow=none;endFill=0;strokeColor=#E07A5F;fontColor=#393C56;labelBackgroundColor=#F4F1DE;" edge="1" parent="1" source="Cfy5rwxD8HpLnG3nBIZo-68" target="Cfy5rwxD8HpLnG3nBIZo-69">
          <mxGeometry relative="1" as="geometry" />
        </mxCell>
        <mxCell id="Cfy5rwxD8HpLnG3nBIZo-68" value="无线基站3" style="shape=image;verticalLabelPosition=bottom;verticalAlign=top;aspect=fixed;imageAspect=0;image=data:image/svg+xml,PHN2ZyB4bWxuczp4bGluaz0iaHR0cDovL3d3dy53My5vcmcvMTk5OS94bGluayIgeG1sbnM9Imh0dHA6Ly93d3cudzMub3JnLzIwMDAvc3ZnIiBoZWlnaHQ9IjEyOCIgd2lkdGg9IjEyOCIgdmVyc2lvbj0iMS4xIiB2aWV3Qm94PSIwIDAgMTAyNCAxMDI0IiBjbGFzcz0iaWNvbiI+PHBhdGggZD0iTTYxNi41IDE1MS4zbC0yOC4zIDI4LjNjMTkuNyAxOS42IDMxLjggNDYuNiAzMS44IDc2LjUgMCAyOS44LTEyLjIgNTYuOS0zMS44IDc2LjVsMjguMyAyOC4zYzI2LjgtMjcgNDMuNS02NCA0My41LTEwNC45cy0xNi43LTc3LjktNDMuNS0xMDQuN3pNNDM1LjggMTc5LjVsLTI4LjMtMjguM0MzODAuNyAxNzguMSAzNjQgMjE1LjEgMzY0IDI1NnMxNi43IDc3LjkgNDMuNSAxMDQuN2wyOC4zLTI4LjNDNDE2LjIgMzEyLjkgNDA0IDI4NS44IDQwNCAyNTZjMC0yOS45IDEyLjItNTYuOSAzMS44LTc2LjV6TTM0Ni42IDEzNC4zTDMxOC4zIDEwNmMtMzguNSAzOC40LTYyLjMgOTEuNS02Mi4zIDE1MHMyMy44IDExMS42IDYyLjMgMTUwbDI4LjMtMjguM0MzMTUuMyAzNDYuNiAyOTYgMzAzLjUgMjk2IDI1NnMxOS4zLTkwLjYgNTAuNi0xMjEuN3pNNzA1LjcgMTA2bC0yOC4zIDI4LjNDNzA4LjcgMTY1LjQgNzI4IDIwOC41IDcyOCAyNTZzLTE5LjMgOTAuNi01MC42IDEyMS43bDI4LjMgMjguM2MzOC41LTM4LjQgNjIuMy05MS41IDYyLjMtMTUwcy0yMy44LTExMS42LTYyLjMtMTUwek04MTUuMiA2MC44bC0wLjEtMC4xTDc4Ni43IDg5YzAuMSAwIDAuMSAwLjEgMC4yIDAuMUM4MzEuNSAxMzMuNyA4NTYgMTkzIDg1NiAyNTZzLTI0LjUgMTIyLjMtNjkuMSAxNjYuOWMwIDAtMC4xIDAuMS0wLjIgMC4xbDI4LjMgMjguMyAwLjEtMC4xQzg2Ny4zIDM5OSA4OTYgMzI5LjcgODk2IDI1NnMtMjguNy0xNDMtODAuOC0xOTUuMnpNMjM3LjMgODlMMjA5IDYwLjdsLTAuMSAwLjFDMTU2LjcgMTEzIDEyOCAxODIuMyAxMjggMjU2czI4LjcgMTQzIDgwLjggMTk1LjJsMC4xIDAuMSAyOC4zLTI4LjNjLTAuMSAwLTAuMS0wLjEtMC4yLTAuMS00NC41LTQ0LjYtNjktMTAzLjktNjktMTY2LjlzMjQuNS0xMjIuMyA2OS4xLTE2Ni45YzAuMSAwIDAuMS0wLjEgMC4yLTAuMXpNNTExLjcxMiAyNTYuMDAybDAuMjgzLTAuMjgzIDAuMjgzIDAuMjgzLTAuMjgzIDAuMjgzeiIvPjxwYXRoIGQ9Ik01MTEuNzE5IDI1Ni4wMjFsMC4yODItMC4yODIgMC4yODMgMC4yODItMC4yODMgMC4yODN6Ii8+PHBhdGggZD0iTTcwOC40IDYxNmwtMTQuMi0yNi4xLTcuNi0xMy45LTExLjYtMjEuMkw1MTIgMjU2IDMzNy41IDU3NmwtMjEuOCA0MEwxMjggOTYwaDc0bDMzLjgtNjQgMjguOS01M2g0OTQuNmwyOC45IDUzIDMzLjggNjRoNzRMNzA4LjQgNjE2ek01MTIgMzg5LjZMNjEzLjcgNTc2SDQxMC4zTDUxMiAzODkuNnpNMzg4LjUgNjE2SDU2OUwzMDUuNiA3NjguMSAzODguNSA2MTZ6IG0tNjMuNCAxODdsMzEzLjYtMTgxLjFMNzM3LjUgODAzSDMyNS4xeiIvPjwvc3ZnPg==;rounded=1;fillColor=#F2CC8F;strokeColor=#E07A5F;fontColor=#393C56;" vertex="1" parent="1">
          <mxGeometry x="-155" y="565" width="60" height="60" as="geometry" />
        </mxCell>
        <mxCell id="Cfy5rwxD8HpLnG3nBIZo-69" value="边缘服务器3" style="shape=image;verticalLabelPosition=bottom;verticalAlign=top;aspect=fixed;imageAspect=0;image=data:image/svg+xml,PHN2ZyB4bWxuczp4bGluaz0iaHR0cDovL3d3dy53My5vcmcvMTk5OS94bGluayIgeG1sbnM9Imh0dHA6Ly93d3cudzMub3JnLzIwMDAvc3ZnIiBoZWlnaHQ9IjEyOCIgd2lkdGg9IjEyOCIgdmVyc2lvbj0iMS4xIiB2aWV3Qm94PSIwIDAgMTAyNCAxMDI0IiBjbGFzcz0iaWNvbiI+PHBhdGggZmlsbD0iIzUxNTE1MSIgZD0iTTY3Mi4zIDIwNS4xVjk5LjlIMzUxLjl2MTA1LjJINjR2Njk2LjhoODk2LjFWMjA1LjFINjcyLjN6TTM1MS45IDg2OS40SDk2LjZWMjM3LjdoMjU1LjN2NjMxLjd6IG0yODcuOSAwSDM4NC41di03MzdoMjU1LjN2NzM3eiBtMjg3LjggMEg2NzIuM1YyMzcuN2gyNTUuM3Y2MzEuN3pNNjEyLjcgMTYyLjFINDA5VjE4MGgyMDMuNnYtMTcuOXogbTAgMzkuMUg0MDl2MTcuOWgyMDMuNnYtMTcuOXogbS0yODguOSA2Mi45SDEyMC4yVjI4MmgyMDMuNnYtMTcuOXogbTAgMzYuN0gxMjAuMnYxNy45aDIwMy42di0xNy45ek0xNDQuMSA0ODYuN2gtMjMuOXYxMjcuMWgyMy45VjQ4Ni43eiBtMjg4LjkgMGgtMjR2MTI3LjFoMjRWNDg2Ljd6IG0yODYuNiAwaC0yMy45djEyNy4xaDIzLjlWNDg2Ljd6IG0xNzkuNy0yMjIuNkg2OTUuN1YyODJoMjAzLjZ2LTE3Ljl6IG0wIDM2LjdINjk1Ljd2MTcuOWgyMDMuNnYtMTcuOXoiLz48L3N2Zz4=;rounded=1;fillColor=#F2CC8F;strokeColor=#E07A5F;fontColor=#393C56;" vertex="1" parent="1">
          <mxGeometry x="-50" y="480" width="60" height="60" as="geometry" />
        </mxCell>
        <mxCell id="Cfy5rwxD8HpLnG3nBIZo-70" style="edgeStyle=none;rounded=1;orthogonalLoop=1;jettySize=auto;html=1;exitX=0.25;exitY=1;exitDx=0;exitDy=0;startArrow=none;startFill=0;endArrow=none;endFill=0;strokeColor=#E07A5F;fontColor=#393C56;labelBackgroundColor=#F4F1DE;" edge="1" parent="1" source="Cfy5rwxD8HpLnG3nBIZo-69" target="Cfy5rwxD8HpLnG3nBIZo-69">
          <mxGeometry relative="1" as="geometry" />
        </mxCell>
        <mxCell id="Cfy5rwxD8HpLnG3nBIZo-71" value="用户终端" style="shape=image;verticalLabelPosition=bottom;verticalAlign=top;aspect=fixed;imageAspect=0;image=data:image/svg+xml,PHN2ZyB4bWxuczp4bGluaz0iaHR0cDovL3d3dy53My5vcmcvMTk5OS94bGluayIgeG1sbnM9Imh0dHA6Ly93d3cudzMub3JnLzIwMDAvc3ZnIiBoZWlnaHQ9IjEyOCIgd2lkdGg9IjEyOCIgdmVyc2lvbj0iMS4xIiB2aWV3Qm94PSIwIDAgMTAyNCAxMDI0IiBjbGFzcz0iaWNvbiI+PHBhdGggZmlsbD0iIzUxNTE1MSIgZD0iTTc3My44MDA0NzggMTAyNEgyNDguNjkzMjc4QTU2LjExNTIgNTYuMTE1MiAwIDAgMSAxOTIuNTc4MDc4IDk2NS44MzY4VjMzOS45NjhhMTguNDMyIDE4LjQzMiAwIDAgMSAxOC44NDE2LTE4LjQzMiAxOC44NDE2IDE4Ljg0MTYgMCAwIDEgMTguODQxNiAxOC40MzJ2NjI1Ljg2ODhhMTguODQxNiAxOC44NDE2IDAgMCAwIDE4LjQzMiAxOC44NDE2aDUyNS4xMDcyYTE5LjI1MTIgMTkuMjUxMiAwIDAgMCAxOC44NDE2LTE4Ljg0MTZ2LTIxNC42MzA0YTE4LjQzMiAxOC40MzIgMCAwIDEgMTguODQxNi0xOC40MzIgMTguODQxNiAxOC44NDE2IDAgMCAxIDE4Ljg0MTYgMTguODQxNnYyMTQuMjIwOEE1Ni41MjQ4IDU2LjUyNDggMCAwIDEgNzczLjgwMDQ3OCAxMDI0eiBtMzcuNjgzMi0zMjcuNjhhMTguODQxNiAxOC44NDE2IDAgMCAxLTE4Ljg0MTYtMTguODQxNlY1Ni4xMTUyYTE4Ljg0MTYgMTguODQxNiAwIDAgMC0xOC44NDE2LTE4LjQzMkgyNDguNjkzMjc4YTE4LjQzMiAxOC40MzIgMCAwIDAtMTguNDMyIDE4LjQzMnYxMzMuOTM5MmExOS4yNTEyIDE5LjI1MTIgMCAwIDEtMTguODQxNiAxOC44NDE2IDE4Ljg0MTYgMTguODQxNiAwIDAgMS0xOC44NDE2LTE4Ljg0MTZWNTYuMTE1MkE1Ni41MjQ4IDU2LjUyNDggMCAwIDEgMjQ4LjY5MzI3OCAwaDUyNS4xMDcyYTU2LjkzNDQgNTYuOTM0NCAwIDAgMSA1Ni41MjQ4IDU2LjExNTJ2NjIwLjEzNDRhMTkuMjUxMiAxOS4yNTEyIDAgMCAxLTE4Ljg0MTYgMjAuMDcwNHpNMjExLjQxOTY3OCAyODMuODUyOGExOC44NDE2IDE4Ljg0MTYgMCAxIDEgMC0zOC4wOTI4IDE4Ljg0MTYgMTguODQxNiAwIDAgMSAxOC44NDE2IDE4LjQzMiAxOS4yNTEyIDE5LjI1MTIgMCAwIDEtMTguODQxNiAxOS42NjA4eiIvPjxwYXRoIGZpbGw9IiM1MTUxNTEiIGQ9Ik01NDguOTMwMDc4IDExMi42NEg0NzMuOTczMjc4YTE4Ljg0MTYgMTguODQxNiAwIDAgMSAwLTM3LjY4MzJINTQ4LjkzMDA3OGExOC44NDE2IDE4Ljg0MTYgMCAxIDEgMCAzNy42ODMyek01MTEuMjQ2ODc4IDk0Ni45OTUyYTU2LjExNTIgNTYuMTE1MiAwIDAgMS01Ni4xMTUyLTU2LjExNTIgNTIuNDI4OCA1Mi40Mjg4IDAgMCAxIDMuNjg2NC0xOS42NjA4IDE4Ljg0MTYgMTguODQxNiAwIDAgMSAyMy43NTY4LTExLjA1OTIgMTkuMjUxMiAxOS4yNTEyIDAgMCAxIDExLjQ2ODggMjQuMTY2NCAxOC44NDE2IDE4Ljg0MTYgMCAwIDAgMzUuMjI1NiAxMy4xMDcyIDE4Ljg0MTYgMTguODQxNiAwIDAgMC0xMS4wNTkyLTI0LjE2NjQgMTguODQxNiAxOC44NDE2IDAgMSAxIDEwLjY0OTYtMzYuMDQ0OCA1Ni4xMTUyIDU2LjExNTIgMCAwIDEtMTUuOTc0NCAxMTAuMTgyNHpNNzczLjgwMDQ3OCAxODcuNTk2OEgyNDguNjkzMjc4YTE4Ljg0MTYgMTguODQxNiAwIDAgMSAwLTM3LjY4MzJoNTI1LjEwNzJhMTguODQxNiAxOC44NDE2IDAgMCAxIDAgMzcuNjgzMnpNNzY2LjAxODA3OCA3OTcuMDgxNkgyNTguMTE0MDc4YTE4Ljg0MTYgMTguODQxNiAwIDEgMSAwLTM3LjY4MzJINzY2LjAxODA3OGExOC44NDE2IDE4Ljg0MTYgMCAwIDEgMCAzNy42ODMyeiIvPjwvc3ZnPg==;rounded=1;fillColor=#F2CC8F;strokeColor=#E07A5F;fontColor=#393C56;" vertex="1" parent="1">
          <mxGeometry x="120" y="385" width="30" height="30" as="geometry" />
        </mxCell>
        <mxCell id="Cfy5rwxD8HpLnG3nBIZo-72" value="用户终端" style="shape=image;verticalLabelPosition=bottom;verticalAlign=top;aspect=fixed;imageAspect=0;image=data:image/svg+xml,PHN2ZyB4bWxuczp4bGluaz0iaHR0cDovL3d3dy53My5vcmcvMTk5OS94bGluayIgeG1sbnM9Imh0dHA6Ly93d3cudzMub3JnLzIwMDAvc3ZnIiBoZWlnaHQ9IjEyOCIgd2lkdGg9IjEyOCIgdmVyc2lvbj0iMS4xIiB2aWV3Qm94PSIwIDAgMTAyNCAxMDI0IiBjbGFzcz0iaWNvbiI+PHBhdGggZmlsbD0iIzUxNTE1MSIgZD0iTTc3My44MDA0NzggMTAyNEgyNDguNjkzMjc4QTU2LjExNTIgNTYuMTE1MiAwIDAgMSAxOTIuNTc4MDc4IDk2NS44MzY4VjMzOS45NjhhMTguNDMyIDE4LjQzMiAwIDAgMSAxOC44NDE2LTE4LjQzMiAxOC44NDE2IDE4Ljg0MTYgMCAwIDEgMTguODQxNiAxOC40MzJ2NjI1Ljg2ODhhMTguODQxNiAxOC44NDE2IDAgMCAwIDE4LjQzMiAxOC44NDE2aDUyNS4xMDcyYTE5LjI1MTIgMTkuMjUxMiAwIDAgMCAxOC44NDE2LTE4Ljg0MTZ2LTIxNC42MzA0YTE4LjQzMiAxOC40MzIgMCAwIDEgMTguODQxNi0xOC40MzIgMTguODQxNiAxOC44NDE2IDAgMCAxIDE4Ljg0MTYgMTguODQxNnYyMTQuMjIwOEE1Ni41MjQ4IDU2LjUyNDggMCAwIDEgNzczLjgwMDQ3OCAxMDI0eiBtMzcuNjgzMi0zMjcuNjhhMTguODQxNiAxOC44NDE2IDAgMCAxLTE4Ljg0MTYtMTguODQxNlY1Ni4xMTUyYTE4Ljg0MTYgMTguODQxNiAwIDAgMC0xOC44NDE2LTE4LjQzMkgyNDguNjkzMjc4YTE4LjQzMiAxOC40MzIgMCAwIDAtMTguNDMyIDE4LjQzMnYxMzMuOTM5MmExOS4yNTEyIDE5LjI1MTIgMCAwIDEtMTguODQxNiAxOC44NDE2IDE4Ljg0MTYgMTguODQxNiAwIDAgMS0xOC44NDE2LTE4Ljg0MTZWNTYuMTE1MkE1Ni41MjQ4IDU2LjUyNDggMCAwIDEgMjQ4LjY5MzI3OCAwaDUyNS4xMDcyYTU2LjkzNDQgNTYuOTM0NCAwIDAgMSA1Ni41MjQ4IDU2LjExNTJ2NjIwLjEzNDRhMTkuMjUxMiAxOS4yNTEyIDAgMCAxLTE4Ljg0MTYgMjAuMDcwNHpNMjExLjQxOTY3OCAyODMuODUyOGExOC44NDE2IDE4Ljg0MTYgMCAxIDEgMC0zOC4wOTI4IDE4Ljg0MTYgMTguODQxNiAwIDAgMSAxOC44NDE2IDE4LjQzMiAxOS4yNTEyIDE5LjI1MTIgMCAwIDEtMTguODQxNiAxOS42NjA4eiIvPjxwYXRoIGZpbGw9IiM1MTUxNTEiIGQ9Ik01NDguOTMwMDc4IDExMi42NEg0NzMuOTczMjc4YTE4Ljg0MTYgMTguODQxNiAwIDAgMSAwLTM3LjY4MzJINTQ4LjkzMDA3OGExOC44NDE2IDE4Ljg0MTYgMCAxIDEgMCAzNy42ODMyek01MTEuMjQ2ODc4IDk0Ni45OTUyYTU2LjExNTIgNTYuMTE1MiAwIDAgMS01Ni4xMTUyLTU2LjExNTIgNTIuNDI4OCA1Mi40Mjg4IDAgMCAxIDMuNjg2NC0xOS42NjA4IDE4Ljg0MTYgMTguODQxNiAwIDAgMSAyMy43NTY4LTExLjA1OTIgMTkuMjUxMiAxOS4yNTEyIDAgMCAxIDExLjQ2ODggMjQuMTY2NCAxOC44NDE2IDE4Ljg0MTYgMCAwIDAgMzUuMjI1NiAxMy4xMDcyIDE4Ljg0MTYgMTguODQxNiAwIDAgMC0xMS4wNTkyLTI0LjE2NjQgMTguODQxNiAxOC44NDE2IDAgMSAxIDEwLjY0OTYtMzYuMDQ0OCA1Ni4xMTUyIDU2LjExNTIgMCAwIDEtMTUuOTc0NCAxMTAuMTgyNHpNNzczLjgwMDQ3OCAxODcuNTk2OEgyNDguNjkzMjc4YTE4Ljg0MTYgMTguODQxNiAwIDAgMSAwLTM3LjY4MzJoNTI1LjEwNzJhMTguODQxNiAxOC44NDE2IDAgMCAxIDAgMzcuNjgzMnpNNzY2LjAxODA3OCA3OTcuMDgxNkgyNTguMTE0MDc4YTE4Ljg0MTYgMTguODQxNiAwIDEgMSAwLTM3LjY4MzJINzY2LjAxODA3OGExOC44NDE2IDE4Ljg0MTYgMCAwIDEgMCAzNy42ODMyeiIvPjwvc3ZnPg==;rounded=1;fillColor=#F2CC8F;strokeColor=#E07A5F;fontColor=#393C56;" vertex="1" parent="1">
          <mxGeometry x="30" y="219" width="30" height="30" as="geometry" />
        </mxCell>
        <mxCell id="Cfy5rwxD8HpLnG3nBIZo-73" value="用户终端" style="shape=image;verticalLabelPosition=bottom;verticalAlign=top;aspect=fixed;imageAspect=0;image=data:image/svg+xml,PHN2ZyB4bWxuczp4bGluaz0iaHR0cDovL3d3dy53My5vcmcvMTk5OS94bGluayIgeG1sbnM9Imh0dHA6Ly93d3cudzMub3JnLzIwMDAvc3ZnIiBoZWlnaHQ9IjEyOCIgd2lkdGg9IjEyOCIgdmVyc2lvbj0iMS4xIiB2aWV3Qm94PSIwIDAgMTAyNCAxMDI0IiBjbGFzcz0iaWNvbiI+PHBhdGggZmlsbD0iIzUxNTE1MSIgZD0iTTc3My44MDA0NzggMTAyNEgyNDguNjkzMjc4QTU2LjExNTIgNTYuMTE1MiAwIDAgMSAxOTIuNTc4MDc4IDk2NS44MzY4VjMzOS45NjhhMTguNDMyIDE4LjQzMiAwIDAgMSAxOC44NDE2LTE4LjQzMiAxOC44NDE2IDE4Ljg0MTYgMCAwIDEgMTguODQxNiAxOC40MzJ2NjI1Ljg2ODhhMTguODQxNiAxOC44NDE2IDAgMCAwIDE4LjQzMiAxOC44NDE2aDUyNS4xMDcyYTE5LjI1MTIgMTkuMjUxMiAwIDAgMCAxOC44NDE2LTE4Ljg0MTZ2LTIxNC42MzA0YTE4LjQzMiAxOC40MzIgMCAwIDEgMTguODQxNi0xOC40MzIgMTguODQxNiAxOC44NDE2IDAgMCAxIDE4Ljg0MTYgMTguODQxNnYyMTQuMjIwOEE1Ni41MjQ4IDU2LjUyNDggMCAwIDEgNzczLjgwMDQ3OCAxMDI0eiBtMzcuNjgzMi0zMjcuNjhhMTguODQxNiAxOC44NDE2IDAgMCAxLTE4Ljg0MTYtMTguODQxNlY1Ni4xMTUyYTE4Ljg0MTYgMTguODQxNiAwIDAgMC0xOC44NDE2LTE4LjQzMkgyNDguNjkzMjc4YTE4LjQzMiAxOC40MzIgMCAwIDAtMTguNDMyIDE4LjQzMnYxMzMuOTM5MmExOS4yNTEyIDE5LjI1MTIgMCAwIDEtMTguODQxNiAxOC44NDE2IDE4Ljg0MTYgMTguODQxNiAwIDAgMS0xOC44NDE2LTE4Ljg0MTZWNTYuMTE1MkE1Ni41MjQ4IDU2LjUyNDggMCAwIDEgMjQ4LjY5MzI3OCAwaDUyNS4xMDcyYTU2LjkzNDQgNTYuOTM0NCAwIDAgMSA1Ni41MjQ4IDU2LjExNTJ2NjIwLjEzNDRhMTkuMjUxMiAxOS4yNTEyIDAgMCAxLTE4Ljg0MTYgMjAuMDcwNHpNMjExLjQxOTY3OCAyODMuODUyOGExOC44NDE2IDE4Ljg0MTYgMCAxIDEgMC0zOC4wOTI4IDE4Ljg0MTYgMTguODQxNiAwIDAgMSAxOC44NDE2IDE4LjQzMiAxOS4yNTEyIDE5LjI1MTIgMCAwIDEtMTguODQxNiAxOS42NjA4eiIvPjxwYXRoIGZpbGw9IiM1MTUxNTEiIGQ9Ik01NDguOTMwMDc4IDExMi42NEg0NzMuOTczMjc4YTE4Ljg0MTYgMTguODQxNiAwIDAgMSAwLTM3LjY4MzJINTQ4LjkzMDA3OGExOC44NDE2IDE4Ljg0MTYgMCAxIDEgMCAzNy42ODMyek01MTEuMjQ2ODc4IDk0Ni45OTUyYTU2LjExNTIgNTYuMTE1MiAwIDAgMS01Ni4xMTUyLTU2LjExNTIgNTIuNDI4OCA1Mi40Mjg4IDAgMCAxIDMuNjg2NC0xOS42NjA4IDE4Ljg0MTYgMTguODQxNiAwIDAgMSAyMy43NTY4LTExLjA1OTIgMTkuMjUxMiAxOS4yNTEyIDAgMCAxIDExLjQ2ODggMjQuMTY2NCAxOC44NDE2IDE4Ljg0MTYgMCAwIDAgMzUuMjI1NiAxMy4xMDcyIDE4Ljg0MTYgMTguODQxNiAwIDAgMC0xMS4wNTkyLTI0LjE2NjQgMTguODQxNiAxOC44NDE2IDAgMSAxIDEwLjY0OTYtMzYuMDQ0OCA1Ni4xMTUyIDU2LjExNTIgMCAwIDEtMTUuOTc0NCAxMTAuMTgyNHpNNzczLjgwMDQ3OCAxODcuNTk2OEgyNDguNjkzMjc4YTE4Ljg0MTYgMTguODQxNiAwIDAgMSAwLTM3LjY4MzJoNTI1LjEwNzJhMTguODQxNiAxOC44NDE2IDAgMCAxIDAgMzcuNjgzMnpNNzY2LjAxODA3OCA3OTcuMDgxNkgyNTguMTE0MDc4YTE4Ljg0MTYgMTguODQxNiAwIDEgMSAwLTM3LjY4MzJINzY2LjAxODA3OGExOC44NDE2IDE4Ljg0MTYgMCAwIDEgMCAzNy42ODMyeiIvPjwvc3ZnPg==;rounded=1;fillColor=#F2CC8F;strokeColor=#E07A5F;fontColor=#393C56;" vertex="1" parent="1">
          <mxGeometry x="-175" y="200" width="30" height="30" as="geometry" />
        </mxCell>
        <mxCell id="Cfy5rwxD8HpLnG3nBIZo-74" value="用户终端" style="shape=image;verticalLabelPosition=bottom;verticalAlign=top;aspect=fixed;imageAspect=0;image=data:image/svg+xml,PHN2ZyB4bWxuczp4bGluaz0iaHR0cDovL3d3dy53My5vcmcvMTk5OS94bGluayIgeG1sbnM9Imh0dHA6Ly93d3cudzMub3JnLzIwMDAvc3ZnIiBoZWlnaHQ9IjEyOCIgd2lkdGg9IjEyOCIgdmVyc2lvbj0iMS4xIiB2aWV3Qm94PSIwIDAgMTAyNCAxMDI0IiBjbGFzcz0iaWNvbiI+PHBhdGggZmlsbD0iIzUxNTE1MSIgZD0iTTc3My44MDA0NzggMTAyNEgyNDguNjkzMjc4QTU2LjExNTIgNTYuMTE1MiAwIDAgMSAxOTIuNTc4MDc4IDk2NS44MzY4VjMzOS45NjhhMTguNDMyIDE4LjQzMiAwIDAgMSAxOC44NDE2LTE4LjQzMiAxOC44NDE2IDE4Ljg0MTYgMCAwIDEgMTguODQxNiAxOC40MzJ2NjI1Ljg2ODhhMTguODQxNiAxOC44NDE2IDAgMCAwIDE4LjQzMiAxOC44NDE2aDUyNS4xMDcyYTE5LjI1MTIgMTkuMjUxMiAwIDAgMCAxOC44NDE2LTE4Ljg0MTZ2LTIxNC42MzA0YTE4LjQzMiAxOC40MzIgMCAwIDEgMTguODQxNi0xOC40MzIgMTguODQxNiAxOC44NDE2IDAgMCAxIDE4Ljg0MTYgMTguODQxNnYyMTQuMjIwOEE1Ni41MjQ4IDU2LjUyNDggMCAwIDEgNzczLjgwMDQ3OCAxMDI0eiBtMzcuNjgzMi0zMjcuNjhhMTguODQxNiAxOC44NDE2IDAgMCAxLTE4Ljg0MTYtMTguODQxNlY1Ni4xMTUyYTE4Ljg0MTYgMTguODQxNiAwIDAgMC0xOC44NDE2LTE4LjQzMkgyNDguNjkzMjc4YTE4LjQzMiAxOC40MzIgMCAwIDAtMTguNDMyIDE4LjQzMnYxMzMuOTM5MmExOS4yNTEyIDE5LjI1MTIgMCAwIDEtMTguODQxNiAxOC44NDE2IDE4Ljg0MTYgMTguODQxNiAwIDAgMS0xOC44NDE2LTE4Ljg0MTZWNTYuMTE1MkE1Ni41MjQ4IDU2LjUyNDggMCAwIDEgMjQ4LjY5MzI3OCAwaDUyNS4xMDcyYTU2LjkzNDQgNTYuOTM0NCAwIDAgMSA1Ni41MjQ4IDU2LjExNTJ2NjIwLjEzNDRhMTkuMjUxMiAxOS4yNTEyIDAgMCAxLTE4Ljg0MTYgMjAuMDcwNHpNMjExLjQxOTY3OCAyODMuODUyOGExOC44NDE2IDE4Ljg0MTYgMCAxIDEgMC0zOC4wOTI4IDE4Ljg0MTYgMTguODQxNiAwIDAgMSAxOC44NDE2IDE4LjQzMiAxOS4yNTEyIDE5LjI1MTIgMCAwIDEtMTguODQxNiAxOS42NjA4eiIvPjxwYXRoIGZpbGw9IiM1MTUxNTEiIGQ9Ik01NDguOTMwMDc4IDExMi42NEg0NzMuOTczMjc4YTE4Ljg0MTYgMTguODQxNiAwIDAgMSAwLTM3LjY4MzJINTQ4LjkzMDA3OGExOC44NDE2IDE4Ljg0MTYgMCAxIDEgMCAzNy42ODMyek01MTEuMjQ2ODc4IDk0Ni45OTUyYTU2LjExNTIgNTYuMTE1MiAwIDAgMS01Ni4xMTUyLTU2LjExNTIgNTIuNDI4OCA1Mi40Mjg4IDAgMCAxIDMuNjg2NC0xOS42NjA4IDE4Ljg0MTYgMTguODQxNiAwIDAgMSAyMy43NTY4LTExLjA1OTIgMTkuMjUxMiAxOS4yNTEyIDAgMCAxIDExLjQ2ODggMjQuMTY2NCAxOC44NDE2IDE4Ljg0MTYgMCAwIDAgMzUuMjI1NiAxMy4xMDcyIDE4Ljg0MTYgMTguODQxNiAwIDAgMC0xMS4wNTkyLTI0LjE2NjQgMTguODQxNiAxOC44NDE2IDAgMSAxIDEwLjY0OTYtMzYuMDQ0OCA1Ni4xMTUyIDU2LjExNTIgMCAwIDEtMTUuOTc0NCAxMTAuMTgyNHpNNzczLjgwMDQ3OCAxODcuNTk2OEgyNDguNjkzMjc4YTE4Ljg0MTYgMTguODQxNiAwIDAgMSAwLTM3LjY4MzJoNTI1LjEwNzJhMTguODQxNiAxOC44NDE2IDAgMCAxIDAgMzcuNjgzMnpNNzY2LjAxODA3OCA3OTcuMDgxNkgyNTguMTE0MDc4YTE4Ljg0MTYgMTguODQxNiAwIDEgMSAwLTM3LjY4MzJINzY2LjAxODA3OGExOC44NDE2IDE4Ljg0MTYgMCAwIDEgMCAzNy42ODMyeiIvPjwvc3ZnPg==;rounded=1;fillColor=#F2CC8F;strokeColor=#E07A5F;fontColor=#393C56;" vertex="1" parent="1">
          <mxGeometry x="-35" y="340" width="30" height="30" as="geometry" />
        </mxCell>
        <mxCell id="Cfy5rwxD8HpLnG3nBIZo-75" value="用户终端" style="shape=image;verticalLabelPosition=bottom;verticalAlign=top;aspect=fixed;imageAspect=0;image=data:image/svg+xml,PHN2ZyB4bWxuczp4bGluaz0iaHR0cDovL3d3dy53My5vcmcvMTk5OS94bGluayIgeG1sbnM9Imh0dHA6Ly93d3cudzMub3JnLzIwMDAvc3ZnIiBoZWlnaHQ9IjEyOCIgd2lkdGg9IjEyOCIgdmVyc2lvbj0iMS4xIiB2aWV3Qm94PSIwIDAgMTAyNCAxMDI0IiBjbGFzcz0iaWNvbiI+PHBhdGggZmlsbD0iIzUxNTE1MSIgZD0iTTc3My44MDA0NzggMTAyNEgyNDguNjkzMjc4QTU2LjExNTIgNTYuMTE1MiAwIDAgMSAxOTIuNTc4MDc4IDk2NS44MzY4VjMzOS45NjhhMTguNDMyIDE4LjQzMiAwIDAgMSAxOC44NDE2LTE4LjQzMiAxOC44NDE2IDE4Ljg0MTYgMCAwIDEgMTguODQxNiAxOC40MzJ2NjI1Ljg2ODhhMTguODQxNiAxOC44NDE2IDAgMCAwIDE4LjQzMiAxOC44NDE2aDUyNS4xMDcyYTE5LjI1MTIgMTkuMjUxMiAwIDAgMCAxOC44NDE2LTE4Ljg0MTZ2LTIxNC42MzA0YTE4LjQzMiAxOC40MzIgMCAwIDEgMTguODQxNi0xOC40MzIgMTguODQxNiAxOC44NDE2IDAgMCAxIDE4Ljg0MTYgMTguODQxNnYyMTQuMjIwOEE1Ni41MjQ4IDU2LjUyNDggMCAwIDEgNzczLjgwMDQ3OCAxMDI0eiBtMzcuNjgzMi0zMjcuNjhhMTguODQxNiAxOC44NDE2IDAgMCAxLTE4Ljg0MTYtMTguODQxNlY1Ni4xMTUyYTE4Ljg0MTYgMTguODQxNiAwIDAgMC0xOC44NDE2LTE4LjQzMkgyNDguNjkzMjc4YTE4LjQzMiAxOC40MzIgMCAwIDAtMTguNDMyIDE4LjQzMnYxMzMuOTM5MmExOS4yNTEyIDE5LjI1MTIgMCAwIDEtMTguODQxNiAxOC44NDE2IDE4Ljg0MTYgMTguODQxNiAwIDAgMS0xOC44NDE2LTE4Ljg0MTZWNTYuMTE1MkE1Ni41MjQ4IDU2LjUyNDggMCAwIDEgMjQ4LjY5MzI3OCAwaDUyNS4xMDcyYTU2LjkzNDQgNTYuOTM0NCAwIDAgMSA1Ni41MjQ4IDU2LjExNTJ2NjIwLjEzNDRhMTkuMjUxMiAxOS4yNTEyIDAgMCAxLTE4Ljg0MTYgMjAuMDcwNHpNMjExLjQxOTY3OCAyODMuODUyOGExOC44NDE2IDE4Ljg0MTYgMCAxIDEgMC0zOC4wOTI4IDE4Ljg0MTYgMTguODQxNiAwIDAgMSAxOC44NDE2IDE4LjQzMiAxOS4yNTEyIDE5LjI1MTIgMCAwIDEtMTguODQxNiAxOS42NjA4eiIvPjxwYXRoIGZpbGw9IiM1MTUxNTEiIGQ9Ik01NDguOTMwMDc4IDExMi42NEg0NzMuOTczMjc4YTE4Ljg0MTYgMTguODQxNiAwIDAgMSAwLTM3LjY4MzJINTQ4LjkzMDA3OGExOC44NDE2IDE4Ljg0MTYgMCAxIDEgMCAzNy42ODMyek01MTEuMjQ2ODc4IDk0Ni45OTUyYTU2LjExNTIgNTYuMTE1MiAwIDAgMS01Ni4xMTUyLTU2LjExNTIgNTIuNDI4OCA1Mi40Mjg4IDAgMCAxIDMuNjg2NC0xOS42NjA4IDE4Ljg0MTYgMTguODQxNiAwIDAgMSAyMy43NTY4LTExLjA1OTIgMTkuMjUxMiAxOS4yNTEyIDAgMCAxIDExLjQ2ODggMjQuMTY2NCAxOC44NDE2IDE4Ljg0MTYgMCAwIDAgMzUuMjI1NiAxMy4xMDcyIDE4Ljg0MTYgMTguODQxNiAwIDAgMC0xMS4wNTkyLTI0LjE2NjQgMTguODQxNiAxOC44NDE2IDAgMSAxIDEwLjY0OTYtMzYuMDQ0OCA1Ni4xMTUyIDU2LjExNTIgMCAwIDEtMTUuOTc0NCAxMTAuMTgyNHpNNzczLjgwMDQ3OCAxODcuNTk2OEgyNDguNjkzMjc4YTE4Ljg0MTYgMTguODQxNiAwIDAgMSAwLTM3LjY4MzJoNTI1LjEwNzJhMTguODQxNiAxOC44NDE2IDAgMCAxIDAgMzcuNjgzMnpNNzY2LjAxODA3OCA3OTcuMDgxNkgyNTguMTE0MDc4YTE4Ljg0MTYgMTguODQxNiAwIDEgMSAwLTM3LjY4MzJINzY2LjAxODA3OGExOC44NDE2IDE4Ljg0MTYgMCAwIDEgMCAzNy42ODMyeiIvPjwvc3ZnPg==;rounded=1;fillColor=#F2CC8F;strokeColor=#E07A5F;fontColor=#393C56;" vertex="1" parent="1">
          <mxGeometry x="-25" y="265" width="30" height="30" as="geometry" />
        </mxCell>
        <mxCell id="Cfy5rwxD8HpLnG3nBIZo-78" value="用户终端" style="shape=image;verticalLabelPosition=bottom;verticalAlign=top;aspect=fixed;imageAspect=0;image=data:image/svg+xml,PHN2ZyB4bWxuczp4bGluaz0iaHR0cDovL3d3dy53My5vcmcvMTk5OS94bGluayIgeG1sbnM9Imh0dHA6Ly93d3cudzMub3JnLzIwMDAvc3ZnIiBoZWlnaHQ9IjEyOCIgd2lkdGg9IjEyOCIgdmVyc2lvbj0iMS4xIiB2aWV3Qm94PSIwIDAgMTAyNCAxMDI0IiBjbGFzcz0iaWNvbiI+PHBhdGggZmlsbD0iIzUxNTE1MSIgZD0iTTc3My44MDA0NzggMTAyNEgyNDguNjkzMjc4QTU2LjExNTIgNTYuMTE1MiAwIDAgMSAxOTIuNTc4MDc4IDk2NS44MzY4VjMzOS45NjhhMTguNDMyIDE4LjQzMiAwIDAgMSAxOC44NDE2LTE4LjQzMiAxOC44NDE2IDE4Ljg0MTYgMCAwIDEgMTguODQxNiAxOC40MzJ2NjI1Ljg2ODhhMTguODQxNiAxOC44NDE2IDAgMCAwIDE4LjQzMiAxOC44NDE2aDUyNS4xMDcyYTE5LjI1MTIgMTkuMjUxMiAwIDAgMCAxOC44NDE2LTE4Ljg0MTZ2LTIxNC42MzA0YTE4LjQzMiAxOC40MzIgMCAwIDEgMTguODQxNi0xOC40MzIgMTguODQxNiAxOC44NDE2IDAgMCAxIDE4Ljg0MTYgMTguODQxNnYyMTQuMjIwOEE1Ni41MjQ4IDU2LjUyNDggMCAwIDEgNzczLjgwMDQ3OCAxMDI0eiBtMzcuNjgzMi0zMjcuNjhhMTguODQxNiAxOC44NDE2IDAgMCAxLTE4Ljg0MTYtMTguODQxNlY1Ni4xMTUyYTE4Ljg0MTYgMTguODQxNiAwIDAgMC0xOC44NDE2LTE4LjQzMkgyNDguNjkzMjc4YTE4LjQzMiAxOC40MzIgMCAwIDAtMTguNDMyIDE4LjQzMnYxMzMuOTM5MmExOS4yNTEyIDE5LjI1MTIgMCAwIDEtMTguODQxNiAxOC44NDE2IDE4Ljg0MTYgMTguODQxNiAwIDAgMS0xOC44NDE2LTE4Ljg0MTZWNTYuMTE1MkE1Ni41MjQ4IDU2LjUyNDggMCAwIDEgMjQ4LjY5MzI3OCAwaDUyNS4xMDcyYTU2LjkzNDQgNTYuOTM0NCAwIDAgMSA1Ni41MjQ4IDU2LjExNTJ2NjIwLjEzNDRhMTkuMjUxMiAxOS4yNTEyIDAgMCAxLTE4Ljg0MTYgMjAuMDcwNHpNMjExLjQxOTY3OCAyODMuODUyOGExOC44NDE2IDE4Ljg0MTYgMCAxIDEgMC0zOC4wOTI4IDE4Ljg0MTYgMTguODQxNiAwIDAgMSAxOC44NDE2IDE4LjQzMiAxOS4yNTEyIDE5LjI1MTIgMCAwIDEtMTguODQxNiAxOS42NjA4eiIvPjxwYXRoIGZpbGw9IiM1MTUxNTEiIGQ9Ik01NDguOTMwMDc4IDExMi42NEg0NzMuOTczMjc4YTE4Ljg0MTYgMTguODQxNiAwIDAgMSAwLTM3LjY4MzJINTQ4LjkzMDA3OGExOC44NDE2IDE4Ljg0MTYgMCAxIDEgMCAzNy42ODMyek01MTEuMjQ2ODc4IDk0Ni45OTUyYTU2LjExNTIgNTYuMTE1MiAwIDAgMS01Ni4xMTUyLTU2LjExNTIgNTIuNDI4OCA1Mi40Mjg4IDAgMCAxIDMuNjg2NC0xOS42NjA4IDE4Ljg0MTYgMTguODQxNiAwIDAgMSAyMy43NTY4LTExLjA1OTIgMTkuMjUxMiAxOS4yNTEyIDAgMCAxIDExLjQ2ODggMjQuMTY2NCAxOC44NDE2IDE4Ljg0MTYgMCAwIDAgMzUuMjI1NiAxMy4xMDcyIDE4Ljg0MTYgMTguODQxNiAwIDAgMC0xMS4wNTkyLTI0LjE2NjQgMTguODQxNiAxOC44NDE2IDAgMSAxIDEwLjY0OTYtMzYuMDQ0OCA1Ni4xMTUyIDU2LjExNTIgMCAwIDEtMTUuOTc0NCAxMTAuMTgyNHpNNzczLjgwMDQ3OCAxODcuNTk2OEgyNDguNjkzMjc4YTE4Ljg0MTYgMTguODQxNiAwIDAgMSAwLTM3LjY4MzJoNTI1LjEwNzJhMTguODQxNiAxOC44NDE2IDAgMCAxIDAgMzcuNjgzMnpNNzY2LjAxODA3OCA3OTcuMDgxNkgyNTguMTE0MDc4YTE4Ljg0MTYgMTguODQxNiAwIDEgMSAwLTM3LjY4MzJINzY2LjAxODA3OGExOC44NDE2IDE4Ljg0MTYgMCAwIDEgMCAzNy42ODMyeiIvPjwvc3ZnPg==;rounded=1;fillColor=#F2CC8F;strokeColor=#E07A5F;fontColor=#393C56;" vertex="1" parent="1">
          <mxGeometry x="-175" y="480" width="30" height="30" as="geometry" />
        </mxCell>
        <mxCell id="Cfy5rwxD8HpLnG3nBIZo-79" value="用户终端" style="shape=image;verticalLabelPosition=bottom;verticalAlign=top;aspect=fixed;imageAspect=0;image=data:image/svg+xml,PHN2ZyB4bWxuczp4bGluaz0iaHR0cDovL3d3dy53My5vcmcvMTk5OS94bGluayIgeG1sbnM9Imh0dHA6Ly93d3cudzMub3JnLzIwMDAvc3ZnIiBoZWlnaHQ9IjEyOCIgd2lkdGg9IjEyOCIgdmVyc2lvbj0iMS4xIiB2aWV3Qm94PSIwIDAgMTAyNCAxMDI0IiBjbGFzcz0iaWNvbiI+PHBhdGggZmlsbD0iIzUxNTE1MSIgZD0iTTc3My44MDA0NzggMTAyNEgyNDguNjkzMjc4QTU2LjExNTIgNTYuMTE1MiAwIDAgMSAxOTIuNTc4MDc4IDk2NS44MzY4VjMzOS45NjhhMTguNDMyIDE4LjQzMiAwIDAgMSAxOC44NDE2LTE4LjQzMiAxOC44NDE2IDE4Ljg0MTYgMCAwIDEgMTguODQxNiAxOC40MzJ2NjI1Ljg2ODhhMTguODQxNiAxOC44NDE2IDAgMCAwIDE4LjQzMiAxOC44NDE2aDUyNS4xMDcyYTE5LjI1MTIgMTkuMjUxMiAwIDAgMCAxOC44NDE2LTE4Ljg0MTZ2LTIxNC42MzA0YTE4LjQzMiAxOC40MzIgMCAwIDEgMTguODQxNi0xOC40MzIgMTguODQxNiAxOC44NDE2IDAgMCAxIDE4Ljg0MTYgMTguODQxNnYyMTQuMjIwOEE1Ni41MjQ4IDU2LjUyNDggMCAwIDEgNzczLjgwMDQ3OCAxMDI0eiBtMzcuNjgzMi0zMjcuNjhhMTguODQxNiAxOC44NDE2IDAgMCAxLTE4Ljg0MTYtMTguODQxNlY1Ni4xMTUyYTE4Ljg0MTYgMTguODQxNiAwIDAgMC0xOC44NDE2LTE4LjQzMkgyNDguNjkzMjc4YTE4LjQzMiAxOC40MzIgMCAwIDAtMTguNDMyIDE4LjQzMnYxMzMuOTM5MmExOS4yNTEyIDE5LjI1MTIgMCAwIDEtMTguODQxNiAxOC44NDE2IDE4Ljg0MTYgMTguODQxNiAwIDAgMS0xOC44NDE2LTE4Ljg0MTZWNTYuMTE1MkE1Ni41MjQ4IDU2LjUyNDggMCAwIDEgMjQ4LjY5MzI3OCAwaDUyNS4xMDcyYTU2LjkzNDQgNTYuOTM0NCAwIDAgMSA1Ni41MjQ4IDU2LjExNTJ2NjIwLjEzNDRhMTkuMjUxMiAxOS4yNTEyIDAgMCAxLTE4Ljg0MTYgMjAuMDcwNHpNMjExLjQxOTY3OCAyODMuODUyOGExOC44NDE2IDE4Ljg0MTYgMCAxIDEgMC0zOC4wOTI4IDE4Ljg0MTYgMTguODQxNiAwIDAgMSAxOC44NDE2IDE4LjQzMiAxOS4yNTEyIDE5LjI1MTIgMCAwIDEtMTguODQxNiAxOS42NjA4eiIvPjxwYXRoIGZpbGw9IiM1MTUxNTEiIGQ9Ik01NDguOTMwMDc4IDExMi42NEg0NzMuOTczMjc4YTE4Ljg0MTYgMTguODQxNiAwIDAgMSAwLTM3LjY4MzJINTQ4LjkzMDA3OGExOC44NDE2IDE4Ljg0MTYgMCAxIDEgMCAzNy42ODMyek01MTEuMjQ2ODc4IDk0Ni45OTUyYTU2LjExNTIgNTYuMTE1MiAwIDAgMS01Ni4xMTUyLTU2LjExNTIgNTIuNDI4OCA1Mi40Mjg4IDAgMCAxIDMuNjg2NC0xOS42NjA4IDE4Ljg0MTYgMTguODQxNiAwIDAgMSAyMy43NTY4LTExLjA1OTIgMTkuMjUxMiAxOS4yNTEyIDAgMCAxIDExLjQ2ODggMjQuMTY2NCAxOC44NDE2IDE4Ljg0MTYgMCAwIDAgMzUuMjI1NiAxMy4xMDcyIDE4Ljg0MTYgMTguODQxNiAwIDAgMC0xMS4wNTkyLTI0LjE2NjQgMTguODQxNiAxOC44NDE2IDAgMSAxIDEwLjY0OTYtMzYuMDQ0OCA1Ni4xMTUyIDU2LjExNTIgMCAwIDEtMTUuOTc0NCAxMTAuMTgyNHpNNzczLjgwMDQ3OCAxODcuNTk2OEgyNDguNjkzMjc4YTE4Ljg0MTYgMTguODQxNiAwIDAgMSAwLTM3LjY4MzJoNTI1LjEwNzJhMTguODQxNiAxOC44NDE2IDAgMCAxIDAgMzcuNjgzMnpNNzY2LjAxODA3OCA3OTcuMDgxNkgyNTguMTE0MDc4YTE4Ljg0MTYgMTguODQxNiAwIDEgMSAwLTM3LjY4MzJINzY2LjAxODA3OGExOC44NDE2IDE4Ljg0MTYgMCAwIDEgMCAzNy42ODMyeiIvPjwvc3ZnPg==;rounded=1;fillColor=#F2CC8F;strokeColor=#E07A5F;fontColor=#393C56;" vertex="1" parent="1">
          <mxGeometry x="-205" y="610" width="30" height="30" as="geometry" />
        </mxCell>
        <mxCell id="Cfy5rwxD8HpLnG3nBIZo-80" value="用户终端" style="shape=image;verticalLabelPosition=bottom;verticalAlign=top;aspect=fixed;imageAspect=0;image=data:image/svg+xml,PHN2ZyB4bWxuczp4bGluaz0iaHR0cDovL3d3dy53My5vcmcvMTk5OS94bGluayIgeG1sbnM9Imh0dHA6Ly93d3cudzMub3JnLzIwMDAvc3ZnIiBoZWlnaHQ9IjEyOCIgd2lkdGg9IjEyOCIgdmVyc2lvbj0iMS4xIiB2aWV3Qm94PSIwIDAgMTAyNCAxMDI0IiBjbGFzcz0iaWNvbiI+PHBhdGggZmlsbD0iIzUxNTE1MSIgZD0iTTc3My44MDA0NzggMTAyNEgyNDguNjkzMjc4QTU2LjExNTIgNTYuMTE1MiAwIDAgMSAxOTIuNTc4MDc4IDk2NS44MzY4VjMzOS45NjhhMTguNDMyIDE4LjQzMiAwIDAgMSAxOC44NDE2LTE4LjQzMiAxOC44NDE2IDE4Ljg0MTYgMCAwIDEgMTguODQxNiAxOC40MzJ2NjI1Ljg2ODhhMTguODQxNiAxOC44NDE2IDAgMCAwIDE4LjQzMiAxOC44NDE2aDUyNS4xMDcyYTE5LjI1MTIgMTkuMjUxMiAwIDAgMCAxOC44NDE2LTE4Ljg0MTZ2LTIxNC42MzA0YTE4LjQzMiAxOC40MzIgMCAwIDEgMTguODQxNi0xOC40MzIgMTguODQxNiAxOC44NDE2IDAgMCAxIDE4Ljg0MTYgMTguODQxNnYyMTQuMjIwOEE1Ni41MjQ4IDU2LjUyNDggMCAwIDEgNzczLjgwMDQ3OCAxMDI0eiBtMzcuNjgzMi0zMjcuNjhhMTguODQxNiAxOC44NDE2IDAgMCAxLTE4Ljg0MTYtMTguODQxNlY1Ni4xMTUyYTE4Ljg0MTYgMTguODQxNiAwIDAgMC0xOC44NDE2LTE4LjQzMkgyNDguNjkzMjc4YTE4LjQzMiAxOC40MzIgMCAwIDAtMTguNDMyIDE4LjQzMnYxMzMuOTM5MmExOS4yNTEyIDE5LjI1MTIgMCAwIDEtMTguODQxNiAxOC44NDE2IDE4Ljg0MTYgMTguODQxNiAwIDAgMS0xOC44NDE2LTE4Ljg0MTZWNTYuMTE1MkE1Ni41MjQ4IDU2LjUyNDggMCAwIDEgMjQ4LjY5MzI3OCAwaDUyNS4xMDcyYTU2LjkzNDQgNTYuOTM0NCAwIDAgMSA1Ni41MjQ4IDU2LjExNTJ2NjIwLjEzNDRhMTkuMjUxMiAxOS4yNTEyIDAgMCAxLTE4Ljg0MTYgMjAuMDcwNHpNMjExLjQxOTY3OCAyODMuODUyOGExOC44NDE2IDE4Ljg0MTYgMCAxIDEgMC0zOC4wOTI4IDE4Ljg0MTYgMTguODQxNiAwIDAgMSAxOC44NDE2IDE4LjQzMiAxOS4yNTEyIDE5LjI1MTIgMCAwIDEtMTguODQxNiAxOS42NjA4eiIvPjxwYXRoIGZpbGw9IiM1MTUxNTEiIGQ9Ik01NDguOTMwMDc4IDExMi42NEg0NzMuOTczMjc4YTE4Ljg0MTYgMTguODQxNiAwIDAgMSAwLTM3LjY4MzJINTQ4LjkzMDA3OGExOC44NDE2IDE4Ljg0MTYgMCAxIDEgMCAzNy42ODMyek01MTEuMjQ2ODc4IDk0Ni45OTUyYTU2LjExNTIgNTYuMTE1MiAwIDAgMS01Ni4xMTUyLTU2LjExNTIgNTIuNDI4OCA1Mi40Mjg4IDAgMCAxIDMuNjg2NC0xOS42NjA4IDE4Ljg0MTYgMTguODQxNiAwIDAgMSAyMy43NTY4LTExLjA1OTIgMTkuMjUxMiAxOS4yNTEyIDAgMCAxIDExLjQ2ODggMjQuMTY2NCAxOC44NDE2IDE4Ljg0MTYgMCAwIDAgMzUuMjI1NiAxMy4xMDcyIDE4Ljg0MTYgMTguODQxNiAwIDAgMC0xMS4wNTkyLTI0LjE2NjQgMTguODQxNiAxOC44NDE2IDAgMSAxIDEwLjY0OTYtMzYuMDQ0OCA1Ni4xMTUyIDU2LjExNTIgMCAwIDEtMTUuOTc0NCAxMTAuMTgyNHpNNzczLjgwMDQ3OCAxODcuNTk2OEgyNDguNjkzMjc4YTE4Ljg0MTYgMTguODQxNiAwIDAgMSAwLTM3LjY4MzJoNTI1LjEwNzJhMTguODQxNiAxOC44NDE2IDAgMCAxIDAgMzcuNjgzMnpNNzY2LjAxODA3OCA3OTcuMDgxNkgyNTguMTE0MDc4YTE4Ljg0MTYgMTguODQxNiAwIDEgMSAwLTM3LjY4MzJINzY2LjAxODA3OGExOC44NDE2IDE4Ljg0MTYgMCAwIDEgMCAzNy42ODMyeiIvPjwvc3ZnPg==;rounded=1;fillColor=#F2CC8F;strokeColor=#E07A5F;fontColor=#393C56;" vertex="1" parent="1">
          <mxGeometry x="45" y="570" width="30" height="30" as="geometry" />
        </mxCell>
        <mxCell id="Cfy5rwxD8HpLnG3nBIZo-88" value="用户终端" style="shape=image;verticalLabelPosition=bottom;verticalAlign=top;aspect=fixed;imageAspect=0;image=data:image/svg+xml,PHN2ZyB4bWxuczp4bGluaz0iaHR0cDovL3d3dy53My5vcmcvMTk5OS94bGluayIgeG1sbnM9Imh0dHA6Ly93d3cudzMub3JnLzIwMDAvc3ZnIiBoZWlnaHQ9IjEyOCIgd2lkdGg9IjEyOCIgdmVyc2lvbj0iMS4xIiB2aWV3Qm94PSIwIDAgMTAyNCAxMDI0IiBjbGFzcz0iaWNvbiI+PHBhdGggZmlsbD0iIzUxNTE1MSIgZD0iTTc3My44MDA0NzggMTAyNEgyNDguNjkzMjc4QTU2LjExNTIgNTYuMTE1MiAwIDAgMSAxOTIuNTc4MDc4IDk2NS44MzY4VjMzOS45NjhhMTguNDMyIDE4LjQzMiAwIDAgMSAxOC44NDE2LTE4LjQzMiAxOC44NDE2IDE4Ljg0MTYgMCAwIDEgMTguODQxNiAxOC40MzJ2NjI1Ljg2ODhhMTguODQxNiAxOC44NDE2IDAgMCAwIDE4LjQzMiAxOC44NDE2aDUyNS4xMDcyYTE5LjI1MTIgMTkuMjUxMiAwIDAgMCAxOC44NDE2LTE4Ljg0MTZ2LTIxNC42MzA0YTE4LjQzMiAxOC40MzIgMCAwIDEgMTguODQxNi0xOC40MzIgMTguODQxNiAxOC44NDE2IDAgMCAxIDE4Ljg0MTYgMTguODQxNnYyMTQuMjIwOEE1Ni41MjQ4IDU2LjUyNDggMCAwIDEgNzczLjgwMDQ3OCAxMDI0eiBtMzcuNjgzMi0zMjcuNjhhMTguODQxNiAxOC44NDE2IDAgMCAxLTE4Ljg0MTYtMTguODQxNlY1Ni4xMTUyYTE4Ljg0MTYgMTguODQxNiAwIDAgMC0xOC44NDE2LTE4LjQzMkgyNDguNjkzMjc4YTE4LjQzMiAxOC40MzIgMCAwIDAtMTguNDMyIDE4LjQzMnYxMzMuOTM5MmExOS4yNTEyIDE5LjI1MTIgMCAwIDEtMTguODQxNiAxOC44NDE2IDE4Ljg0MTYgMTguODQxNiAwIDAgMS0xOC44NDE2LTE4Ljg0MTZWNTYuMTE1MkE1Ni41MjQ4IDU2LjUyNDggMCAwIDEgMjQ4LjY5MzI3OCAwaDUyNS4xMDcyYTU2LjkzNDQgNTYuOTM0NCAwIDAgMSA1Ni41MjQ4IDU2LjExNTJ2NjIwLjEzNDRhMTkuMjUxMiAxOS4yNTEyIDAgMCAxLTE4Ljg0MTYgMjAuMDcwNHpNMjExLjQxOTY3OCAyODMuODUyOGExOC44NDE2IDE4Ljg0MTYgMCAxIDEgMC0zOC4wOTI4IDE4Ljg0MTYgMTguODQxNiAwIDAgMSAxOC44NDE2IDE4LjQzMiAxOS4yNTEyIDE5LjI1MTIgMCAwIDEtMTguODQxNiAxOS42NjA4eiIvPjxwYXRoIGZpbGw9IiM1MTUxNTEiIGQ9Ik01NDguOTMwMDc4IDExMi42NEg0NzMuOTczMjc4YTE4Ljg0MTYgMTguODQxNiAwIDAgMSAwLTM3LjY4MzJINTQ4LjkzMDA3OGExOC44NDE2IDE4Ljg0MTYgMCAxIDEgMCAzNy42ODMyek01MTEuMjQ2ODc4IDk0Ni45OTUyYTU2LjExNTIgNTYuMTE1MiAwIDAgMS01Ni4xMTUyLTU2LjExNTIgNTIuNDI4OCA1Mi40Mjg4IDAgMCAxIDMuNjg2NC0xOS42NjA4IDE4Ljg0MTYgMTguODQxNiAwIDAgMSAyMy43NTY4LTExLjA1OTIgMTkuMjUxMiAxOS4yNTEyIDAgMCAxIDExLjQ2ODggMjQuMTY2NCAxOC44NDE2IDE4Ljg0MTYgMCAwIDAgMzUuMjI1NiAxMy4xMDcyIDE4Ljg0MTYgMTguODQxNiAwIDAgMC0xMS4wNTkyLTI0LjE2NjQgMTguODQxNiAxOC44NDE2IDAgMSAxIDEwLjY0OTYtMzYuMDQ0OCA1Ni4xMTUyIDU2LjExNTIgMCAwIDEtMTUuOTc0NCAxMTAuMTgyNHpNNzczLjgwMDQ3OCAxODcuNTk2OEgyNDguNjkzMjc4YTE4Ljg0MTYgMTguODQxNiAwIDAgMSAwLTM3LjY4MzJoNTI1LjEwNzJhMTguODQxNiAxOC44NDE2IDAgMCAxIDAgMzcuNjgzMnpNNzY2LjAxODA3OCA3OTcuMDgxNkgyNTguMTE0MDc4YTE4Ljg0MTYgMTguODQxNiAwIDEgMSAwLTM3LjY4MzJINzY2LjAxODA3OGExOC44NDE2IDE4Ljg0MTYgMCAwIDEgMCAzNy42ODMyeiIvPjwvc3ZnPg==;rounded=1;fillColor=#F2CC8F;strokeColor=#E07A5F;fontColor=#393C56;" vertex="1" parent="1">
          <mxGeometry x="145" y="290" width="30" height="30" as="geometry" />
        </mxCell>
        <mxCell id="Cfy5rwxD8HpLnG3nBIZo-89" value="用户终端" style="shape=image;verticalLabelPosition=bottom;verticalAlign=top;aspect=fixed;imageAspect=0;image=data:image/svg+xml,PHN2ZyB4bWxuczp4bGluaz0iaHR0cDovL3d3dy53My5vcmcvMTk5OS94bGluayIgeG1sbnM9Imh0dHA6Ly93d3cudzMub3JnLzIwMDAvc3ZnIiBoZWlnaHQ9IjEyOCIgd2lkdGg9IjEyOCIgdmVyc2lvbj0iMS4xIiB2aWV3Qm94PSIwIDAgMTAyNCAxMDI0IiBjbGFzcz0iaWNvbiI+PHBhdGggZmlsbD0iIzUxNTE1MSIgZD0iTTc3My44MDA0NzggMTAyNEgyNDguNjkzMjc4QTU2LjExNTIgNTYuMTE1MiAwIDAgMSAxOTIuNTc4MDc4IDk2NS44MzY4VjMzOS45NjhhMTguNDMyIDE4LjQzMiAwIDAgMSAxOC44NDE2LTE4LjQzMiAxOC44NDE2IDE4Ljg0MTYgMCAwIDEgMTguODQxNiAxOC40MzJ2NjI1Ljg2ODhhMTguODQxNiAxOC44NDE2IDAgMCAwIDE4LjQzMiAxOC44NDE2aDUyNS4xMDcyYTE5LjI1MTIgMTkuMjUxMiAwIDAgMCAxOC44NDE2LTE4Ljg0MTZ2LTIxNC42MzA0YTE4LjQzMiAxOC40MzIgMCAwIDEgMTguODQxNi0xOC40MzIgMTguODQxNiAxOC44NDE2IDAgMCAxIDE4Ljg0MTYgMTguODQxNnYyMTQuMjIwOEE1Ni41MjQ4IDU2LjUyNDggMCAwIDEgNzczLjgwMDQ3OCAxMDI0eiBtMzcuNjgzMi0zMjcuNjhhMTguODQxNiAxOC44NDE2IDAgMCAxLTE4Ljg0MTYtMTguODQxNlY1Ni4xMTUyYTE4Ljg0MTYgMTguODQxNiAwIDAgMC0xOC44NDE2LTE4LjQzMkgyNDguNjkzMjc4YTE4LjQzMiAxOC40MzIgMCAwIDAtMTguNDMyIDE4LjQzMnYxMzMuOTM5MmExOS4yNTEyIDE5LjI1MTIgMCAwIDEtMTguODQxNiAxOC44NDE2IDE4Ljg0MTYgMTguODQxNiAwIDAgMS0xOC44NDE2LTE4Ljg0MTZWNTYuMTE1MkE1Ni41MjQ4IDU2LjUyNDggMCAwIDEgMjQ4LjY5MzI3OCAwaDUyNS4xMDcyYTU2LjkzNDQgNTYuOTM0NCAwIDAgMSA1Ni41MjQ4IDU2LjExNTJ2NjIwLjEzNDRhMTkuMjUxMiAxOS4yNTEyIDAgMCAxLTE4Ljg0MTYgMjAuMDcwNHpNMjExLjQxOTY3OCAyODMuODUyOGExOC44NDE2IDE4Ljg0MTYgMCAxIDEgMC0zOC4wOTI4IDE4Ljg0MTYgMTguODQxNiAwIDAgMSAxOC44NDE2IDE4LjQzMiAxOS4yNTEyIDE5LjI1MTIgMCAwIDEtMTguODQxNiAxOS42NjA4eiIvPjxwYXRoIGZpbGw9IiM1MTUxNTEiIGQ9Ik01NDguOTMwMDc4IDExMi42NEg0NzMuOTczMjc4YTE4Ljg0MTYgMTguODQxNiAwIDAgMSAwLTM3LjY4MzJINTQ4LjkzMDA3OGExOC44NDE2IDE4Ljg0MTYgMCAxIDEgMCAzNy42ODMyek01MTEuMjQ2ODc4IDk0Ni45OTUyYTU2LjExNTIgNTYuMTE1MiAwIDAgMS01Ni4xMTUyLTU2LjExNTIgNTIuNDI4OCA1Mi40Mjg4IDAgMCAxIDMuNjg2NC0xOS42NjA4IDE4Ljg0MTYgMTguODQxNiAwIDAgMSAyMy43NTY4LTExLjA1OTIgMTkuMjUxMiAxOS4yNTEyIDAgMCAxIDExLjQ2ODggMjQuMTY2NCAxOC44NDE2IDE4Ljg0MTYgMCAwIDAgMzUuMjI1NiAxMy4xMDcyIDE4Ljg0MTYgMTguODQxNiAwIDAgMC0xMS4wNTkyLTI0LjE2NjQgMTguODQxNiAxOC44NDE2IDAgMSAxIDEwLjY0OTYtMzYuMDQ0OCA1Ni4xMTUyIDU2LjExNTIgMCAwIDEtMTUuOTc0NCAxMTAuMTgyNHpNNzczLjgwMDQ3OCAxODcuNTk2OEgyNDguNjkzMjc4YTE4Ljg0MTYgMTguODQxNiAwIDAgMSAwLTM3LjY4MzJoNTI1LjEwNzJhMTguODQxNiAxOC44NDE2IDAgMCAxIDAgMzcuNjgzMnpNNzY2LjAxODA3OCA3OTcuMDgxNkgyNTguMTE0MDc4YTE4Ljg0MTYgMTguODQxNiAwIDEgMSAwLTM3LjY4MzJINzY2LjAxODA3OGExOC44NDE2IDE4Ljg0MTYgMCAwIDEgMCAzNy42ODMyeiIvPjwvc3ZnPg==;rounded=1;fillColor=#F2CC8F;strokeColor=#E07A5F;fontColor=#393C56;" vertex="1" parent="1">
          <mxGeometry x="198.5" y="274" width="30" height="30" as="geometry" />
        </mxCell>
        <mxCell id="Cfy5rwxD8HpLnG3nBIZo-101" value="" style="edgeStyle=orthogonalEdgeStyle;rounded=0;orthogonalLoop=1;jettySize=auto;html=1;endArrow=none;endFill=0;strokeColor=#E07A5F;fontColor=#393C56;labelBackgroundColor=#F4F1DE;" edge="1" parent="1" source="Cfy5rwxD8HpLnG3nBIZo-100" target="Cfy5rwxD8HpLnG3nBIZo-47">
          <mxGeometry relative="1" as="geometry" />
        </mxCell>
        <mxCell id="Cfy5rwxD8HpLnG3nBIZo-100" value="无线基站1" style="shape=image;verticalLabelPosition=bottom;verticalAlign=top;aspect=fixed;imageAspect=0;image=data:image/svg+xml,PHN2ZyB4bWxuczp4bGluaz0iaHR0cDovL3d3dy53My5vcmcvMTk5OS94bGluayIgeG1sbnM9Imh0dHA6Ly93d3cudzMub3JnLzIwMDAvc3ZnIiBoZWlnaHQ9IjEyOCIgd2lkdGg9IjEyOCIgdmVyc2lvbj0iMS4xIiB2aWV3Qm94PSIwIDAgMTAyNCAxMDI0IiBjbGFzcz0iaWNvbiI+PHBhdGggZD0iTTYxNi41IDE1MS4zbC0yOC4zIDI4LjNjMTkuNyAxOS42IDMxLjggNDYuNiAzMS44IDc2LjUgMCAyOS44LTEyLjIgNTYuOS0zMS44IDc2LjVsMjguMyAyOC4zYzI2LjgtMjcgNDMuNS02NCA0My41LTEwNC45cy0xNi43LTc3LjktNDMuNS0xMDQuN3pNNDM1LjggMTc5LjVsLTI4LjMtMjguM0MzODAuNyAxNzguMSAzNjQgMjE1LjEgMzY0IDI1NnMxNi43IDc3LjkgNDMuNSAxMDQuN2wyOC4zLTI4LjNDNDE2LjIgMzEyLjkgNDA0IDI4NS44IDQwNCAyNTZjMC0yOS45IDEyLjItNTYuOSAzMS44LTc2LjV6TTM0Ni42IDEzNC4zTDMxOC4zIDEwNmMtMzguNSAzOC40LTYyLjMgOTEuNS02Mi4zIDE1MHMyMy44IDExMS42IDYyLjMgMTUwbDI4LjMtMjguM0MzMTUuMyAzNDYuNiAyOTYgMzAzLjUgMjk2IDI1NnMxOS4zLTkwLjYgNTAuNi0xMjEuN3pNNzA1LjcgMTA2bC0yOC4zIDI4LjNDNzA4LjcgMTY1LjQgNzI4IDIwOC41IDcyOCAyNTZzLTE5LjMgOTAuNi01MC42IDEyMS43bDI4LjMgMjguM2MzOC41LTM4LjQgNjIuMy05MS41IDYyLjMtMTUwcy0yMy44LTExMS42LTYyLjMtMTUwek04MTUuMiA2MC44bC0wLjEtMC4xTDc4Ni43IDg5YzAuMSAwIDAuMSAwLjEgMC4yIDAuMUM4MzEuNSAxMzMuNyA4NTYgMTkzIDg1NiAyNTZzLTI0LjUgMTIyLjMtNjkuMSAxNjYuOWMwIDAtMC4xIDAuMS0wLjIgMC4xbDI4LjMgMjguMyAwLjEtMC4xQzg2Ny4zIDM5OSA4OTYgMzI5LjcgODk2IDI1NnMtMjguNy0xNDMtODAuOC0xOTUuMnpNMjM3LjMgODlMMjA5IDYwLjdsLTAuMSAwLjFDMTU2LjcgMTEzIDEyOCAxODIuMyAxMjggMjU2czI4LjcgMTQzIDgwLjggMTk1LjJsMC4xIDAuMSAyOC4zLTI4LjNjLTAuMSAwLTAuMS0wLjEtMC4yLTAuMS00NC41LTQ0LjYtNjktMTAzLjktNjktMTY2LjlzMjQuNS0xMjIuMyA2OS4xLTE2Ni45YzAuMSAwIDAuMS0wLjEgMC4yLTAuMXpNNTExLjcxMiAyNTYuMDAybDAuMjgzLTAuMjgzIDAuMjgzIDAuMjgzLTAuMjgzIDAuMjgzeiIvPjxwYXRoIGQ9Ik01MTEuNzE5IDI1Ni4wMjFsMC4yODItMC4yODIgMC4yODMgMC4yODItMC4yODMgMC4yODN6Ii8+PHBhdGggZD0iTTcwOC40IDYxNmwtMTQuMi0yNi4xLTcuNi0xMy45LTExLjYtMjEuMkw1MTIgMjU2IDMzNy41IDU3NmwtMjEuOCA0MEwxMjggOTYwaDc0bDMzLjgtNjQgMjguOS01M2g0OTQuNmwyOC45IDUzIDMzLjggNjRoNzRMNzA4LjQgNjE2ek01MTIgMzg5LjZMNjEzLjcgNTc2SDQxMC4zTDUxMiAzODkuNnpNMzg4LjUgNjE2SDU2OUwzMDUuNiA3NjguMSAzODguNSA2MTZ6IG0tNjMuNCAxODdsMzEzLjYtMTgxLjFMNzM3LjUgODAzSDMyNS4xeiIvPjwvc3ZnPg==;rounded=1;direction=east;fillColor=#F2CC8F;strokeColor=#E07A5F;fontColor=#393C56;" vertex="1" parent="1">
          <mxGeometry x="-315" y="360" width="60" height="60" as="geometry" />
        </mxCell>
        <mxCell id="Cfy5rwxD8HpLnG3nBIZo-108" value="用户终端" style="shape=image;verticalLabelPosition=bottom;verticalAlign=top;aspect=fixed;imageAspect=0;image=data:image/svg+xml,PHN2ZyB4bWxuczp4bGluaz0iaHR0cDovL3d3dy53My5vcmcvMTk5OS94bGluayIgeG1sbnM9Imh0dHA6Ly93d3cudzMub3JnLzIwMDAvc3ZnIiBoZWlnaHQ9IjEyOCIgd2lkdGg9IjEyOCIgdmVyc2lvbj0iMS4xIiB2aWV3Qm94PSIwIDAgMTAyNCAxMDI0IiBjbGFzcz0iaWNvbiI+PHBhdGggZmlsbD0iIzUxNTE1MSIgZD0iTTc3My44MDA0NzggMTAyNEgyNDguNjkzMjc4QTU2LjExNTIgNTYuMTE1MiAwIDAgMSAxOTIuNTc4MDc4IDk2NS44MzY4VjMzOS45NjhhMTguNDMyIDE4LjQzMiAwIDAgMSAxOC44NDE2LTE4LjQzMiAxOC44NDE2IDE4Ljg0MTYgMCAwIDEgMTguODQxNiAxOC40MzJ2NjI1Ljg2ODhhMTguODQxNiAxOC44NDE2IDAgMCAwIDE4LjQzMiAxOC44NDE2aDUyNS4xMDcyYTE5LjI1MTIgMTkuMjUxMiAwIDAgMCAxOC44NDE2LTE4Ljg0MTZ2LTIxNC42MzA0YTE4LjQzMiAxOC40MzIgMCAwIDEgMTguODQxNi0xOC40MzIgMTguODQxNiAxOC44NDE2IDAgMCAxIDE4Ljg0MTYgMTguODQxNnYyMTQuMjIwOEE1Ni41MjQ4IDU2LjUyNDggMCAwIDEgNzczLjgwMDQ3OCAxMDI0eiBtMzcuNjgzMi0zMjcuNjhhMTguODQxNiAxOC44NDE2IDAgMCAxLTE4Ljg0MTYtMTguODQxNlY1Ni4xMTUyYTE4Ljg0MTYgMTguODQxNiAwIDAgMC0xOC44NDE2LTE4LjQzMkgyNDguNjkzMjc4YTE4LjQzMiAxOC40MzIgMCAwIDAtMTguNDMyIDE4LjQzMnYxMzMuOTM5MmExOS4yNTEyIDE5LjI1MTIgMCAwIDEtMTguODQxNiAxOC44NDE2IDE4Ljg0MTYgMTguODQxNiAwIDAgMS0xOC44NDE2LTE4Ljg0MTZWNTYuMTE1MkE1Ni41MjQ4IDU2LjUyNDggMCAwIDEgMjQ4LjY5MzI3OCAwaDUyNS4xMDcyYTU2LjkzNDQgNTYuOTM0NCAwIDAgMSA1Ni41MjQ4IDU2LjExNTJ2NjIwLjEzNDRhMTkuMjUxMiAxOS4yNTEyIDAgMCAxLTE4Ljg0MTYgMjAuMDcwNHpNMjExLjQxOTY3OCAyODMuODUyOGExOC44NDE2IDE4Ljg0MTYgMCAxIDEgMC0zOC4wOTI4IDE4Ljg0MTYgMTguODQxNiAwIDAgMSAxOC44NDE2IDE4LjQzMiAxOS4yNTEyIDE5LjI1MTIgMCAwIDEtMTguODQxNiAxOS42NjA4eiIvPjxwYXRoIGZpbGw9IiM1MTUxNTEiIGQ9Ik01NDguOTMwMDc4IDExMi42NEg0NzMuOTczMjc4YTE4Ljg0MTYgMTguODQxNiAwIDAgMSAwLTM3LjY4MzJINTQ4LjkzMDA3OGExOC44NDE2IDE4Ljg0MTYgMCAxIDEgMCAzNy42ODMyek01MTEuMjQ2ODc4IDk0Ni45OTUyYTU2LjExNTIgNTYuMTE1MiAwIDAgMS01Ni4xMTUyLTU2LjExNTIgNTIuNDI4OCA1Mi40Mjg4IDAgMCAxIDMuNjg2NC0xOS42NjA4IDE4Ljg0MTYgMTguODQxNiAwIDAgMSAyMy43NTY4LTExLjA1OTIgMTkuMjUxMiAxOS4yNTEyIDAgMCAxIDExLjQ2ODggMjQuMTY2NCAxOC44NDE2IDE4Ljg0MTYgMCAwIDAgMzUuMjI1NiAxMy4xMDcyIDE4Ljg0MTYgMTguODQxNiAwIDAgMC0xMS4wNTkyLTI0LjE2NjQgMTguODQxNiAxOC44NDE2IDAgMSAxIDEwLjY0OTYtMzYuMDQ0OCA1Ni4xMTUyIDU2LjExNTIgMCAwIDEtMTUuOTc0NCAxMTAuMTgyNHpNNzczLjgwMDQ3OCAxODcuNTk2OEgyNDguNjkzMjc4YTE4Ljg0MTYgMTguODQxNiAwIDAgMSAwLTM3LjY4MzJoNTI1LjEwNzJhMTguODQxNiAxOC44NDE2IDAgMCAxIDAgMzcuNjgzMnpNNzY2LjAxODA3OCA3OTcuMDgxNkgyNTguMTE0MDc4YTE4Ljg0MTYgMTguODQxNiAwIDEgMSAwLTM3LjY4MzJINzY2LjAxODA3OGExOC44NDE2IDE4Ljg0MTYgMCAwIDEgMCAzNy42ODMyeiIvPjwvc3ZnPg==;rounded=1;fillColor=#F2CC8F;strokeColor=#E07A5F;fontColor=#393C56;" vertex="1" parent="1">
          <mxGeometry x="318.5" y="400" width="30" height="30" as="geometry" />
        </mxCell>
        <mxCell id="Cfy5rwxD8HpLnG3nBIZo-109" value="用户终端" style="shape=image;verticalLabelPosition=bottom;verticalAlign=top;aspect=fixed;imageAspect=0;image=data:image/svg+xml,PHN2ZyB4bWxuczp4bGluaz0iaHR0cDovL3d3dy53My5vcmcvMTk5OS94bGluayIgeG1sbnM9Imh0dHA6Ly93d3cudzMub3JnLzIwMDAvc3ZnIiBoZWlnaHQ9IjEyOCIgd2lkdGg9IjEyOCIgdmVyc2lvbj0iMS4xIiB2aWV3Qm94PSIwIDAgMTAyNCAxMDI0IiBjbGFzcz0iaWNvbiI+PHBhdGggZmlsbD0iIzUxNTE1MSIgZD0iTTc3My44MDA0NzggMTAyNEgyNDguNjkzMjc4QTU2LjExNTIgNTYuMTE1MiAwIDAgMSAxOTIuNTc4MDc4IDk2NS44MzY4VjMzOS45NjhhMTguNDMyIDE4LjQzMiAwIDAgMSAxOC44NDE2LTE4LjQzMiAxOC44NDE2IDE4Ljg0MTYgMCAwIDEgMTguODQxNiAxOC40MzJ2NjI1Ljg2ODhhMTguODQxNiAxOC44NDE2IDAgMCAwIDE4LjQzMiAxOC44NDE2aDUyNS4xMDcyYTE5LjI1MTIgMTkuMjUxMiAwIDAgMCAxOC44NDE2LTE4Ljg0MTZ2LTIxNC42MzA0YTE4LjQzMiAxOC40MzIgMCAwIDEgMTguODQxNi0xOC40MzIgMTguODQxNiAxOC44NDE2IDAgMCAxIDE4Ljg0MTYgMTguODQxNnYyMTQuMjIwOEE1Ni41MjQ4IDU2LjUyNDggMCAwIDEgNzczLjgwMDQ3OCAxMDI0eiBtMzcuNjgzMi0zMjcuNjhhMTguODQxNiAxOC44NDE2IDAgMCAxLTE4Ljg0MTYtMTguODQxNlY1Ni4xMTUyYTE4Ljg0MTYgMTguODQxNiAwIDAgMC0xOC44NDE2LTE4LjQzMkgyNDguNjkzMjc4YTE4LjQzMiAxOC40MzIgMCAwIDAtMTguNDMyIDE4LjQzMnYxMzMuOTM5MmExOS4yNTEyIDE5LjI1MTIgMCAwIDEtMTguODQxNiAxOC44NDE2IDE4Ljg0MTYgMTguODQxNiAwIDAgMS0xOC44NDE2LTE4Ljg0MTZWNTYuMTE1MkE1Ni41MjQ4IDU2LjUyNDggMCAwIDEgMjQ4LjY5MzI3OCAwaDUyNS4xMDcyYTU2LjkzNDQgNTYuOTM0NCAwIDAgMSA1Ni41MjQ4IDU2LjExNTJ2NjIwLjEzNDRhMTkuMjUxMiAxOS4yNTEyIDAgMCAxLTE4Ljg0MTYgMjAuMDcwNHpNMjExLjQxOTY3OCAyODMuODUyOGExOC44NDE2IDE4Ljg0MTYgMCAxIDEgMC0zOC4wOTI4IDE4Ljg0MTYgMTguODQxNiAwIDAgMSAxOC44NDE2IDE4LjQzMiAxOS4yNTEyIDE5LjI1MTIgMCAwIDEtMTguODQxNiAxOS42NjA4eiIvPjxwYXRoIGZpbGw9IiM1MTUxNTEiIGQ9Ik01NDguOTMwMDc4IDExMi42NEg0NzMuOTczMjc4YTE4Ljg0MTYgMTguODQxNiAwIDAgMSAwLTM3LjY4MzJINTQ4LjkzMDA3OGExOC44NDE2IDE4Ljg0MTYgMCAxIDEgMCAzNy42ODMyek01MTEuMjQ2ODc4IDk0Ni45OTUyYTU2LjExNTIgNTYuMTE1MiAwIDAgMS01Ni4xMTUyLTU2LjExNTIgNTIuNDI4OCA1Mi40Mjg4IDAgMCAxIDMuNjg2NC0xOS42NjA4IDE4Ljg0MTYgMTguODQxNiAwIDAgMSAyMy43NTY4LTExLjA1OTIgMTkuMjUxMiAxOS4yNTEyIDAgMCAxIDExLjQ2ODggMjQuMTY2NCAxOC44NDE2IDE4Ljg0MTYgMCAwIDAgMzUuMjI1NiAxMy4xMDcyIDE4Ljg0MTYgMTguODQxNiAwIDAgMC0xMS4wNTkyLTI0LjE2NjQgMTguODQxNiAxOC44NDE2IDAgMSAxIDEwLjY0OTYtMzYuMDQ0OCA1Ni4xMTUyIDU2LjExNTIgMCAwIDEtMTUuOTc0NCAxMTAuMTgyNHpNNzczLjgwMDQ3OCAxODcuNTk2OEgyNDguNjkzMjc4YTE4Ljg0MTYgMTguODQxNiAwIDAgMSAwLTM3LjY4MzJoNTI1LjEwNzJhMTguODQxNiAxOC44NDE2IDAgMCAxIDAgMzcuNjgzMnpNNzY2LjAxODA3OCA3OTcuMDgxNkgyNTguMTE0MDc4YTE4Ljg0MTYgMTguODQxNiAwIDEgMSAwLTM3LjY4MzJINzY2LjAxODA3OGExOC44NDE2IDE4Ljg0MTYgMCAwIDEgMCAzNy42ODMyeiIvPjwvc3ZnPg==;rounded=1;fillColor=#F2CC8F;strokeColor=#E07A5F;fontColor=#393C56;" vertex="1" parent="1">
          <mxGeometry x="273.5" y="455" width="30" height="30" as="geometry" />
        </mxCell>
        <mxCell id="Cfy5rwxD8HpLnG3nBIZo-110" value="用户终端" style="shape=image;verticalLabelPosition=bottom;verticalAlign=top;aspect=fixed;imageAspect=0;image=data:image/svg+xml,PHN2ZyB4bWxuczp4bGluaz0iaHR0cDovL3d3dy53My5vcmcvMTk5OS94bGluayIgeG1sbnM9Imh0dHA6Ly93d3cudzMub3JnLzIwMDAvc3ZnIiBoZWlnaHQ9IjEyOCIgd2lkdGg9IjEyOCIgdmVyc2lvbj0iMS4xIiB2aWV3Qm94PSIwIDAgMTAyNCAxMDI0IiBjbGFzcz0iaWNvbiI+PHBhdGggZmlsbD0iIzUxNTE1MSIgZD0iTTc3My44MDA0NzggMTAyNEgyNDguNjkzMjc4QTU2LjExNTIgNTYuMTE1MiAwIDAgMSAxOTIuNTc4MDc4IDk2NS44MzY4VjMzOS45NjhhMTguNDMyIDE4LjQzMiAwIDAgMSAxOC44NDE2LTE4LjQzMiAxOC44NDE2IDE4Ljg0MTYgMCAwIDEgMTguODQxNiAxOC40MzJ2NjI1Ljg2ODhhMTguODQxNiAxOC44NDE2IDAgMCAwIDE4LjQzMiAxOC44NDE2aDUyNS4xMDcyYTE5LjI1MTIgMTkuMjUxMiAwIDAgMCAxOC44NDE2LTE4Ljg0MTZ2LTIxNC42MzA0YTE4LjQzMiAxOC40MzIgMCAwIDEgMTguODQxNi0xOC40MzIgMTguODQxNiAxOC44NDE2IDAgMCAxIDE4Ljg0MTYgMTguODQxNnYyMTQuMjIwOEE1Ni41MjQ4IDU2LjUyNDggMCAwIDEgNzczLjgwMDQ3OCAxMDI0eiBtMzcuNjgzMi0zMjcuNjhhMTguODQxNiAxOC44NDE2IDAgMCAxLTE4Ljg0MTYtMTguODQxNlY1Ni4xMTUyYTE4Ljg0MTYgMTguODQxNiAwIDAgMC0xOC44NDE2LTE4LjQzMkgyNDguNjkzMjc4YTE4LjQzMiAxOC40MzIgMCAwIDAtMTguNDMyIDE4LjQzMnYxMzMuOTM5MmExOS4yNTEyIDE5LjI1MTIgMCAwIDEtMTguODQxNiAxOC44NDE2IDE4Ljg0MTYgMTguODQxNiAwIDAgMS0xOC44NDE2LTE4Ljg0MTZWNTYuMTE1MkE1Ni41MjQ4IDU2LjUyNDggMCAwIDEgMjQ4LjY5MzI3OCAwaDUyNS4xMDcyYTU2LjkzNDQgNTYuOTM0NCAwIDAgMSA1Ni41MjQ4IDU2LjExNTJ2NjIwLjEzNDRhMTkuMjUxMiAxOS4yNTEyIDAgMCAxLTE4Ljg0MTYgMjAuMDcwNHpNMjExLjQxOTY3OCAyODMuODUyOGExOC44NDE2IDE4Ljg0MTYgMCAxIDEgMC0zOC4wOTI4IDE4Ljg0MTYgMTguODQxNiAwIDAgMSAxOC44NDE2IDE4LjQzMiAxOS4yNTEyIDE5LjI1MTIgMCAwIDEtMTguODQxNiAxOS42NjA4eiIvPjxwYXRoIGZpbGw9IiM1MTUxNTEiIGQ9Ik01NDguOTMwMDc4IDExMi42NEg0NzMuOTczMjc4YTE4Ljg0MTYgMTguODQxNiAwIDAgMSAwLTM3LjY4MzJINTQ4LjkzMDA3OGExOC44NDE2IDE4Ljg0MTYgMCAxIDEgMCAzNy42ODMyek01MTEuMjQ2ODc4IDk0Ni45OTUyYTU2LjExNTIgNTYuMTE1MiAwIDAgMS01Ni4xMTUyLTU2LjExNTIgNTIuNDI4OCA1Mi40Mjg4IDAgMCAxIDMuNjg2NC0xOS42NjA4IDE4Ljg0MTYgMTguODQxNiAwIDAgMSAyMy43NTY4LTExLjA1OTIgMTkuMjUxMiAxOS4yNTEyIDAgMCAxIDExLjQ2ODggMjQuMTY2NCAxOC44NDE2IDE4Ljg0MTYgMCAwIDAgMzUuMjI1NiAxMy4xMDcyIDE4Ljg0MTYgMTguODQxNiAwIDAgMC0xMS4wNTkyLTI0LjE2NjQgMTguODQxNiAxOC44NDE2IDAgMSAxIDEwLjY0OTYtMzYuMDQ0OCA1Ni4xMTUyIDU2LjExNTIgMCAwIDEtMTUuOTc0NCAxMTAuMTgyNHpNNzczLjgwMDQ3OCAxODcuNTk2OEgyNDguNjkzMjc4YTE4Ljg0MTYgMTguODQxNiAwIDAgMSAwLTM3LjY4MzJoNTI1LjEwNzJhMTguODQxNiAxOC44NDE2IDAgMCAxIDAgMzcuNjgzMnpNNzY2LjAxODA3OCA3OTcuMDgxNkgyNTguMTE0MDc4YTE4Ljg0MTYgMTguODQxNiAwIDEgMSAwLTM3LjY4MzJINzY2LjAxODA3OGExOC44NDE2IDE4Ljg0MTYgMCAwIDEgMCAzNy42ODMyeiIvPjwvc3ZnPg==;rounded=1;fillColor=#F2CC8F;strokeColor=#E07A5F;fontColor=#393C56;" vertex="1" parent="1">
          <mxGeometry x="175" y="470" width="30" height="30" as="geometry" />
        </mxCell>
        <mxCell id="Cfy5rwxD8HpLnG3nBIZo-123" style="edgeStyle=orthogonalEdgeStyle;rounded=0;orthogonalLoop=1;jettySize=auto;html=1;entryX=0;entryY=0.75;entryDx=0;entryDy=0;endArrow=none;endFill=0;strokeColor=#E07A5F;fontColor=#393C56;labelBackgroundColor=#F4F1DE;" edge="1" parent="1" source="Cfy5rwxD8HpLnG3nBIZo-118" target="Cfy5rwxD8HpLnG3nBIZo-119">
          <mxGeometry relative="1" as="geometry" />
        </mxCell>
        <mxCell id="Cfy5rwxD8HpLnG3nBIZo-118" value="无线基站K" style="shape=image;verticalLabelPosition=bottom;verticalAlign=top;aspect=fixed;imageAspect=0;image=data:image/svg+xml,PHN2ZyB4bWxuczp4bGluaz0iaHR0cDovL3d3dy53My5vcmcvMTk5OS94bGluayIgeG1sbnM9Imh0dHA6Ly93d3cudzMub3JnLzIwMDAvc3ZnIiBoZWlnaHQ9IjEyOCIgd2lkdGg9IjEyOCIgdmVyc2lvbj0iMS4xIiB2aWV3Qm94PSIwIDAgMTAyNCAxMDI0IiBjbGFzcz0iaWNvbiI+PHBhdGggZD0iTTYxNi41IDE1MS4zbC0yOC4zIDI4LjNjMTkuNyAxOS42IDMxLjggNDYuNiAzMS44IDc2LjUgMCAyOS44LTEyLjIgNTYuOS0zMS44IDc2LjVsMjguMyAyOC4zYzI2LjgtMjcgNDMuNS02NCA0My41LTEwNC45cy0xNi43LTc3LjktNDMuNS0xMDQuN3pNNDM1LjggMTc5LjVsLTI4LjMtMjguM0MzODAuNyAxNzguMSAzNjQgMjE1LjEgMzY0IDI1NnMxNi43IDc3LjkgNDMuNSAxMDQuN2wyOC4zLTI4LjNDNDE2LjIgMzEyLjkgNDA0IDI4NS44IDQwNCAyNTZjMC0yOS45IDEyLjItNTYuOSAzMS44LTc2LjV6TTM0Ni42IDEzNC4zTDMxOC4zIDEwNmMtMzguNSAzOC40LTYyLjMgOTEuNS02Mi4zIDE1MHMyMy44IDExMS42IDYyLjMgMTUwbDI4LjMtMjguM0MzMTUuMyAzNDYuNiAyOTYgMzAzLjUgMjk2IDI1NnMxOS4zLTkwLjYgNTAuNi0xMjEuN3pNNzA1LjcgMTA2bC0yOC4zIDI4LjNDNzA4LjcgMTY1LjQgNzI4IDIwOC41IDcyOCAyNTZzLTE5LjMgOTAuNi01MC42IDEyMS43bDI4LjMgMjguM2MzOC41LTM4LjQgNjIuMy05MS41IDYyLjMtMTUwcy0yMy44LTExMS42LTYyLjMtMTUwek04MTUuMiA2MC44bC0wLjEtMC4xTDc4Ni43IDg5YzAuMSAwIDAuMSAwLjEgMC4yIDAuMUM4MzEuNSAxMzMuNyA4NTYgMTkzIDg1NiAyNTZzLTI0LjUgMTIyLjMtNjkuMSAxNjYuOWMwIDAtMC4xIDAuMS0wLjIgMC4xbDI4LjMgMjguMyAwLjEtMC4xQzg2Ny4zIDM5OSA4OTYgMzI5LjcgODk2IDI1NnMtMjguNy0xNDMtODAuOC0xOTUuMnpNMjM3LjMgODlMMjA5IDYwLjdsLTAuMSAwLjFDMTU2LjcgMTEzIDEyOCAxODIuMyAxMjggMjU2czI4LjcgMTQzIDgwLjggMTk1LjJsMC4xIDAuMSAyOC4zLTI4LjNjLTAuMSAwLTAuMS0wLjEtMC4yLTAuMS00NC41LTQ0LjYtNjktMTAzLjktNjktMTY2LjlzMjQuNS0xMjIuMyA2OS4xLTE2Ni45YzAuMSAwIDAuMS0wLjEgMC4yLTAuMXpNNTExLjcxMiAyNTYuMDAybDAuMjgzLTAuMjgzIDAuMjgzIDAuMjgzLTAuMjgzIDAuMjgzeiIvPjxwYXRoIGQ9Ik01MTEuNzE5IDI1Ni4wMjFsMC4yODItMC4yODIgMC4yODMgMC4yODItMC4yODMgMC4yODN6Ii8+PHBhdGggZD0iTTcwOC40IDYxNmwtMTQuMi0yNi4xLTcuNi0xMy45LTExLjYtMjEuMkw1MTIgMjU2IDMzNy41IDU3NmwtMjEuOCA0MEwxMjggOTYwaDc0bDMzLjgtNjQgMjguOS01M2g0OTQuNmwyOC45IDUzIDMzLjggNjRoNzRMNzA4LjQgNjE2ek01MTIgMzg5LjZMNjEzLjcgNTc2SDQxMC4zTDUxMiAzODkuNnpNMzg4LjUgNjE2SDU2OUwzMDUuNiA3NjguMSAzODguNSA2MTZ6IG0tNjMuNCAxODdsMzEzLjYtMTgxLjFMNzM3LjUgODAzSDMyNS4xeiIvPjwvc3ZnPg==;rounded=1;fillColor=#F2CC8F;strokeColor=#E07A5F;fontColor=#393C56;" vertex="1" parent="1">
          <mxGeometry x="138.5" y="565" width="60" height="60" as="geometry" />
        </mxCell>
        <mxCell id="Cfy5rwxD8HpLnG3nBIZo-119" value="边缘服务器K" style="shape=image;verticalLabelPosition=bottom;verticalAlign=top;aspect=fixed;imageAspect=0;image=data:image/svg+xml,PHN2ZyB4bWxuczp4bGluaz0iaHR0cDovL3d3dy53My5vcmcvMTk5OS94bGluayIgeG1sbnM9Imh0dHA6Ly93d3cudzMub3JnLzIwMDAvc3ZnIiBoZWlnaHQ9IjEyOCIgd2lkdGg9IjEyOCIgdmVyc2lvbj0iMS4xIiB2aWV3Qm94PSIwIDAgMTAyNCAxMDI0IiBjbGFzcz0iaWNvbiI+PHBhdGggZmlsbD0iIzUxNTE1MSIgZD0iTTY3Mi4zIDIwNS4xVjk5LjlIMzUxLjl2MTA1LjJINjR2Njk2LjhoODk2LjFWMjA1LjFINjcyLjN6TTM1MS45IDg2OS40SDk2LjZWMjM3LjdoMjU1LjN2NjMxLjd6IG0yODcuOSAwSDM4NC41di03MzdoMjU1LjN2NzM3eiBtMjg3LjggMEg2NzIuM1YyMzcuN2gyNTUuM3Y2MzEuN3pNNjEyLjcgMTYyLjFINDA5VjE4MGgyMDMuNnYtMTcuOXogbTAgMzkuMUg0MDl2MTcuOWgyMDMuNnYtMTcuOXogbS0yODguOSA2Mi45SDEyMC4yVjI4MmgyMDMuNnYtMTcuOXogbTAgMzYuN0gxMjAuMnYxNy45aDIwMy42di0xNy45ek0xNDQuMSA0ODYuN2gtMjMuOXYxMjcuMWgyMy45VjQ4Ni43eiBtMjg4LjkgMGgtMjR2MTI3LjFoMjRWNDg2Ljd6IG0yODYuNiAwaC0yMy45djEyNy4xaDIzLjlWNDg2Ljd6IG0xNzkuNy0yMjIuNkg2OTUuN1YyODJoMjAzLjZ2LTE3Ljl6IG0wIDM2LjdINjk1Ljd2MTcuOWgyMDMuNnYtMTcuOXoiLz48L3N2Zz4=;rounded=1;fillColor=#F2CC8F;strokeColor=#E07A5F;fontColor=#393C56;" vertex="1" parent="1">
          <mxGeometry x="257.5" y="550" width="60" height="60" as="geometry" />
        </mxCell>
        <mxCell id="Cfy5rwxD8HpLnG3nBIZo-124" value="用户终端" style="shape=image;verticalLabelPosition=bottom;verticalAlign=top;aspect=fixed;imageAspect=0;image=data:image/svg+xml,PHN2ZyB4bWxuczp4bGluaz0iaHR0cDovL3d3dy53My5vcmcvMTk5OS94bGluayIgeG1sbnM9Imh0dHA6Ly93d3cudzMub3JnLzIwMDAvc3ZnIiBoZWlnaHQ9IjEyOCIgd2lkdGg9IjEyOCIgdmVyc2lvbj0iMS4xIiB2aWV3Qm94PSIwIDAgMTAyNCAxMDI0IiBjbGFzcz0iaWNvbiI+PHBhdGggZmlsbD0iIzUxNTE1MSIgZD0iTTc3My44MDA0NzggMTAyNEgyNDguNjkzMjc4QTU2LjExNTIgNTYuMTE1MiAwIDAgMSAxOTIuNTc4MDc4IDk2NS44MzY4VjMzOS45NjhhMTguNDMyIDE4LjQzMiAwIDAgMSAxOC44NDE2LTE4LjQzMiAxOC44NDE2IDE4Ljg0MTYgMCAwIDEgMTguODQxNiAxOC40MzJ2NjI1Ljg2ODhhMTguODQxNiAxOC44NDE2IDAgMCAwIDE4LjQzMiAxOC44NDE2aDUyNS4xMDcyYTE5LjI1MTIgMTkuMjUxMiAwIDAgMCAxOC44NDE2LTE4Ljg0MTZ2LTIxNC42MzA0YTE4LjQzMiAxOC40MzIgMCAwIDEgMTguODQxNi0xOC40MzIgMTguODQxNiAxOC44NDE2IDAgMCAxIDE4Ljg0MTYgMTguODQxNnYyMTQuMjIwOEE1Ni41MjQ4IDU2LjUyNDggMCAwIDEgNzczLjgwMDQ3OCAxMDI0eiBtMzcuNjgzMi0zMjcuNjhhMTguODQxNiAxOC44NDE2IDAgMCAxLTE4Ljg0MTYtMTguODQxNlY1Ni4xMTUyYTE4Ljg0MTYgMTguODQxNiAwIDAgMC0xOC44NDE2LTE4LjQzMkgyNDguNjkzMjc4YTE4LjQzMiAxOC40MzIgMCAwIDAtMTguNDMyIDE4LjQzMnYxMzMuOTM5MmExOS4yNTEyIDE5LjI1MTIgMCAwIDEtMTguODQxNiAxOC44NDE2IDE4Ljg0MTYgMTguODQxNiAwIDAgMS0xOC44NDE2LTE4Ljg0MTZWNTYuMTE1MkE1Ni41MjQ4IDU2LjUyNDggMCAwIDEgMjQ4LjY5MzI3OCAwaDUyNS4xMDcyYTU2LjkzNDQgNTYuOTM0NCAwIDAgMSA1Ni41MjQ4IDU2LjExNTJ2NjIwLjEzNDRhMTkuMjUxMiAxOS4yNTEyIDAgMCAxLTE4Ljg0MTYgMjAuMDcwNHpNMjExLjQxOTY3OCAyODMuODUyOGExOC44NDE2IDE4Ljg0MTYgMCAxIDEgMC0zOC4wOTI4IDE4Ljg0MTYgMTguODQxNiAwIDAgMSAxOC44NDE2IDE4LjQzMiAxOS4yNTEyIDE5LjI1MTIgMCAwIDEtMTguODQxNiAxOS42NjA4eiIvPjxwYXRoIGZpbGw9IiM1MTUxNTEiIGQ9Ik01NDguOTMwMDc4IDExMi42NEg0NzMuOTczMjc4YTE4Ljg0MTYgMTguODQxNiAwIDAgMSAwLTM3LjY4MzJINTQ4LjkzMDA3OGExOC44NDE2IDE4Ljg0MTYgMCAxIDEgMCAzNy42ODMyek01MTEuMjQ2ODc4IDk0Ni45OTUyYTU2LjExNTIgNTYuMTE1MiAwIDAgMS01Ni4xMTUyLTU2LjExNTIgNTIuNDI4OCA1Mi40Mjg4IDAgMCAxIDMuNjg2NC0xOS42NjA4IDE4Ljg0MTYgMTguODQxNiAwIDAgMSAyMy43NTY4LTExLjA1OTIgMTkuMjUxMiAxOS4yNTEyIDAgMCAxIDExLjQ2ODggMjQuMTY2NCAxOC44NDE2IDE4Ljg0MTYgMCAwIDAgMzUuMjI1NiAxMy4xMDcyIDE4Ljg0MTYgMTguODQxNiAwIDAgMC0xMS4wNTkyLTI0LjE2NjQgMTguODQxNiAxOC44NDE2IDAgMSAxIDEwLjY0OTYtMzYuMDQ0OCA1Ni4xMTUyIDU2LjExNTIgMCAwIDEtMTUuOTc0NCAxMTAuMTgyNHpNNzczLjgwMDQ3OCAxODcuNTk2OEgyNDguNjkzMjc4YTE4Ljg0MTYgMTguODQxNiAwIDAgMSAwLTM3LjY4MzJoNTI1LjEwNzJhMTguODQxNiAxOC44NDE2IDAgMCAxIDAgMzcuNjgzMnpNNzY2LjAxODA3OCA3OTcuMDgxNkgyNTguMTE0MDc4YTE4Ljg0MTYgMTguODQxNiAwIDEgMSAwLTM3LjY4MzJINzY2LjAxODA3OGExOC44NDE2IDE4Ljg0MTYgMCAwIDEgMCAzNy42ODMyeiIvPjwvc3ZnPg==;rounded=1;fillColor=#F2CC8F;strokeColor=#E07A5F;fontColor=#393C56;" vertex="1" parent="1">
          <mxGeometry x="243.5" y="685" width="30" height="30" as="geometry" />
        </mxCell>
        <mxCell id="Cfy5rwxD8HpLnG3nBIZo-125" value="用户终端" style="shape=image;verticalLabelPosition=bottom;verticalAlign=top;aspect=fixed;imageAspect=0;image=data:image/svg+xml,PHN2ZyB4bWxuczp4bGluaz0iaHR0cDovL3d3dy53My5vcmcvMTk5OS94bGluayIgeG1sbnM9Imh0dHA6Ly93d3cudzMub3JnLzIwMDAvc3ZnIiBoZWlnaHQ9IjEyOCIgd2lkdGg9IjEyOCIgdmVyc2lvbj0iMS4xIiB2aWV3Qm94PSIwIDAgMTAyNCAxMDI0IiBjbGFzcz0iaWNvbiI+PHBhdGggZmlsbD0iIzUxNTE1MSIgZD0iTTc3My44MDA0NzggMTAyNEgyNDguNjkzMjc4QTU2LjExNTIgNTYuMTE1MiAwIDAgMSAxOTIuNTc4MDc4IDk2NS44MzY4VjMzOS45NjhhMTguNDMyIDE4LjQzMiAwIDAgMSAxOC44NDE2LTE4LjQzMiAxOC44NDE2IDE4Ljg0MTYgMCAwIDEgMTguODQxNiAxOC40MzJ2NjI1Ljg2ODhhMTguODQxNiAxOC44NDE2IDAgMCAwIDE4LjQzMiAxOC44NDE2aDUyNS4xMDcyYTE5LjI1MTIgMTkuMjUxMiAwIDAgMCAxOC44NDE2LTE4Ljg0MTZ2LTIxNC42MzA0YTE4LjQzMiAxOC40MzIgMCAwIDEgMTguODQxNi0xOC40MzIgMTguODQxNiAxOC44NDE2IDAgMCAxIDE4Ljg0MTYgMTguODQxNnYyMTQuMjIwOEE1Ni41MjQ4IDU2LjUyNDggMCAwIDEgNzczLjgwMDQ3OCAxMDI0eiBtMzcuNjgzMi0zMjcuNjhhMTguODQxNiAxOC44NDE2IDAgMCAxLTE4Ljg0MTYtMTguODQxNlY1Ni4xMTUyYTE4Ljg0MTYgMTguODQxNiAwIDAgMC0xOC44NDE2LTE4LjQzMkgyNDguNjkzMjc4YTE4LjQzMiAxOC40MzIgMCAwIDAtMTguNDMyIDE4LjQzMnYxMzMuOTM5MmExOS4yNTEyIDE5LjI1MTIgMCAwIDEtMTguODQxNiAxOC44NDE2IDE4Ljg0MTYgMTguODQxNiAwIDAgMS0xOC44NDE2LTE4Ljg0MTZWNTYuMTE1MkE1Ni41MjQ4IDU2LjUyNDggMCAwIDEgMjQ4LjY5MzI3OCAwaDUyNS4xMDcyYTU2LjkzNDQgNTYuOTM0NCAwIDAgMSA1Ni41MjQ4IDU2LjExNTJ2NjIwLjEzNDRhMTkuMjUxMiAxOS4yNTEyIDAgMCAxLTE4Ljg0MTYgMjAuMDcwNHpNMjExLjQxOTY3OCAyODMuODUyOGExOC44NDE2IDE4Ljg0MTYgMCAxIDEgMC0zOC4wOTI4IDE4Ljg0MTYgMTguODQxNiAwIDAgMSAxOC44NDE2IDE4LjQzMiAxOS4yNTEyIDE5LjI1MTIgMCAwIDEtMTguODQxNiAxOS42NjA4eiIvPjxwYXRoIGZpbGw9IiM1MTUxNTEiIGQ9Ik01NDguOTMwMDc4IDExMi42NEg0NzMuOTczMjc4YTE4Ljg0MTYgMTguODQxNiAwIDAgMSAwLTM3LjY4MzJINTQ4LjkzMDA3OGExOC44NDE2IDE4Ljg0MTYgMCAxIDEgMCAzNy42ODMyek01MTEuMjQ2ODc4IDk0Ni45OTUyYTU2LjExNTIgNTYuMTE1MiAwIDAgMS01Ni4xMTUyLTU2LjExNTIgNTIuNDI4OCA1Mi40Mjg4IDAgMCAxIDMuNjg2NC0xOS42NjA4IDE4Ljg0MTYgMTguODQxNiAwIDAgMSAyMy43NTY4LTExLjA1OTIgMTkuMjUxMiAxOS4yNTEyIDAgMCAxIDExLjQ2ODggMjQuMTY2NCAxOC44NDE2IDE4Ljg0MTYgMCAwIDAgMzUuMjI1NiAxMy4xMDcyIDE4Ljg0MTYgMTguODQxNiAwIDAgMC0xMS4wNTkyLTI0LjE2NjQgMTguODQxNiAxOC44NDE2IDAgMSAxIDEwLjY0OTYtMzYuMDQ0OCA1Ni4xMTUyIDU2LjExNTIgMCAwIDEtMTUuOTc0NCAxMTAuMTgyNHpNNzczLjgwMDQ3OCAxODcuNTk2OEgyNDguNjkzMjc4YTE4Ljg0MTYgMTguODQxNiAwIDAgMSAwLTM3LjY4MzJoNTI1LjEwNzJhMTguODQxNiAxOC44NDE2IDAgMCAxIDAgMzcuNjgzMnpNNzY2LjAxODA3OCA3OTcuMDgxNkgyNTguMTE0MDc4YTE4Ljg0MTYgMTguODQxNiAwIDEgMSAwLTM3LjY4MzJINzY2LjAxODA3OGExOC44NDE2IDE4Ljg0MTYgMCAwIDEgMCAzNy42ODMyeiIvPjwvc3ZnPg==;rounded=1;fillColor=#F2CC8F;strokeColor=#E07A5F;fontColor=#393C56;" vertex="1" parent="1">
          <mxGeometry x="155" y="695" width="30" height="30" as="geometry" />
        </mxCell>
        <mxCell id="Cfy5rwxD8HpLnG3nBIZo-126" value="用户终端" style="shape=image;verticalLabelPosition=bottom;verticalAlign=top;aspect=fixed;imageAspect=0;image=data:image/svg+xml,PHN2ZyB4bWxuczp4bGluaz0iaHR0cDovL3d3dy53My5vcmcvMTk5OS94bGluayIgeG1sbnM9Imh0dHA6Ly93d3cudzMub3JnLzIwMDAvc3ZnIiBoZWlnaHQ9IjEyOCIgd2lkdGg9IjEyOCIgdmVyc2lvbj0iMS4xIiB2aWV3Qm94PSIwIDAgMTAyNCAxMDI0IiBjbGFzcz0iaWNvbiI+PHBhdGggZmlsbD0iIzUxNTE1MSIgZD0iTTc3My44MDA0NzggMTAyNEgyNDguNjkzMjc4QTU2LjExNTIgNTYuMTE1MiAwIDAgMSAxOTIuNTc4MDc4IDk2NS44MzY4VjMzOS45NjhhMTguNDMyIDE4LjQzMiAwIDAgMSAxOC44NDE2LTE4LjQzMiAxOC44NDE2IDE4Ljg0MTYgMCAwIDEgMTguODQxNiAxOC40MzJ2NjI1Ljg2ODhhMTguODQxNiAxOC44NDE2IDAgMCAwIDE4LjQzMiAxOC44NDE2aDUyNS4xMDcyYTE5LjI1MTIgMTkuMjUxMiAwIDAgMCAxOC44NDE2LTE4Ljg0MTZ2LTIxNC42MzA0YTE4LjQzMiAxOC40MzIgMCAwIDEgMTguODQxNi0xOC40MzIgMTguODQxNiAxOC44NDE2IDAgMCAxIDE4Ljg0MTYgMTguODQxNnYyMTQuMjIwOEE1Ni41MjQ4IDU2LjUyNDggMCAwIDEgNzczLjgwMDQ3OCAxMDI0eiBtMzcuNjgzMi0zMjcuNjhhMTguODQxNiAxOC44NDE2IDAgMCAxLTE4Ljg0MTYtMTguODQxNlY1Ni4xMTUyYTE4Ljg0MTYgMTguODQxNiAwIDAgMC0xOC44NDE2LTE4LjQzMkgyNDguNjkzMjc4YTE4LjQzMiAxOC40MzIgMCAwIDAtMTguNDMyIDE4LjQzMnYxMzMuOTM5MmExOS4yNTEyIDE5LjI1MTIgMCAwIDEtMTguODQxNiAxOC44NDE2IDE4Ljg0MTYgMTguODQxNiAwIDAgMS0xOC44NDE2LTE4Ljg0MTZWNTYuMTE1MkE1Ni41MjQ4IDU2LjUyNDggMCAwIDEgMjQ4LjY5MzI3OCAwaDUyNS4xMDcyYTU2LjkzNDQgNTYuOTM0NCAwIDAgMSA1Ni41MjQ4IDU2LjExNTJ2NjIwLjEzNDRhMTkuMjUxMiAxOS4yNTEyIDAgMCAxLTE4Ljg0MTYgMjAuMDcwNHpNMjExLjQxOTY3OCAyODMuODUyOGExOC44NDE2IDE4Ljg0MTYgMCAxIDEgMC0zOC4wOTI4IDE4Ljg0MTYgMTguODQxNiAwIDAgMSAxOC44NDE2IDE4LjQzMiAxOS4yNTEyIDE5LjI1MTIgMCAwIDEtMTguODQxNiAxOS42NjA4eiIvPjxwYXRoIGZpbGw9IiM1MTUxNTEiIGQ9Ik01NDguOTMwMDc4IDExMi42NEg0NzMuOTczMjc4YTE4Ljg0MTYgMTguODQxNiAwIDAgMSAwLTM3LjY4MzJINTQ4LjkzMDA3OGExOC44NDE2IDE4Ljg0MTYgMCAxIDEgMCAzNy42ODMyek01MTEuMjQ2ODc4IDk0Ni45OTUyYTU2LjExNTIgNTYuMTE1MiAwIDAgMS01Ni4xMTUyLTU2LjExNTIgNTIuNDI4OCA1Mi40Mjg4IDAgMCAxIDMuNjg2NC0xOS42NjA4IDE4Ljg0MTYgMTguODQxNiAwIDAgMSAyMy43NTY4LTExLjA1OTIgMTkuMjUxMiAxOS4yNTEyIDAgMCAxIDExLjQ2ODggMjQuMTY2NCAxOC44NDE2IDE4Ljg0MTYgMCAwIDAgMzUuMjI1NiAxMy4xMDcyIDE4Ljg0MTYgMTguODQxNiAwIDAgMC0xMS4wNTkyLTI0LjE2NjQgMTguODQxNiAxOC44NDE2IDAgMSAxIDEwLjY0OTYtMzYuMDQ0OCA1Ni4xMTUyIDU2LjExNTIgMCAwIDEtMTUuOTc0NCAxMTAuMTgyNHpNNzczLjgwMDQ3OCAxODcuNTk2OEgyNDguNjkzMjc4YTE4Ljg0MTYgMTguODQxNiAwIDAgMSAwLTM3LjY4MzJoNTI1LjEwNzJhMTguODQxNiAxOC44NDE2IDAgMCAxIDAgMzcuNjgzMnpNNzY2LjAxODA3OCA3OTcuMDgxNkgyNTguMTE0MDc4YTE4Ljg0MTYgMTguODQxNiAwIDEgMSAwLTM3LjY4MzJINzY2LjAxODA3OGExOC44NDE2IDE4Ljg0MTYgMCAwIDEgMCAzNy42ODMyeiIvPjwvc3ZnPg==;rounded=1;fillColor=#F2CC8F;strokeColor=#E07A5F;fontColor=#393C56;" vertex="1" parent="1">
          <mxGeometry x="365" y="625" width="30" height="30" as="geometry" />
        </mxCell>
        <mxCell id="Cfy5rwxD8HpLnG3nBIZo-128" value="用户终端" style="shape=image;verticalLabelPosition=bottom;verticalAlign=top;aspect=fixed;imageAspect=0;image=data:image/svg+xml,PHN2ZyB4bWxuczp4bGluaz0iaHR0cDovL3d3dy53My5vcmcvMTk5OS94bGluayIgeG1sbnM9Imh0dHA6Ly93d3cudzMub3JnLzIwMDAvc3ZnIiBoZWlnaHQ9IjEyOCIgd2lkdGg9IjEyOCIgdmVyc2lvbj0iMS4xIiB2aWV3Qm94PSIwIDAgMTAyNCAxMDI0IiBjbGFzcz0iaWNvbiI+PHBhdGggZmlsbD0iIzUxNTE1MSIgZD0iTTc3My44MDA0NzggMTAyNEgyNDguNjkzMjc4QTU2LjExNTIgNTYuMTE1MiAwIDAgMSAxOTIuNTc4MDc4IDk2NS44MzY4VjMzOS45NjhhMTguNDMyIDE4LjQzMiAwIDAgMSAxOC44NDE2LTE4LjQzMiAxOC44NDE2IDE4Ljg0MTYgMCAwIDEgMTguODQxNiAxOC40MzJ2NjI1Ljg2ODhhMTguODQxNiAxOC44NDE2IDAgMCAwIDE4LjQzMiAxOC44NDE2aDUyNS4xMDcyYTE5LjI1MTIgMTkuMjUxMiAwIDAgMCAxOC44NDE2LTE4Ljg0MTZ2LTIxNC42MzA0YTE4LjQzMiAxOC40MzIgMCAwIDEgMTguODQxNi0xOC40MzIgMTguODQxNiAxOC44NDE2IDAgMCAxIDE4Ljg0MTYgMTguODQxNnYyMTQuMjIwOEE1Ni41MjQ4IDU2LjUyNDggMCAwIDEgNzczLjgwMDQ3OCAxMDI0eiBtMzcuNjgzMi0zMjcuNjhhMTguODQxNiAxOC44NDE2IDAgMCAxLTE4Ljg0MTYtMTguODQxNlY1Ni4xMTUyYTE4Ljg0MTYgMTguODQxNiAwIDAgMC0xOC44NDE2LTE4LjQzMkgyNDguNjkzMjc4YTE4LjQzMiAxOC40MzIgMCAwIDAtMTguNDMyIDE4LjQzMnYxMzMuOTM5MmExOS4yNTEyIDE5LjI1MTIgMCAwIDEtMTguODQxNiAxOC44NDE2IDE4Ljg0MTYgMTguODQxNiAwIDAgMS0xOC44NDE2LTE4Ljg0MTZWNTYuMTE1MkE1Ni41MjQ4IDU2LjUyNDggMCAwIDEgMjQ4LjY5MzI3OCAwaDUyNS4xMDcyYTU2LjkzNDQgNTYuOTM0NCAwIDAgMSA1Ni41MjQ4IDU2LjExNTJ2NjIwLjEzNDRhMTkuMjUxMiAxOS4yNTEyIDAgMCAxLTE4Ljg0MTYgMjAuMDcwNHpNMjExLjQxOTY3OCAyODMuODUyOGExOC44NDE2IDE4Ljg0MTYgMCAxIDEgMC0zOC4wOTI4IDE4Ljg0MTYgMTguODQxNiAwIDAgMSAxOC44NDE2IDE4LjQzMiAxOS4yNTEyIDE5LjI1MTIgMCAwIDEtMTguODQxNiAxOS42NjA4eiIvPjxwYXRoIGZpbGw9IiM1MTUxNTEiIGQ9Ik01NDguOTMwMDc4IDExMi42NEg0NzMuOTczMjc4YTE4Ljg0MTYgMTguODQxNiAwIDAgMSAwLTM3LjY4MzJINTQ4LjkzMDA3OGExOC44NDE2IDE4Ljg0MTYgMCAxIDEgMCAzNy42ODMyek01MTEuMjQ2ODc4IDk0Ni45OTUyYTU2LjExNTIgNTYuMTE1MiAwIDAgMS01Ni4xMTUyLTU2LjExNTIgNTIuNDI4OCA1Mi40Mjg4IDAgMCAxIDMuNjg2NC0xOS42NjA4IDE4Ljg0MTYgMTguODQxNiAwIDAgMSAyMy43NTY4LTExLjA1OTIgMTkuMjUxMiAxOS4yNTEyIDAgMCAxIDExLjQ2ODggMjQuMTY2NCAxOC44NDE2IDE4Ljg0MTYgMCAwIDAgMzUuMjI1NiAxMy4xMDcyIDE4Ljg0MTYgMTguODQxNiAwIDAgMC0xMS4wNTkyLTI0LjE2NjQgMTguODQxNiAxOC44NDE2IDAgMSAxIDEwLjY0OTYtMzYuMDQ0OCA1Ni4xMTUyIDU2LjExNTIgMCAwIDEtMTUuOTc0NCAxMTAuMTgyNHpNNzczLjgwMDQ3OCAxODcuNTk2OEgyNDguNjkzMjc4YTE4Ljg0MTYgMTguODQxNiAwIDAgMSAwLTM3LjY4MzJoNTI1LjEwNzJhMTguODQxNiAxOC44NDE2IDAgMCAxIDAgMzcuNjgzMnpNNzY2LjAxODA3OCA3OTcuMDgxNkgyNTguMTE0MDc4YTE4Ljg0MTYgMTguODQxNiAwIDEgMSAwLTM3LjY4MzJINzY2LjAxODA3OGExOC44NDE2IDE4Ljg0MTYgMCAwIDEgMCAzNy42ODMyeiIvPjwvc3ZnPg==;rounded=1;fillColor=#F2CC8F;strokeColor=#E07A5F;fontColor=#393C56;" vertex="1" parent="1">
          <mxGeometry x="415" y="420" width="30" height="30" as="geometry" />
        </mxCell>
        <mxCell id="Cfy5rwxD8HpLnG3nBIZo-130" value="用户终端" style="shape=image;verticalLabelPosition=bottom;verticalAlign=top;aspect=fixed;imageAspect=0;image=data:image/svg+xml,PHN2ZyB4bWxuczp4bGluaz0iaHR0cDovL3d3dy53My5vcmcvMTk5OS94bGluayIgeG1sbnM9Imh0dHA6Ly93d3cudzMub3JnLzIwMDAvc3ZnIiBoZWlnaHQ9IjEyOCIgd2lkdGg9IjEyOCIgdmVyc2lvbj0iMS4xIiB2aWV3Qm94PSIwIDAgMTAyNCAxMDI0IiBjbGFzcz0iaWNvbiI+PHBhdGggZmlsbD0iIzUxNTE1MSIgZD0iTTc3My44MDA0NzggMTAyNEgyNDguNjkzMjc4QTU2LjExNTIgNTYuMTE1MiAwIDAgMSAxOTIuNTc4MDc4IDk2NS44MzY4VjMzOS45NjhhMTguNDMyIDE4LjQzMiAwIDAgMSAxOC44NDE2LTE4LjQzMiAxOC44NDE2IDE4Ljg0MTYgMCAwIDEgMTguODQxNiAxOC40MzJ2NjI1Ljg2ODhhMTguODQxNiAxOC44NDE2IDAgMCAwIDE4LjQzMiAxOC44NDE2aDUyNS4xMDcyYTE5LjI1MTIgMTkuMjUxMiAwIDAgMCAxOC44NDE2LTE4Ljg0MTZ2LTIxNC42MzA0YTE4LjQzMiAxOC40MzIgMCAwIDEgMTguODQxNi0xOC40MzIgMTguODQxNiAxOC44NDE2IDAgMCAxIDE4Ljg0MTYgMTguODQxNnYyMTQuMjIwOEE1Ni41MjQ4IDU2LjUyNDggMCAwIDEgNzczLjgwMDQ3OCAxMDI0eiBtMzcuNjgzMi0zMjcuNjhhMTguODQxNiAxOC44NDE2IDAgMCAxLTE4Ljg0MTYtMTguODQxNlY1Ni4xMTUyYTE4Ljg0MTYgMTguODQxNiAwIDAgMC0xOC44NDE2LTE4LjQzMkgyNDguNjkzMjc4YTE4LjQzMiAxOC40MzIgMCAwIDAtMTguNDMyIDE4LjQzMnYxMzMuOTM5MmExOS4yNTEyIDE5LjI1MTIgMCAwIDEtMTguODQxNiAxOC44NDE2IDE4Ljg0MTYgMTguODQxNiAwIDAgMS0xOC44NDE2LTE4Ljg0MTZWNTYuMTE1MkE1Ni41MjQ4IDU2LjUyNDggMCAwIDEgMjQ4LjY5MzI3OCAwaDUyNS4xMDcyYTU2LjkzNDQgNTYuOTM0NCAwIDAgMSA1Ni41MjQ4IDU2LjExNTJ2NjIwLjEzNDRhMTkuMjUxMiAxOS4yNTEyIDAgMCAxLTE4Ljg0MTYgMjAuMDcwNHpNMjExLjQxOTY3OCAyODMuODUyOGExOC44NDE2IDE4Ljg0MTYgMCAxIDEgMC0zOC4wOTI4IDE4Ljg0MTYgMTguODQxNiAwIDAgMSAxOC44NDE2IDE4LjQzMiAxOS4yNTEyIDE5LjI1MTIgMCAwIDEtMTguODQxNiAxOS42NjA4eiIvPjxwYXRoIGZpbGw9IiM1MTUxNTEiIGQ9Ik01NDguOTMwMDc4IDExMi42NEg0NzMuOTczMjc4YTE4Ljg0MTYgMTguODQxNiAwIDAgMSAwLTM3LjY4MzJINTQ4LjkzMDA3OGExOC44NDE2IDE4Ljg0MTYgMCAxIDEgMCAzNy42ODMyek01MTEuMjQ2ODc4IDk0Ni45OTUyYTU2LjExNTIgNTYuMTE1MiAwIDAgMS01Ni4xMTUyLTU2LjExNTIgNTIuNDI4OCA1Mi40Mjg4IDAgMCAxIDMuNjg2NC0xOS42NjA4IDE4Ljg0MTYgMTguODQxNiAwIDAgMSAyMy43NTY4LTExLjA1OTIgMTkuMjUxMiAxOS4yNTEyIDAgMCAxIDExLjQ2ODggMjQuMTY2NCAxOC44NDE2IDE4Ljg0MTYgMCAwIDAgMzUuMjI1NiAxMy4xMDcyIDE4Ljg0MTYgMTguODQxNiAwIDAgMC0xMS4wNTkyLTI0LjE2NjQgMTguODQxNiAxOC44NDE2IDAgMSAxIDEwLjY0OTYtMzYuMDQ0OCA1Ni4xMTUyIDU2LjExNTIgMCAwIDEtMTUuOTc0NCAxMTAuMTgyNHpNNzczLjgwMDQ3OCAxODcuNTk2OEgyNDguNjkzMjc4YTE4Ljg0MTYgMTguODQxNiAwIDAgMSAwLTM3LjY4MzJoNTI1LjEwNzJhMTguODQxNiAxOC44NDE2IDAgMCAxIDAgMzcuNjgzMnpNNzY2LjAxODA3OCA3OTcuMDgxNkgyNTguMTE0MDc4YTE4Ljg0MTYgMTguODQxNiAwIDEgMSAwLTM3LjY4MzJINzY2LjAxODA3OGExOC44NDE2IDE4Ljg0MTYgMCAwIDEgMCAzNy42ODMyeiIvPjwvc3ZnPg==;rounded=1;fillColor=#F2CC8F;strokeColor=#E07A5F;fontColor=#393C56;" vertex="1" parent="1">
          <mxGeometry x="435" y="510" width="30" height="30" as="geometry" />
        </mxCell>
        <mxCell id="Cfy5rwxD8HpLnG3nBIZo-131" value="用户终端" style="shape=image;verticalLabelPosition=bottom;verticalAlign=top;aspect=fixed;imageAspect=0;image=data:image/svg+xml,PHN2ZyB4bWxuczp4bGluaz0iaHR0cDovL3d3dy53My5vcmcvMTk5OS94bGluayIgeG1sbnM9Imh0dHA6Ly93d3cudzMub3JnLzIwMDAvc3ZnIiBoZWlnaHQ9IjEyOCIgd2lkdGg9IjEyOCIgdmVyc2lvbj0iMS4xIiB2aWV3Qm94PSIwIDAgMTAyNCAxMDI0IiBjbGFzcz0iaWNvbiI+PHBhdGggZmlsbD0iIzUxNTE1MSIgZD0iTTc3My44MDA0NzggMTAyNEgyNDguNjkzMjc4QTU2LjExNTIgNTYuMTE1MiAwIDAgMSAxOTIuNTc4MDc4IDk2NS44MzY4VjMzOS45NjhhMTguNDMyIDE4LjQzMiAwIDAgMSAxOC44NDE2LTE4LjQzMiAxOC44NDE2IDE4Ljg0MTYgMCAwIDEgMTguODQxNiAxOC40MzJ2NjI1Ljg2ODhhMTguODQxNiAxOC44NDE2IDAgMCAwIDE4LjQzMiAxOC44NDE2aDUyNS4xMDcyYTE5LjI1MTIgMTkuMjUxMiAwIDAgMCAxOC44NDE2LTE4Ljg0MTZ2LTIxNC42MzA0YTE4LjQzMiAxOC40MzIgMCAwIDEgMTguODQxNi0xOC40MzIgMTguODQxNiAxOC44NDE2IDAgMCAxIDE4Ljg0MTYgMTguODQxNnYyMTQuMjIwOEE1Ni41MjQ4IDU2LjUyNDggMCAwIDEgNzczLjgwMDQ3OCAxMDI0eiBtMzcuNjgzMi0zMjcuNjhhMTguODQxNiAxOC44NDE2IDAgMCAxLTE4Ljg0MTYtMTguODQxNlY1Ni4xMTUyYTE4Ljg0MTYgMTguODQxNiAwIDAgMC0xOC44NDE2LTE4LjQzMkgyNDguNjkzMjc4YTE4LjQzMiAxOC40MzIgMCAwIDAtMTguNDMyIDE4LjQzMnYxMzMuOTM5MmExOS4yNTEyIDE5LjI1MTIgMCAwIDEtMTguODQxNiAxOC44NDE2IDE4Ljg0MTYgMTguODQxNiAwIDAgMS0xOC44NDE2LTE4Ljg0MTZWNTYuMTE1MkE1Ni41MjQ4IDU2LjUyNDggMCAwIDEgMjQ4LjY5MzI3OCAwaDUyNS4xMDcyYTU2LjkzNDQgNTYuOTM0NCAwIDAgMSA1Ni41MjQ4IDU2LjExNTJ2NjIwLjEzNDRhMTkuMjUxMiAxOS4yNTEyIDAgMCAxLTE4Ljg0MTYgMjAuMDcwNHpNMjExLjQxOTY3OCAyODMuODUyOGExOC44NDE2IDE4Ljg0MTYgMCAxIDEgMC0zOC4wOTI4IDE4Ljg0MTYgMTguODQxNiAwIDAgMSAxOC44NDE2IDE4LjQzMiAxOS4yNTEyIDE5LjI1MTIgMCAwIDEtMTguODQxNiAxOS42NjA4eiIvPjxwYXRoIGZpbGw9IiM1MTUxNTEiIGQ9Ik01NDguOTMwMDc4IDExMi42NEg0NzMuOTczMjc4YTE4Ljg0MTYgMTguODQxNiAwIDAgMSAwLTM3LjY4MzJINTQ4LjkzMDA3OGExOC44NDE2IDE4Ljg0MTYgMCAxIDEgMCAzNy42ODMyek01MTEuMjQ2ODc4IDk0Ni45OTUyYTU2LjExNTIgNTYuMTE1MiAwIDAgMS01Ni4xMTUyLTU2LjExNTIgNTIuNDI4OCA1Mi40Mjg4IDAgMCAxIDMuNjg2NC0xOS42NjA4IDE4Ljg0MTYgMTguODQxNiAwIDAgMSAyMy43NTY4LTExLjA1OTIgMTkuMjUxMiAxOS4yNTEyIDAgMCAxIDExLjQ2ODggMjQuMTY2NCAxOC44NDE2IDE4Ljg0MTYgMCAwIDAgMzUuMjI1NiAxMy4xMDcyIDE4Ljg0MTYgMTguODQxNiAwIDAgMC0xMS4wNTkyLTI0LjE2NjQgMTguODQxNiAxOC44NDE2IDAgMSAxIDEwLjY0OTYtMzYuMDQ0OCA1Ni4xMTUyIDU2LjExNTIgMCAwIDEtMTUuOTc0NCAxMTAuMTgyNHpNNzczLjgwMDQ3OCAxODcuNTk2OEgyNDguNjkzMjc4YTE4Ljg0MTYgMTguODQxNiAwIDAgMSAwLTM3LjY4MzJoNTI1LjEwNzJhMTguODQxNiAxOC44NDE2IDAgMCAxIDAgMzcuNjgzMnpNNzY2LjAxODA3OCA3OTcuMDgxNkgyNTguMTE0MDc4YTE4Ljg0MTYgMTguODQxNiAwIDEgMSAwLTM3LjY4MzJINzY2LjAxODA3OGExOC44NDE2IDE4Ljg0MTYgMCAwIDEgMCAzNy42ODMyeiIvPjwvc3ZnPg==;rounded=1;fillColor=#F2CC8F;strokeColor=#E07A5F;fontColor=#393C56;" vertex="1" parent="1">
          <mxGeometry x="365" y="265" width="30" height="30" as="geometry" />
        </mxCell>
        <mxCell id="Cfy5rwxD8HpLnG3nBIZo-132" value="用户终端" style="shape=image;verticalLabelPosition=bottom;verticalAlign=top;aspect=fixed;imageAspect=0;image=data:image/svg+xml,PHN2ZyB4bWxuczp4bGluaz0iaHR0cDovL3d3dy53My5vcmcvMTk5OS94bGluayIgeG1sbnM9Imh0dHA6Ly93d3cudzMub3JnLzIwMDAvc3ZnIiBoZWlnaHQ9IjEyOCIgd2lkdGg9IjEyOCIgdmVyc2lvbj0iMS4xIiB2aWV3Qm94PSIwIDAgMTAyNCAxMDI0IiBjbGFzcz0iaWNvbiI+PHBhdGggZmlsbD0iIzUxNTE1MSIgZD0iTTc3My44MDA0NzggMTAyNEgyNDguNjkzMjc4QTU2LjExNTIgNTYuMTE1MiAwIDAgMSAxOTIuNTc4MDc4IDk2NS44MzY4VjMzOS45NjhhMTguNDMyIDE4LjQzMiAwIDAgMSAxOC44NDE2LTE4LjQzMiAxOC44NDE2IDE4Ljg0MTYgMCAwIDEgMTguODQxNiAxOC40MzJ2NjI1Ljg2ODhhMTguODQxNiAxOC44NDE2IDAgMCAwIDE4LjQzMiAxOC44NDE2aDUyNS4xMDcyYTE5LjI1MTIgMTkuMjUxMiAwIDAgMCAxOC44NDE2LTE4Ljg0MTZ2LTIxNC42MzA0YTE4LjQzMiAxOC40MzIgMCAwIDEgMTguODQxNi0xOC40MzIgMTguODQxNiAxOC44NDE2IDAgMCAxIDE4Ljg0MTYgMTguODQxNnYyMTQuMjIwOEE1Ni41MjQ4IDU2LjUyNDggMCAwIDEgNzczLjgwMDQ3OCAxMDI0eiBtMzcuNjgzMi0zMjcuNjhhMTguODQxNiAxOC44NDE2IDAgMCAxLTE4Ljg0MTYtMTguODQxNlY1Ni4xMTUyYTE4Ljg0MTYgMTguODQxNiAwIDAgMC0xOC44NDE2LTE4LjQzMkgyNDguNjkzMjc4YTE4LjQzMiAxOC40MzIgMCAwIDAtMTguNDMyIDE4LjQzMnYxMzMuOTM5MmExOS4yNTEyIDE5LjI1MTIgMCAwIDEtMTguODQxNiAxOC44NDE2IDE4Ljg0MTYgMTguODQxNiAwIDAgMS0xOC44NDE2LTE4Ljg0MTZWNTYuMTE1MkE1Ni41MjQ4IDU2LjUyNDggMCAwIDEgMjQ4LjY5MzI3OCAwaDUyNS4xMDcyYTU2LjkzNDQgNTYuOTM0NCAwIDAgMSA1Ni41MjQ4IDU2LjExNTJ2NjIwLjEzNDRhMTkuMjUxMiAxOS4yNTEyIDAgMCAxLTE4Ljg0MTYgMjAuMDcwNHpNMjExLjQxOTY3OCAyODMuODUyOGExOC44NDE2IDE4Ljg0MTYgMCAxIDEgMC0zOC4wOTI4IDE4Ljg0MTYgMTguODQxNiAwIDAgMSAxOC44NDE2IDE4LjQzMiAxOS4yNTEyIDE5LjI1MTIgMCAwIDEtMTguODQxNiAxOS42NjA4eiIvPjxwYXRoIGZpbGw9IiM1MTUxNTEiIGQ9Ik01NDguOTMwMDc4IDExMi42NEg0NzMuOTczMjc4YTE4Ljg0MTYgMTguODQxNiAwIDAgMSAwLTM3LjY4MzJINTQ4LjkzMDA3OGExOC44NDE2IDE4Ljg0MTYgMCAxIDEgMCAzNy42ODMyek01MTEuMjQ2ODc4IDk0Ni45OTUyYTU2LjExNTIgNTYuMTE1MiAwIDAgMS01Ni4xMTUyLTU2LjExNTIgNTIuNDI4OCA1Mi40Mjg4IDAgMCAxIDMuNjg2NC0xOS42NjA4IDE4Ljg0MTYgMTguODQxNiAwIDAgMSAyMy43NTY4LTExLjA1OTIgMTkuMjUxMiAxOS4yNTEyIDAgMCAxIDExLjQ2ODggMjQuMTY2NCAxOC44NDE2IDE4Ljg0MTYgMCAwIDAgMzUuMjI1NiAxMy4xMDcyIDE4Ljg0MTYgMTguODQxNiAwIDAgMC0xMS4wNTkyLTI0LjE2NjQgMTguODQxNiAxOC44NDE2IDAgMSAxIDEwLjY0OTYtMzYuMDQ0OCA1Ni4xMTUyIDU2LjExNTIgMCAwIDEtMTUuOTc0NCAxMTAuMTgyNHpNNzczLjgwMDQ3OCAxODcuNTk2OEgyNDguNjkzMjc4YTE4Ljg0MTYgMTguODQxNiAwIDAgMSAwLTM3LjY4MzJoNTI1LjEwNzJhMTguODQxNiAxOC44NDE2IDAgMCAxIDAgMzcuNjgzMnpNNzY2LjAxODA3OCA3OTcuMDgxNkgyNTguMTE0MDc4YTE4Ljg0MTYgMTguODQxNiAwIDEgMSAwLTM3LjY4MzJINzY2LjAxODA3OGExOC44NDE2IDE4Ljg0MTYgMCAwIDEgMCAzNy42ODMyeiIvPjwvc3ZnPg==;rounded=1;fillColor=#F2CC8F;strokeColor=#E07A5F;fontColor=#393C56;" vertex="1" parent="1">
          <mxGeometry x="30" y="750" width="30" height="30" as="geometry" />
        </mxCell>
        <mxCell id="Cfy5rwxD8HpLnG3nBIZo-134" value="用户终端" style="shape=image;verticalLabelPosition=bottom;verticalAlign=top;aspect=fixed;imageAspect=0;image=data:image/svg+xml,PHN2ZyB4bWxuczp4bGluaz0iaHR0cDovL3d3dy53My5vcmcvMTk5OS94bGluayIgeG1sbnM9Imh0dHA6Ly93d3cudzMub3JnLzIwMDAvc3ZnIiBoZWlnaHQ9IjEyOCIgd2lkdGg9IjEyOCIgdmVyc2lvbj0iMS4xIiB2aWV3Qm94PSIwIDAgMTAyNCAxMDI0IiBjbGFzcz0iaWNvbiI+PHBhdGggZmlsbD0iIzUxNTE1MSIgZD0iTTc3My44MDA0NzggMTAyNEgyNDguNjkzMjc4QTU2LjExNTIgNTYuMTE1MiAwIDAgMSAxOTIuNTc4MDc4IDk2NS44MzY4VjMzOS45NjhhMTguNDMyIDE4LjQzMiAwIDAgMSAxOC44NDE2LTE4LjQzMiAxOC44NDE2IDE4Ljg0MTYgMCAwIDEgMTguODQxNiAxOC40MzJ2NjI1Ljg2ODhhMTguODQxNiAxOC44NDE2IDAgMCAwIDE4LjQzMiAxOC44NDE2aDUyNS4xMDcyYTE5LjI1MTIgMTkuMjUxMiAwIDAgMCAxOC44NDE2LTE4Ljg0MTZ2LTIxNC42MzA0YTE4LjQzMiAxOC40MzIgMCAwIDEgMTguODQxNi0xOC40MzIgMTguODQxNiAxOC44NDE2IDAgMCAxIDE4Ljg0MTYgMTguODQxNnYyMTQuMjIwOEE1Ni41MjQ4IDU2LjUyNDggMCAwIDEgNzczLjgwMDQ3OCAxMDI0eiBtMzcuNjgzMi0zMjcuNjhhMTguODQxNiAxOC44NDE2IDAgMCAxLTE4Ljg0MTYtMTguODQxNlY1Ni4xMTUyYTE4Ljg0MTYgMTguODQxNiAwIDAgMC0xOC44NDE2LTE4LjQzMkgyNDguNjkzMjc4YTE4LjQzMiAxOC40MzIgMCAwIDAtMTguNDMyIDE4LjQzMnYxMzMuOTM5MmExOS4yNTEyIDE5LjI1MTIgMCAwIDEtMTguODQxNiAxOC44NDE2IDE4Ljg0MTYgMTguODQxNiAwIDAgMS0xOC44NDE2LTE4Ljg0MTZWNTYuMTE1MkE1Ni41MjQ4IDU2LjUyNDggMCAwIDEgMjQ4LjY5MzI3OCAwaDUyNS4xMDcyYTU2LjkzNDQgNTYuOTM0NCAwIDAgMSA1Ni41MjQ4IDU2LjExNTJ2NjIwLjEzNDRhMTkuMjUxMiAxOS4yNTEyIDAgMCAxLTE4Ljg0MTYgMjAuMDcwNHpNMjExLjQxOTY3OCAyODMuODUyOGExOC44NDE2IDE4Ljg0MTYgMCAxIDEgMC0zOC4wOTI4IDE4Ljg0MTYgMTguODQxNiAwIDAgMSAxOC44NDE2IDE4LjQzMiAxOS4yNTEyIDE5LjI1MTIgMCAwIDEtMTguODQxNiAxOS42NjA4eiIvPjxwYXRoIGZpbGw9IiM1MTUxNTEiIGQ9Ik01NDguOTMwMDc4IDExMi42NEg0NzMuOTczMjc4YTE4Ljg0MTYgMTguODQxNiAwIDAgMSAwLTM3LjY4MzJINTQ4LjkzMDA3OGExOC44NDE2IDE4Ljg0MTYgMCAxIDEgMCAzNy42ODMyek01MTEuMjQ2ODc4IDk0Ni45OTUyYTU2LjExNTIgNTYuMTE1MiAwIDAgMS01Ni4xMTUyLTU2LjExNTIgNTIuNDI4OCA1Mi40Mjg4IDAgMCAxIDMuNjg2NC0xOS42NjA4IDE4Ljg0MTYgMTguODQxNiAwIDAgMSAyMy43NTY4LTExLjA1OTIgMTkuMjUxMiAxOS4yNTEyIDAgMCAxIDExLjQ2ODggMjQuMTY2NCAxOC44NDE2IDE4Ljg0MTYgMCAwIDAgMzUuMjI1NiAxMy4xMDcyIDE4Ljg0MTYgMTguODQxNiAwIDAgMC0xMS4wNTkyLTI0LjE2NjQgMTguODQxNiAxOC44NDE2IDAgMSAxIDEwLjY0OTYtMzYuMDQ0OCA1Ni4xMTUyIDU2LjExNTIgMCAwIDEtMTUuOTc0NCAxMTAuMTgyNHpNNzczLjgwMDQ3OCAxODcuNTk2OEgyNDguNjkzMjc4YTE4Ljg0MTYgMTguODQxNiAwIDAgMSAwLTM3LjY4MzJoNTI1LjEwNzJhMTguODQxNiAxOC44NDE2IDAgMCAxIDAgMzcuNjgzMnpNNzY2LjAxODA3OCA3OTcuMDgxNkgyNTguMTE0MDc4YTE4Ljg0MTYgMTguODQxNiAwIDEgMSAwLTM3LjY4MzJINzY2LjAxODA3OGExOC44NDE2IDE4Ljg0MTYgMCAwIDEgMCAzNy42ODMyeiIvPjwvc3ZnPg==;rounded=1;fillColor=#F2CC8F;strokeColor=#E07A5F;fontColor=#393C56;" vertex="1" parent="1">
          <mxGeometry x="-75" y="740" width="30" height="30" as="geometry" />
        </mxCell>
        <mxCell id="Cfy5rwxD8HpLnG3nBIZo-135" value="用户终端" style="shape=image;verticalLabelPosition=bottom;verticalAlign=top;aspect=fixed;imageAspect=0;image=data:image/svg+xml,PHN2ZyB4bWxuczp4bGluaz0iaHR0cDovL3d3dy53My5vcmcvMTk5OS94bGluayIgeG1sbnM9Imh0dHA6Ly93d3cudzMub3JnLzIwMDAvc3ZnIiBoZWlnaHQ9IjEyOCIgd2lkdGg9IjEyOCIgdmVyc2lvbj0iMS4xIiB2aWV3Qm94PSIwIDAgMTAyNCAxMDI0IiBjbGFzcz0iaWNvbiI+PHBhdGggZmlsbD0iIzUxNTE1MSIgZD0iTTc3My44MDA0NzggMTAyNEgyNDguNjkzMjc4QTU2LjExNTIgNTYuMTE1MiAwIDAgMSAxOTIuNTc4MDc4IDk2NS44MzY4VjMzOS45NjhhMTguNDMyIDE4LjQzMiAwIDAgMSAxOC44NDE2LTE4LjQzMiAxOC44NDE2IDE4Ljg0MTYgMCAwIDEgMTguODQxNiAxOC40MzJ2NjI1Ljg2ODhhMTguODQxNiAxOC44NDE2IDAgMCAwIDE4LjQzMiAxOC44NDE2aDUyNS4xMDcyYTE5LjI1MTIgMTkuMjUxMiAwIDAgMCAxOC44NDE2LTE4Ljg0MTZ2LTIxNC42MzA0YTE4LjQzMiAxOC40MzIgMCAwIDEgMTguODQxNi0xOC40MzIgMTguODQxNiAxOC44NDE2IDAgMCAxIDE4Ljg0MTYgMTguODQxNnYyMTQuMjIwOEE1Ni41MjQ4IDU2LjUyNDggMCAwIDEgNzczLjgwMDQ3OCAxMDI0eiBtMzcuNjgzMi0zMjcuNjhhMTguODQxNiAxOC44NDE2IDAgMCAxLTE4Ljg0MTYtMTguODQxNlY1Ni4xMTUyYTE4Ljg0MTYgMTguODQxNiAwIDAgMC0xOC44NDE2LTE4LjQzMkgyNDguNjkzMjc4YTE4LjQzMiAxOC40MzIgMCAwIDAtMTguNDMyIDE4LjQzMnYxMzMuOTM5MmExOS4yNTEyIDE5LjI1MTIgMCAwIDEtMTguODQxNiAxOC44NDE2IDE4Ljg0MTYgMTguODQxNiAwIDAgMS0xOC44NDE2LTE4Ljg0MTZWNTYuMTE1MkE1Ni41MjQ4IDU2LjUyNDggMCAwIDEgMjQ4LjY5MzI3OCAwaDUyNS4xMDcyYTU2LjkzNDQgNTYuOTM0NCAwIDAgMSA1Ni41MjQ4IDU2LjExNTJ2NjIwLjEzNDRhMTkuMjUxMiAxOS4yNTEyIDAgMCAxLTE4Ljg0MTYgMjAuMDcwNHpNMjExLjQxOTY3OCAyODMuODUyOGExOC44NDE2IDE4Ljg0MTYgMCAxIDEgMC0zOC4wOTI4IDE4Ljg0MTYgMTguODQxNiAwIDAgMSAxOC44NDE2IDE4LjQzMiAxOS4yNTEyIDE5LjI1MTIgMCAwIDEtMTguODQxNiAxOS42NjA4eiIvPjxwYXRoIGZpbGw9IiM1MTUxNTEiIGQ9Ik01NDguOTMwMDc4IDExMi42NEg0NzMuOTczMjc4YTE4Ljg0MTYgMTguODQxNiAwIDAgMSAwLTM3LjY4MzJINTQ4LjkzMDA3OGExOC44NDE2IDE4Ljg0MTYgMCAxIDEgMCAzNy42ODMyek01MTEuMjQ2ODc4IDk0Ni45OTUyYTU2LjExNTIgNTYuMTE1MiAwIDAgMS01Ni4xMTUyLTU2LjExNTIgNTIuNDI4OCA1Mi40Mjg4IDAgMCAxIDMuNjg2NC0xOS42NjA4IDE4Ljg0MTYgMTguODQxNiAwIDAgMSAyMy43NTY4LTExLjA1OTIgMTkuMjUxMiAxOS4yNTEyIDAgMCAxIDExLjQ2ODggMjQuMTY2NCAxOC44NDE2IDE4Ljg0MTYgMCAwIDAgMzUuMjI1NiAxMy4xMDcyIDE4Ljg0MTYgMTguODQxNiAwIDAgMC0xMS4wNTkyLTI0LjE2NjQgMTguODQxNiAxOC44NDE2IDAgMSAxIDEwLjY0OTYtMzYuMDQ0OCA1Ni4xMTUyIDU2LjExNTIgMCAwIDEtMTUuOTc0NCAxMTAuMTgyNHpNNzczLjgwMDQ3OCAxODcuNTk2OEgyNDguNjkzMjc4YTE4Ljg0MTYgMTguODQxNiAwIDAgMSAwLTM3LjY4MzJoNTI1LjEwNzJhMTguODQxNiAxOC44NDE2IDAgMCAxIDAgMzcuNjgzMnpNNzY2LjAxODA3OCA3OTcuMDgxNkgyNTguMTE0MDc4YTE4Ljg0MTYgMTguODQxNiAwIDEgMSAwLTM3LjY4MzJINzY2LjAxODA3OGExOC44NDE2IDE4Ljg0MTYgMCAwIDEgMCAzNy42ODMyeiIvPjwvc3ZnPg==;rounded=1;fillColor=#F2CC8F;strokeColor=#E07A5F;fontColor=#393C56;" vertex="1" parent="1">
          <mxGeometry y="640" width="30" height="30" as="geometry" />
        </mxCell>
        <mxCell id="Cfy5rwxD8HpLnG3nBIZo-137" value="用户终端" style="shape=image;verticalLabelPosition=bottom;verticalAlign=top;aspect=fixed;imageAspect=0;image=data:image/svg+xml,PHN2ZyB4bWxuczp4bGluaz0iaHR0cDovL3d3dy53My5vcmcvMTk5OS94bGluayIgeG1sbnM9Imh0dHA6Ly93d3cudzMub3JnLzIwMDAvc3ZnIiBoZWlnaHQ9IjEyOCIgd2lkdGg9IjEyOCIgdmVyc2lvbj0iMS4xIiB2aWV3Qm94PSIwIDAgMTAyNCAxMDI0IiBjbGFzcz0iaWNvbiI+PHBhdGggZmlsbD0iIzUxNTE1MSIgZD0iTTc3My44MDA0NzggMTAyNEgyNDguNjkzMjc4QTU2LjExNTIgNTYuMTE1MiAwIDAgMSAxOTIuNTc4MDc4IDk2NS44MzY4VjMzOS45NjhhMTguNDMyIDE4LjQzMiAwIDAgMSAxOC44NDE2LTE4LjQzMiAxOC44NDE2IDE4Ljg0MTYgMCAwIDEgMTguODQxNiAxOC40MzJ2NjI1Ljg2ODhhMTguODQxNiAxOC44NDE2IDAgMCAwIDE4LjQzMiAxOC44NDE2aDUyNS4xMDcyYTE5LjI1MTIgMTkuMjUxMiAwIDAgMCAxOC44NDE2LTE4Ljg0MTZ2LTIxNC42MzA0YTE4LjQzMiAxOC40MzIgMCAwIDEgMTguODQxNi0xOC40MzIgMTguODQxNiAxOC44NDE2IDAgMCAxIDE4Ljg0MTYgMTguODQxNnYyMTQuMjIwOEE1Ni41MjQ4IDU2LjUyNDggMCAwIDEgNzczLjgwMDQ3OCAxMDI0eiBtMzcuNjgzMi0zMjcuNjhhMTguODQxNiAxOC44NDE2IDAgMCAxLTE4Ljg0MTYtMTguODQxNlY1Ni4xMTUyYTE4Ljg0MTYgMTguODQxNiAwIDAgMC0xOC44NDE2LTE4LjQzMkgyNDguNjkzMjc4YTE4LjQzMiAxOC40MzIgMCAwIDAtMTguNDMyIDE4LjQzMnYxMzMuOTM5MmExOS4yNTEyIDE5LjI1MTIgMCAwIDEtMTguODQxNiAxOC44NDE2IDE4Ljg0MTYgMTguODQxNiAwIDAgMS0xOC44NDE2LTE4Ljg0MTZWNTYuMTE1MkE1Ni41MjQ4IDU2LjUyNDggMCAwIDEgMjQ4LjY5MzI3OCAwaDUyNS4xMDcyYTU2LjkzNDQgNTYuOTM0NCAwIDAgMSA1Ni41MjQ4IDU2LjExNTJ2NjIwLjEzNDRhMTkuMjUxMiAxOS4yNTEyIDAgMCAxLTE4Ljg0MTYgMjAuMDcwNHpNMjExLjQxOTY3OCAyODMuODUyOGExOC44NDE2IDE4Ljg0MTYgMCAxIDEgMC0zOC4wOTI4IDE4Ljg0MTYgMTguODQxNiAwIDAgMSAxOC44NDE2IDE4LjQzMiAxOS4yNTEyIDE5LjI1MTIgMCAwIDEtMTguODQxNiAxOS42NjA4eiIvPjxwYXRoIGZpbGw9IiM1MTUxNTEiIGQ9Ik01NDguOTMwMDc4IDExMi42NEg0NzMuOTczMjc4YTE4Ljg0MTYgMTguODQxNiAwIDAgMSAwLTM3LjY4MzJINTQ4LjkzMDA3OGExOC44NDE2IDE4Ljg0MTYgMCAxIDEgMCAzNy42ODMyek01MTEuMjQ2ODc4IDk0Ni45OTUyYTU2LjExNTIgNTYuMTE1MiAwIDAgMS01Ni4xMTUyLTU2LjExNTIgNTIuNDI4OCA1Mi40Mjg4IDAgMCAxIDMuNjg2NC0xOS42NjA4IDE4Ljg0MTYgMTguODQxNiAwIDAgMSAyMy43NTY4LTExLjA1OTIgMTkuMjUxMiAxOS4yNTEyIDAgMCAxIDExLjQ2ODggMjQuMTY2NCAxOC44NDE2IDE4Ljg0MTYgMCAwIDAgMzUuMjI1NiAxMy4xMDcyIDE4Ljg0MTYgMTguODQxNiAwIDAgMC0xMS4wNTkyLTI0LjE2NjQgMTguODQxNiAxOC44NDE2IDAgMSAxIDEwLjY0OTYtMzYuMDQ0OCA1Ni4xMTUyIDU2LjExNTIgMCAwIDEtMTUuOTc0NCAxMTAuMTgyNHpNNzczLjgwMDQ3OCAxODcuNTk2OEgyNDguNjkzMjc4YTE4Ljg0MTYgMTguODQxNiAwIDAgMSAwLTM3LjY4MzJoNTI1LjEwNzJhMTguODQxNiAxOC44NDE2IDAgMCAxIDAgMzcuNjgzMnpNNzY2LjAxODA3OCA3OTcuMDgxNkgyNTguMTE0MDc4YTE4Ljg0MTYgMTguODQxNiAwIDEgMSAwLTM3LjY4MzJINzY2LjAxODA3OGExOC44NDE2IDE4Ljg0MTYgMCAwIDEgMCAzNy42ODMyeiIvPjwvc3ZnPg==;rounded=1;fillColor=#F2CC8F;strokeColor=#E07A5F;fontColor=#393C56;" vertex="1" parent="1">
          <mxGeometry x="-75" y="400" width="30" height="30" as="geometry" />
        </mxCell>
        <mxCell id="Cfy5rwxD8HpLnG3nBIZo-138" value="用户终端" style="shape=image;verticalLabelPosition=bottom;verticalAlign=top;aspect=fixed;imageAspect=0;image=data:image/svg+xml,PHN2ZyB4bWxuczp4bGluaz0iaHR0cDovL3d3dy53My5vcmcvMTk5OS94bGluayIgeG1sbnM9Imh0dHA6Ly93d3cudzMub3JnLzIwMDAvc3ZnIiBoZWlnaHQ9IjEyOCIgd2lkdGg9IjEyOCIgdmVyc2lvbj0iMS4xIiB2aWV3Qm94PSIwIDAgMTAyNCAxMDI0IiBjbGFzcz0iaWNvbiI+PHBhdGggZmlsbD0iIzUxNTE1MSIgZD0iTTc3My44MDA0NzggMTAyNEgyNDguNjkzMjc4QTU2LjExNTIgNTYuMTE1MiAwIDAgMSAxOTIuNTc4MDc4IDk2NS44MzY4VjMzOS45NjhhMTguNDMyIDE4LjQzMiAwIDAgMSAxOC44NDE2LTE4LjQzMiAxOC44NDE2IDE4Ljg0MTYgMCAwIDEgMTguODQxNiAxOC40MzJ2NjI1Ljg2ODhhMTguODQxNiAxOC44NDE2IDAgMCAwIDE4LjQzMiAxOC44NDE2aDUyNS4xMDcyYTE5LjI1MTIgMTkuMjUxMiAwIDAgMCAxOC44NDE2LTE4Ljg0MTZ2LTIxNC42MzA0YTE4LjQzMiAxOC40MzIgMCAwIDEgMTguODQxNi0xOC40MzIgMTguODQxNiAxOC44NDE2IDAgMCAxIDE4Ljg0MTYgMTguODQxNnYyMTQuMjIwOEE1Ni41MjQ4IDU2LjUyNDggMCAwIDEgNzczLjgwMDQ3OCAxMDI0eiBtMzcuNjgzMi0zMjcuNjhhMTguODQxNiAxOC44NDE2IDAgMCAxLTE4Ljg0MTYtMTguODQxNlY1Ni4xMTUyYTE4Ljg0MTYgMTguODQxNiAwIDAgMC0xOC44NDE2LTE4LjQzMkgyNDguNjkzMjc4YTE4LjQzMiAxOC40MzIgMCAwIDAtMTguNDMyIDE4LjQzMnYxMzMuOTM5MmExOS4yNTEyIDE5LjI1MTIgMCAwIDEtMTguODQxNiAxOC44NDE2IDE4Ljg0MTYgMTguODQxNiAwIDAgMS0xOC44NDE2LTE4Ljg0MTZWNTYuMTE1MkE1Ni41MjQ4IDU2LjUyNDggMCAwIDEgMjQ4LjY5MzI3OCAwaDUyNS4xMDcyYTU2LjkzNDQgNTYuOTM0NCAwIDAgMSA1Ni41MjQ4IDU2LjExNTJ2NjIwLjEzNDRhMTkuMjUxMiAxOS4yNTEyIDAgMCAxLTE4Ljg0MTYgMjAuMDcwNHpNMjExLjQxOTY3OCAyODMuODUyOGExOC44NDE2IDE4Ljg0MTYgMCAxIDEgMC0zOC4wOTI4IDE4Ljg0MTYgMTguODQxNiAwIDAgMSAxOC44NDE2IDE4LjQzMiAxOS4yNTEyIDE5LjI1MTIgMCAwIDEtMTguODQxNiAxOS42NjA4eiIvPjxwYXRoIGZpbGw9IiM1MTUxNTEiIGQ9Ik01NDguOTMwMDc4IDExMi42NEg0NzMuOTczMjc4YTE4Ljg0MTYgMTguODQxNiAwIDAgMSAwLTM3LjY4MzJINTQ4LjkzMDA3OGExOC44NDE2IDE4Ljg0MTYgMCAxIDEgMCAzNy42ODMyek01MTEuMjQ2ODc4IDk0Ni45OTUyYTU2LjExNTIgNTYuMTE1MiAwIDAgMS01Ni4xMTUyLTU2LjExNTIgNTIuNDI4OCA1Mi40Mjg4IDAgMCAxIDMuNjg2NC0xOS42NjA4IDE4Ljg0MTYgMTguODQxNiAwIDAgMSAyMy43NTY4LTExLjA1OTIgMTkuMjUxMiAxOS4yNTEyIDAgMCAxIDExLjQ2ODggMjQuMTY2NCAxOC44NDE2IDE4Ljg0MTYgMCAwIDAgMzUuMjI1NiAxMy4xMDcyIDE4Ljg0MTYgMTguODQxNiAwIDAgMC0xMS4wNTkyLTI0LjE2NjQgMTguODQxNiAxOC44NDE2IDAgMSAxIDEwLjY0OTYtMzYuMDQ0OCA1Ni4xMTUyIDU2LjExNTIgMCAwIDEtMTUuOTc0NCAxMTAuMTgyNHpNNzczLjgwMDQ3OCAxODcuNTk2OEgyNDguNjkzMjc4YTE4Ljg0MTYgMTguODQxNiAwIDAgMSAwLTM3LjY4MzJoNTI1LjEwNzJhMTguODQxNiAxOC44NDE2IDAgMCAxIDAgMzcuNjgzMnpNNzY2LjAxODA3OCA3OTcuMDgxNkgyNTguMTE0MDc4YTE4Ljg0MTYgMTguODQxNiAwIDEgMSAwLTM3LjY4MzJINzY2LjAxODA3OGExOC44NDE2IDE4Ljg0MTYgMCAwIDEgMCAzNy42ODMyeiIvPjwvc3ZnPg==;rounded=1;fillColor=#F2CC8F;strokeColor=#E07A5F;fontColor=#393C56;" vertex="1" parent="1">
          <mxGeometry x="-20" y="425" width="30" height="30" as="geometry" />
        </mxCell>
      </root>
    </mxGraphModel>
  </diagram>
</mxfile>
